<?xml version="1.0" encoding="utf-8"?>
<!-- Generator: Adobe Illustrator 19.2.1, SVG Export Plug-In . SVG Version: 6.00 Build 0)  -->
<svg version="1.1" id="Layer_1" xmlns="http://www.w3.org/2000/svg" xmlns:xlink="http://www.w3.org/1999/xlink" x="0px" y="0px"
	 viewBox="0 0 24 30" style="enable-background:new 0 0 24 30;" xml:space="preserve">
<style type="text/css">
	.st0{fill:#3EB39F;}
</style>
<path class="st0" d="M11.1,14.1H7.7c-0.5,0-0.9,0.4-0.9,0.9v3.5c0,0.5,0.4,0.9,0.9,0.9h3.4c0.5,0,0.9-0.4,0.9-0.9V15
	C12,14.5,11.6,14.1,11.1,14.1z M10.3,17.6H8.6v-1.8h1.7V17.6z"/>
<path class="st0" d="M11.1,21.2H7.7c-0.5,0-0.9,0.4-0.9,0.9v3.5c0,0.5,0.4,0.9,0.9,0.9h3.4c0.5,0,0.9-0.4,0.9-0.9V22
	C12,21.5,11.6,21.2,11.1,21.2z M10.3,24.7H8.6v-1.8h1.7V24.7z"/>
<path class="st0" d="M0,25.5c0,0.5,0.4,0.9,0.9,0.9h2.6v2.7c0,0.5,0.4,0.9,0.9,0.9h18.9c0.5,0,0.9-0.4,0.9-0.9V8.7
	c0-0.7-0.3-1.4-0.8-1.9l-2.4-2.5c-0.1-0.1-0.2-0.2-0.3-0.2V0.9c0-0.5-0.4-0.9-0.9-0.9H0.9C0.4,0,0,0.4,0,0.9V25.5z M5.1,28.2V5.3h12
	v4.4c0,0.5,0.4,0.9,0.9,0.9h4.3v17.6H5.1z M22,8.1c0.2,0.2,0.3,0.4,0.3,0.6v0.2h-3.4V5.3H19c0.2,0,0.4,0.1,0.6,0.3L22,8.1z M1.7,1.8
	h17.1v1.8H4.3C3.8,3.6,3.4,4,3.4,4.5v20.2H1.7V1.8z"/>
<path class="st0" d="M19.7,15.9h-5.1c-0.5,0-0.9,0.4-0.9,0.9s0.4,0.9,0.9,0.9h5.1c0.5,0,0.9-0.4,0.9-0.9S20.2,15.9,19.7,15.9z"/>
<path class="st0" d="M7.7,12.4h6.9c0.5,0,0.9-0.4,0.9-0.9s-0.4-0.9-0.9-0.9H7.7c-0.5,0-0.9,0.4-0.9,0.9S7.2,12.4,7.7,12.4z"/>
<path class="st0" d="M7.7,8.8h6.9c0.5,0,0.9-0.4,0.9-0.9S15,7.1,14.6,7.1H7.7C7.2,7.1,6.9,7.5,6.9,8S7.2,8.8,7.7,8.8z"/>
<path class="st0" d="M19.7,22.9h-5.1c-0.5,0-0.9,0.4-0.9,0.9s0.4,0.9,0.9,0.9h5.1c0.5,0,0.9-0.4,0.9-0.9S20.2,22.9,19.7,22.9z"/>
</svg>
