<svg xmlns="http://www.w3.org/2000/svg" width="22.03" height="12" viewBox="0 0 22.03 12">
  <defs>
    <style>
      .cls-1 {
        fill: #0cb9f2;
        fill-rule: evenodd;
      }
    </style>
  </defs>
  <path id="icon-pass-show" class="cls-1" d="M1097.83,419.553a19.86,19.86,0,0,0-3.15-2.769,12,12,0,0,0-15.37,0,19.678,19.678,0,0,0-3.16,2.769,0.688,0.688,0,0,0,0,.894,19.735,19.735,0,0,0,3.16,2.769,12,12,0,0,0,15.37,0,19.918,19.918,0,0,0,3.15-2.769A0.688,0.688,0,0,0,1097.83,419.553Zm-6.32.447a4.517,4.517,0,1,1-4.52-4.667A4.6,4.6,0,0,1,1091.51,420Zm-13.98,0a18.816,18.816,0,0,1,4.71-3.443,6.168,6.168,0,0,0,0,6.885A18.38,18.38,0,0,1,1077.53,420Zm14.21,3.443a6.12,6.12,0,0,0,0-6.885,18.38,18.38,0,0,1,4.71,3.442A18.841,18.841,0,0,1,1091.74,423.443ZM1083.77,420a3.227,3.227,0,1,0,3.22-3.334A3.279,3.279,0,0,0,1083.77,420Zm5.16,0a1.936,1.936,0,1,1-1.94-2A1.973,1.973,0,0,1,1088.93,420Z" transform="translate(-1076 -414)"/>
</svg>
