<svg xmlns="http://www.w3.org/2000/svg" width="44" height="48" viewBox="0 0 44 48">
  <defs>
    <style>
      .cls-1 {
        fill: #fff;
        fill-rule: evenodd;
        opacity: 0.5;
      }
    </style>
  </defs>
  <path id="icon_header_calendar" class="cls-1" d="M40.06,13.807h2.955A0.986,0.986,0,0,0,44,12.821v-2.63a6.25,6.25,0,0,0-6.239-6.247H24.468a2.953,2.953,0,0,1,4.988-.986,0.986,0.986,0,1,0,1.468-1.316,4.924,4.924,0,0,0-8.5,2.3H10.02a2.953,2.953,0,0,1,4.989-.986,0.986,0.986,0,1,0,1.468-1.316,4.924,4.924,0,0,0-8.5,2.3H6.239A6.25,6.25,0,0,0,0,10.191V41.753A6.25,6.25,0,0,0,6.239,48H37.761A6.25,6.25,0,0,0,44,41.753v-26.3a0.985,0.985,0,1,0-1.97,0v26.3a4.279,4.279,0,0,1-3.618,4.224,6.226,6.226,0,0,0,1.648-4.224V13.807Zm1.97-3.616v1.644H40.06V10.191a6.226,6.226,0,0,0-1.648-4.225A4.279,4.279,0,0,1,42.03,10.191ZM1.97,41.753V13.807H6.239a0.986,0.986,0,0,0,0-1.973H1.97V10.191A4.276,4.276,0,0,1,6.239,5.917H7.98a4.935,4.935,0,0,0,4.826,3.945,0.986,0.986,0,0,0,0-1.972A2.96,2.96,0,0,1,10.02,5.917H22.428a4.935,4.935,0,0,0,4.826,3.945,0.986,0.986,0,0,0,0-1.972,2.96,2.96,0,0,1-2.786-1.972h9.353a4.276,4.276,0,0,1,4.269,4.274v1.644H33.821a0.986,0.986,0,0,0,0,1.973H38.09V41.753a4.276,4.276,0,0,1-4.269,4.274H6.239A4.276,4.276,0,0,1,1.97,41.753Zm6.9-27.945H31.194a0.986,0.986,0,0,0,0-1.973H8.866A0.986,0.986,0,0,0,8.866,13.807Zm25.284,26.63a0.986,0.986,0,0,0-.985-0.986h-4.6V35.507h5.582v2.959a0.985,0.985,0,1,0,1.97,0V18.739a2.96,2.96,0,0,0-2.955-2.959H6.9A2.96,2.96,0,0,0,3.94,18.739V38.465A2.961,2.961,0,0,0,6.9,41.424H33.164A0.986,0.986,0,0,0,34.149,40.438ZM26.6,39.452H21.015V35.507H26.6v3.945Zm7.552-11.836H28.567V23.671h5.582v3.945Zm-7.552,0H21.015V23.671H26.6v3.945Zm0,1.973v3.945H21.015V29.589H26.6ZM21.015,21.7V17.753H26.6V21.7H21.015Zm-1.97,0H13.463V17.753h5.582V21.7Zm0,1.973v3.945H13.463V23.671h5.582Zm-7.552,3.945H5.91V23.671h5.582v3.945ZM5.91,29.589h5.582v3.945H5.91V29.589Zm7.552,0h5.582v3.945H13.463V29.589Zm5.582,5.918v3.945H13.463V35.507h5.582Zm9.522-1.973V29.589h5.582v3.945H28.567Zm5.582-14.795V21.7H28.567V17.753h4.6A0.987,0.987,0,0,1,34.149,18.739ZM6.9,17.753h4.6V21.7H5.91V18.739A0.987,0.987,0,0,1,6.9,17.753ZM5.91,38.465V35.507h5.582v3.945H6.9A0.987,0.987,0,0,1,5.91,38.465Z"/>
</svg>
