<?xml version="1.0" encoding="utf-8"?>
<!-- Generator: Adobe Illustrator 19.2.1, SVG Export Plug-In . SVG Version: 6.00 Build 0)  -->
<svg version="1.1" id="Layer_1" xmlns="http://www.w3.org/2000/svg" xmlns:xlink="http://www.w3.org/1999/xlink" x="0px" y="0px"
	 viewBox="0 0 24 24" style="enable-background:new 0 0 24 24;" xml:space="preserve">
<style type="text/css">
	.st0{fill:#F26D6D;}
</style>
<g>
	<path class="st0" d="M21,2c0.6,0,1,0.4,1,1v18c0,0.6-0.4,1-1,1H3c-0.6,0-1-0.4-1-1V3c0-0.6,0.4-1,1-1H21 M21,0H3C1.3,0,0,1.3,0,3
		v18c0,1.7,1.3,3,3,3h18c1.7,0,3-1.3,3-3V3C24,1.3,22.7,0,21,0L21,0z"/>
</g>
<path id="icon-check-ok" class="st0" d="M17.6,10.1l-6,6l0,0c-0.6,0.6-1.5,0.6-2.1,0c0,0,0,0,0,0l0,0l-3-3l0,0
	c-0.6-0.6-0.6-1.5,0-2.1c0.6-0.6,1.5-0.6,2.1,0c0,0,0,0,0,0l0,0l1.9,1.9l4.9-4.9l0,0c0.6-0.6,1.5-0.6,2.1,0
	C18.2,8.5,18.2,9.4,17.6,10.1C17.6,10,17.6,10.1,17.6,10.1L17.6,10.1z"/>
</svg>
