<?xml version="1.0" encoding="utf-8"?>
<!-- Generator: Adobe Illustrator 19.2.1, SVG Export Plug-In . SVG Version: 6.00 Build 0)  -->
<svg version="1.1" id="Layer_1" xmlns="http://www.w3.org/2000/svg" xmlns:xlink="http://www.w3.org/1999/xlink" x="0px" y="0px"
	 viewBox="0 0 36 36" style="enable-background:new 0 0 36 36;" xml:space="preserve">
<style type="text/css">
	.st0{fill:#3EB39F;}
</style>
<path class="st0" d="M18,0C8.1,0,0,8.1,0,18s8.1,18,18,18c9.9,0,18-8.1,18-18S27.9,0,18,0z M23.6,16C23.6,16,23.6,16,23.6,16
	L23.6,16l-6,6c-0.6,0.6-1.5,0.6-2.1,0l-3-3c-0.6-0.6-0.6-1.5,0-2.1c0.6-0.6,1.5-0.6,2.1,0c0,0,0,0,0,0l1.9,1.9l4.9-4.9
	c0.6-0.6,1.5-0.6,2.1,0S24.2,15.4,23.6,16z"/>
</svg>
