<?xml version="1.0" encoding="utf-8"?>
<!-- Generator: Adobe Illustrator 19.2.1, SVG Export Plug-In . SVG Version: 6.00 Build 0)  -->
<svg version="1.1" id="Layer_1" xmlns="http://www.w3.org/2000/svg" xmlns:xlink="http://www.w3.org/1999/xlink" x="0px" y="0px"
	 viewBox="0 0 12 5" style="enable-background:new 0 0 12 5;" xml:space="preserve">
<style type="text/css">
	.st0{fill:#212426;}
</style>
<path class="st0" d="M11.5,3.1L6.9,0.4C6.7,0.1,6.4,0,6,0c0,0,0,0,0,0c0,0,0,0,0,0C5.6,0,5.3,0.1,5.1,0.4L0.5,3.1
	C0,3.4-0.1,4,0.1,4.5C0.4,5,1,5.1,1.5,4.9c0,0,0,0,0,0L6,2.2l4.5,2.7C11,5.1,11.6,5,11.9,4.5c0,0,0,0,0,0C12.1,4,12,3.4,11.5,3.1z"
	/>
</svg>
