<?xml version="1.0" encoding="utf-8"?>
<!-- Generator: Adobe Illustrator 19.2.1, SVG Export Plug-In . SVG Version: 6.00 Build 0)  -->
<svg version="1.1" id="Layer_1" xmlns="http://www.w3.org/2000/svg" xmlns:xlink="http://www.w3.org/1999/xlink" x="0px" y="0px"
	 viewBox="0 0 24 30" style="enable-background:new 0 0 24 30;" xml:space="preserve">
<style type="text/css">
	.st0{fill:#F26D6D;}
</style>
<g>
	<path class="st0" d="M12,7.5c-2.5,0-4.6,2.1-4.6,4.7v15c0,0.5,0.4,0.9,0.9,0.9c0.5,0,0.9-0.4,0.9-0.9v-15c0-1.6,1.2-2.8,2.8-2.8
		c1.5,0,2.8,1.3,2.8,2.8c0,0.5,0.4,0.9,0.9,0.9c0.5,0,0.9-0.4,0.9-0.9C16.6,9.6,14.5,7.5,12,7.5L12,7.5z M12,7.5"/>
	<path class="st0" d="M12,11.3c-0.5,0-0.9,0.4-0.9,0.9v8.4c0,0.5,0.4,0.9,0.9,0.9c0.5,0,0.9-0.4,0.9-0.9v-8.4
		C12.9,11.7,12.5,11.3,12,11.3L12,11.3z M12,11.3"/>
	<path class="st0" d="M12,23.4c-0.5,0-0.9,0.4-0.9,0.9v4.7c0,0.5,0.4,0.9,0.9,0.9c0.5,0,0.9-0.4,0.9-0.9v-4.7
		C12.9,23.9,12.5,23.4,12,23.4L12,23.4z M12,23.4"/>
	<path class="st0" d="M15.7,15c-0.5,0-0.9,0.4-0.9,0.9v11.2c0,0.5,0.4,0.9,0.9,0.9c0.5,0,0.9-0.4,0.9-0.9V15.9
		C16.6,15.4,16.2,15,15.7,15L15.7,15z M15.7,15"/>
	<path class="st0" d="M4.6,16.9c-0.5,0-0.9,0.4-0.9,0.9v6.6c0,0.5,0.4,0.9,0.9,0.9c0.5,0,0.9-0.4,0.9-0.9v-6.6
		C5.5,17.3,5.1,16.9,4.6,16.9L4.6,16.9z M4.6,16.9"/>
	<path class="st0" d="M23.1,15c-0.5,0-0.9,0.4-0.9,0.9v4.7c0,0.5,0.4,0.9,0.9,0.9c0.5,0,0.9-0.4,0.9-0.9v-4.7
		C24,15.4,23.6,15,23.1,15L23.1,15z M23.1,15"/>
	<path class="st0" d="M18.5,8.5C18,8.7,17.8,9.2,18,9.7c0.3,0.8,0.5,1.6,0.5,2.5v12.2c0,0.5,0.4,0.9,0.9,0.9c0.5,0,0.9-0.4,0.9-0.9
		V12.2c0-1.1-0.2-2.2-0.6-3.2C19.5,8.5,19,8.3,18.5,8.5L18.5,8.5z M18.5,8.5"/>
	<path class="st0" d="M12,3.7c-4.6,0-8.3,3.8-8.3,8.4v1.9c0,0.5,0.4,0.9,0.9,0.9c0.5,0,0.9-0.4,0.9-0.9v-1.9c0-3.6,2.9-6.6,6.5-6.6
		c1.5,0,2.9,0.5,4,1.4c0.4,0.3,1,0.3,1.3-0.1c0.3-0.4,0.3-1-0.1-1.3C15.7,4.4,13.9,3.7,12,3.7L12,3.7z M12,3.7"/>
	<path class="st0" d="M7.9,2.7c1.3-0.6,2.7-0.9,4.1-0.9c5.6,0,10.2,4.6,10.2,10.3c0,0.5,0.4,0.9,0.9,0.9c0.5,0,0.9-0.4,0.9-0.9
		C24,5.5,18.6,0,12,0c-1.7,0-3.3,0.3-4.8,1C6.7,1.2,6.5,1.8,6.7,2.3C6.9,2.7,7.5,2.9,7.9,2.7L7.9,2.7z M7.9,2.7"/>
	<path class="st0" d="M4.4,4C4,3.6,3.4,3.7,3.1,4.1C1.1,6.3,0,9.2,0,12.2v8.4c0,0.5,0.4,0.9,0.9,0.9c0.5,0,0.9-0.4,0.9-0.9v-8.4
		c0-2.5,0.9-5,2.6-6.9C4.8,4.9,4.7,4.3,4.4,4L4.4,4z M4.4,4"/>
</g>
</svg>
