<?xml version="1.0" encoding="utf-8"?>
<!-- Generator: Adobe Illustrator 19.2.1, SVG Export Plug-In . SVG Version: 6.00 Build 0)  -->
<svg version="1.1" id="Layer_1" xmlns="http://www.w3.org/2000/svg" xmlns:xlink="http://www.w3.org/1999/xlink" x="0px" y="0px"
	 viewBox="0 0 36 36" style="enable-background:new 0 0 36 36;" xml:space="preserve">
<style type="text/css">
	.st0{fill:#F26D6D;}
</style>
<path class="st0" d="M18,0C8.1,0,0,8.1,0,18s8.1,18,18,18c9.9,0,18-8.1,18-18S27.9,0,18,0z M22.5,22.5c-0.3,0.3-0.7,0.5-1.2,0.5
	c-0.4,0-0.9-0.2-1.2-0.5L18,20.3l-2.2,2.2c-0.7,0.6-1.7,0.6-2.4,0c-0.6-0.6-0.6-1.7,0-2.3l2.2-2.2l-2.2-2.2c-0.7-0.6-0.7-1.7,0-2.4
	c0.3-0.3,0.7-0.5,1.2-0.5c0.4,0,0.9,0.2,1.2,0.5l2.2,2.2l2.2-2.2c0.3-0.3,0.7-0.5,1.2-0.5c0.9,0,1.7,0.7,1.7,1.7
	c0,0.4-0.2,0.9-0.5,1.2L20.4,18l2.2,2.2C23.2,20.8,23.2,21.9,22.5,22.5z"/>
</svg>
