<?xml version="1.0" encoding="utf-8"?>
<!-- Generator: Adobe Illustrator 19.2.1, SVG Export Plug-In . SVG Version: 6.00 Build 0)  -->
<svg version="1.1" id="Layer_1" xmlns="http://www.w3.org/2000/svg" xmlns:xlink="http://www.w3.org/1999/xlink" x="0px" y="0px"
	 viewBox="0 0 37 48" style="enable-background:new 0 0 37 48;" xml:space="preserve">
<style type="text/css">
	.st0{fill:#CCCCCC;}
</style>
<g>
	<path class="st0" d="M36.6,10.1l-0.6-0.6l-8.3-8.4L27,0.5C26.7,0.2,26.3,0,25.9,0H2c-1,0-2,0.8-2,2.4v43.9c0,0.7,0.7,1.4,1.5,1.6
		c0,0,0.1,0,0.1,0c0.1,0,0.3,0,0.4,0H35c0.1,0,0.3,0,0.4,0c0,0,0.1,0,0.1,0c0.8-0.2,1.5-0.9,1.5-1.6V11.6
		C37,10.9,36.9,10.5,36.6,10.1L36.6,10.1z M34.1,9.9h-6.9V3L34.1,9.9z M2,46.3c-0.1,0-0.1,0-0.2,0c-0.1-0.1-0.2-0.2-0.2-0.3v-12
		h33.7v12c0,0.2-0.1,0.3-0.2,0.3c-0.1,0-0.1,0-0.2,0H2z M1.6,32.3V2.4c0-0.2,0-0.8,0.4-0.8h23.5c0,0.1,0,0.2,0,0.3v9.6H35
		c0.1,0,0.2,0,0.3,0c0,0,0,0,0,0v20.7H1.6z M1.6,32.3"/>
	<path class="st0" d="M12.8,37c-0.3-0.2-0.6-0.4-0.9-0.5c-0.3-0.1-0.7-0.2-1-0.2H8.4v8.3h1.3v-3h1c0.4,0,0.8-0.1,1.2-0.2
		c0.4-0.1,0.7-0.3,0.9-0.5c0.3-0.2,0.5-0.5,0.6-0.9c0.1-0.3,0.2-0.7,0.2-1.1c0-0.4-0.1-0.8-0.3-1.1C13.3,37.5,13.1,37.3,12.8,37
		L12.8,37z M12.3,39.8c-0.1,0.2-0.2,0.4-0.3,0.5c-0.1,0.1-0.3,0.2-0.4,0.3c-0.2,0.1-0.3,0.1-0.5,0.1H9.8v-3.3h1
		c0.3,0,0.6,0.1,0.8,0.2c0.2,0.1,0.4,0.2,0.5,0.4c0.1,0.2,0.2,0.3,0.2,0.5c0,0.2,0.1,0.3,0.1,0.5C12.4,39.3,12.3,39.6,12.3,39.8
		L12.3,39.8z M12.3,39.8"/>
	<path class="st0" d="M20.9,37.6c-0.3-0.4-0.8-0.7-1.3-0.9c-0.5-0.2-1.1-0.3-1.8-0.3h-2.5v8.3h3.1c0.1,0,0.3,0,0.5,0
		c0.2,0,0.5-0.1,0.7-0.2c0.3-0.1,0.5-0.2,0.8-0.4c0.3-0.2,0.5-0.4,0.8-0.8c0.2-0.3,0.4-0.7,0.6-1.2c0.1-0.5,0.2-1.1,0.2-1.8
		c0-0.5-0.1-1-0.3-1.5C21.5,38.4,21.3,37.9,20.9,37.6L20.9,37.6z M19.9,42.8c-0.4,0.6-1.1,0.9-2,0.9h-1.3v-6.3h0.8
		c0.6,0,1.2,0.1,1.6,0.3c0.4,0.2,0.7,0.4,1,0.7c0.2,0.3,0.4,0.6,0.5,0.9c0.1,0.3,0.1,0.7,0.1,1C20.6,41.4,20.4,42.2,19.9,42.8
		L19.9,42.8z M19.9,42.8"/>
	<path class="st0" d="M23.9,44.7h1.4v-3.8h3.5V40h-3.5v-2.6h3.8v-1h-5.2V44.7z M23.9,44.7"/>
	<path class="st0" d="M26.3,19c-0.8,0-1.7,0.1-2.8,0.3c-1.5-1.6-3.1-4-4.2-6.3c1.1-4.7,0.6-5.3,0.3-5.6c-0.3-0.3-0.6-0.9-1-0.9
		c-0.2,0-0.6,0.1-0.8,0.1c-0.5,0.2-0.7,0.5-0.9,1c-0.6,1.4,0.2,3.7,1,5.5c-0.7,2.8-1.9,6.2-3.1,8.9c-3.1,1.4-4.8,2.8-4.9,4.2
		c-0.1,0.5,0.1,1.2,0.9,1.9c0.2,0.2,0.5,0.3,0.8,0.3c0.7,0,1.4-0.6,2.3-1.7c0.6-0.9,1.3-2.1,2-3.5c2.2-1,4.9-1.8,7.3-2.3
		c1.3,1.3,2.5,1.9,3.5,1.9c0.7,0,1.4-0.3,1.8-1c0.5-0.7,0.6-1.3,0.3-1.8C28.3,19.3,27.5,19,26.3,19L26.3,19z M11.5,27
		c-0.4-0.3-0.4-0.5-0.4-0.6c0-0.5,0.8-1.3,2.5-2.3C12.4,26.6,11.7,27,11.5,27L11.5,27z M18.3,8c0,0,0.9,0.9,0.1,2.7
		C17.2,9.5,18.2,8.1,18.3,8L18.3,8z M16.6,21.3c0.8-2,1.6-4.2,2.2-6.3c0.9,1.7,2,3.3,3.1,4.6C20.2,20,18.3,20.6,16.6,21.3L16.6,21.3
		z M27.2,20.9c-0.3,0.4-0.8,0.4-1,0.4c-0.4,0-0.6-0.3-1.3-0.8c0.6-0.1,1.1-0.1,1.5-0.1c0.7,0,0.9,0.1,1,0.2
		C27.4,20.6,27.3,20.7,27.2,20.9L27.2,20.9z M27.2,20.9"/>
</g>
</svg>
