<?xml version="1.0" encoding="utf-8"?>
<!-- Generator: Adobe Illustrator 19.2.1, SVG Export Plug-In . SVG Version: 6.00 Build 0)  -->
<svg version="1.1" id="Layer_1" xmlns="http://www.w3.org/2000/svg" xmlns:xlink="http://www.w3.org/1999/xlink" x="0px" y="0px"
	 viewBox="0 0 24 24" style="enable-background:new 0 0 24 24;" xml:space="preserve">
<style type="text/css">
	.st0{fill:#919799;}
</style>
<g>
	<path class="st0" d="M20,2.8h-0.7V2.1c0-1.2-0.9-2.1-2-2.1H4C2.9,0,2,0.9,2,2.1v17c0,1.2,0.9,2.1,2,2.1h0.7v0.7
		c0,1.2,0.9,2.1,2,2.1H20c1.1,0,2-0.9,2-2.1v-17C22,3.8,21.1,2.8,20,2.8L20,2.8z M5.3,5.4C4.9,5.8,4.7,6.3,4.7,6.9v12.9H4
		c-0.4,0-0.7-0.3-0.7-0.7v-17c0-0.4,0.3-0.7,0.7-0.7h13.3c0.4,0,0.7,0.3,0.7,0.7v0.7H8.6C8,2.8,7.5,3,7.1,3.4L5.3,5.4z M8.7,4.2V7H6
		V6.9c0-0.2,0.1-0.4,0.2-0.5l1.9-2c0.1-0.1,0.3-0.2,0.5-0.2H8.7z M20.7,21.9c0,0.4-0.3,0.7-0.7,0.7H6.7c-0.4,0-0.7-0.3-0.7-0.7V8.4
		h3.3c0.4,0,0.7-0.3,0.7-0.7V4.2h10c0.4,0,0.7,0.3,0.7,0.7V21.9z M20.7,21.9"/>
	<path class="st0" d="M18.7,9.9H8c-0.4,0-0.7,0.3-0.7,0.7c0,0.4,0.3,0.7,0.7,0.7h10.7c0.4,0,0.7-0.3,0.7-0.7
		C19.3,10.3,19,9.9,18.7,9.9L18.7,9.9z M18.7,9.9"/>
	<path class="st0" d="M18.7,12.8H8c-0.4,0-0.7,0.3-0.7,0.7c0,0.4,0.3,0.7,0.7,0.7h10.7c0.4,0,0.7-0.3,0.7-0.7
		C19.3,13.1,19,12.8,18.7,12.8L18.7,12.8z M18.7,12.8"/>
	<path class="st0" d="M18.7,15.6H8c-0.4,0-0.7,0.3-0.7,0.7C7.3,16.7,7.6,17,8,17h10.7c0.4,0,0.7-0.3,0.7-0.7
		C19.3,15.9,19,15.6,18.7,15.6L18.7,15.6z M18.7,15.6"/>
	<path class="st0" d="M18.7,18.4H8c-0.4,0-0.7,0.3-0.7,0.7c0,0.4,0.3,0.7,0.7,0.7h10.7c0.4,0,0.7-0.3,0.7-0.7
		C19.3,18.7,19,18.4,18.7,18.4L18.7,18.4z M18.7,18.4"/>
</g>
</svg>
