<?xml version="1.0" encoding="utf-8"?>
<!-- Generator: Adobe Illustrator 19.2.1, SVG Export Plug-In . SVG Version: 6.00 Build 0)  -->
<svg version="1.1" id="Layer_1" xmlns="http://www.w3.org/2000/svg" xmlns:xlink="http://www.w3.org/1999/xlink" x="0px" y="0px"
	 viewBox="0 0 24 24" style="enable-background:new 0 0 24 24;" xml:space="preserve">
<style type="text/css">
	.st0{fill:#3E95B3;}
</style>
<path class="st0" d="M23.2,0H0.8C0.4,0,0,0.4,0,0.8v15.7c0,0.4,0.4,0.8,0.8,0.8h9.1L8,21.6c-0.1,0.3-0.1,0.6,0.1,0.9
	c0.2,0.2,0.5,0.3,0.8,0.2l1.3-0.5l0.5,1.3c0.1,0.3,0.4,0.5,0.7,0.5c0.3,0,0.6-0.2,0.7-0.5l1.5-3.5l1.5,3.5c0.1,0.3,0.4,0.5,0.7,0.5
	c0,0,0,0,0,0c0.3,0,0.6-0.2,0.7-0.5l0.5-1.3l1.3,0.5c0.3,0.1,0.6,0,0.8-0.2c0.2-0.2,0.3-0.6,0.1-0.9l-1.9-4.3h5.5
	c0.4,0,0.8-0.4,0.8-0.8V0.8C24,0.4,23.6,0,23.2,0z M11.6,21.1l-0.1-0.2c-0.1-0.3-0.4-0.5-0.7-0.5c-0.1,0-0.2,0-0.3,0l-0.4,0.1
	l1.1-2.6c0.4,0.3,0.9,0.6,1.4,0.7L11.6,21.1z M6.1,12.5c-0.2-0.7-0.8-1.2-1.4-1.4v-5c0.7-0.2,1.2-0.8,1.4-1.4h11.7
	c0.2,0.7,0.8,1.2,1.4,1.4v5c-0.7,0.2-1.2,0.8-1.4,1.4H17c-0.7-1-1.9-1.6-3.1-1.6s-2.4,0.6-3.1,1.6H6.1L6.1,12.5z M13.8,17.2
	c-1.3,0-2.3-1.1-2.3-2.4c0-1.3,1.1-2.4,2.3-2.4c1.3,0,2.3,1.1,2.3,2.4C16.2,16.2,15.1,17.2,13.8,17.2z M17.1,20.4
	c-0.4-0.1-0.9,0.1-1,0.5L16,21.1l-1.1-2.5c0.5-0.2,1-0.4,1.4-0.7l1.1,2.6L17.1,20.4z M22.4,15.7h-4.8c0.1-0.3,0.1-0.5,0.1-0.8
	s0-0.5-0.1-0.8h0.9c0.4,0,0.8-0.4,0.8-0.8c0-0.4,0.4-0.8,0.8-0.8c0.4,0,0.8-0.4,0.8-0.8V5.5c0-0.4-0.4-0.8-0.8-0.8
	c-0.4,0-0.8-0.4-0.8-0.8c0-0.4-0.4-0.8-0.8-0.8h-13C5,3.1,4.7,3.5,4.7,3.9c0,0.4-0.4,0.8-0.8,0.8c-0.4,0-0.8,0.4-0.8,0.8v6.3
	c0,0.4,0.4,0.8,0.8,0.8c0.4,0,0.8,0.4,0.8,0.8c0,0.4,0.4,0.8,0.8,0.8H10c-0.1,0.3-0.1,0.5-0.1,0.8s0,0.5,0.1,0.8H1.6V1.6h20.9V15.7z
	"/>
<path class="st0" d="M17.7,7c0-0.4-0.4-0.8-0.8-0.8H7C6.6,6.3,6.3,6.6,6.3,7c0,0.4,0.4,0.8,0.8,0.8H17C17.4,7.8,17.7,7.5,17.7,7z"/>
<path class="st0" d="M9.1,9.4H7c-0.4,0-0.8,0.4-0.8,0.8S6.6,11,7,11h2.1c0.4,0,0.8-0.4,0.8-0.8S9.6,9.4,9.1,9.4z"/>
</svg>
