<?xml version="1.0" encoding="utf-8"?>
<!-- Generator: Adobe Illustrator 19.2.1, SVG Export Plug-In . SVG Version: 6.00 Build 0)  -->
<svg version="1.1" id="Layer_1" xmlns="http://www.w3.org/2000/svg" xmlns:xlink="http://www.w3.org/1999/xlink" x="0px" y="0px"
	 viewBox="0 0 24 24" style="enable-background:new 0 0 24 24;" xml:space="preserve">
<style type="text/css">
	.st0{fill:#919799;}
</style>
<path class="st0" d="M23.5,10.8c-0.4-0.6-1.1-0.9-1.8-0.9H21V7.7c0-1.2-0.9-2.1-2.1-2.1h-0.7V4.9c0-0.2-0.1-0.4-0.2-0.5c0,0,0,0,0,0
	l-4.2-4.2c0,0,0,0,0,0C13.7,0.1,13.5,0,13.3,0H3.5C3.1,0,2.8,0.4,2.8,0.7v3.5H2.1C0.9,4.2,0,5.2,0,6.3v15.5c0,1.4,1.3,2.3,2.2,2.1
	c0.1,0,0.1,0,0.2,0h17.3c1,0,1.8-0.7,2.1-1.6l2.1-9.5C24.1,12.1,23.9,11.4,23.5,10.8L23.5,10.8z M18.2,7h0.7c0.4,0,0.7,0.3,0.7,0.7
	v2.2h-1.4V7z M14,2.4l1.8,1.8H14V2.4z M4.2,1.4h8.4v3.5c0,0.4,0.3,0.7,0.7,0.7h3.5v4.3H4.6c-0.1,0-0.3,0-0.4,0V1.4z M1.4,6.3
	c0-0.4,0.3-0.7,0.7-0.7h0.7V11c-0.1,0.2-0.2,0.4-0.2,0.6l-1.2,5.3V6.3z M22.6,12.5L20.4,22c-0.1,0.3-0.4,0.5-0.7,0.5H2.4
	c-0.2,0-0.4-0.1-0.5-0.3c-0.1-0.2-0.2-0.4-0.1-0.6l2.2-9.8c0.1-0.3,0.4-0.5,0.7-0.5h17c0.3,0,0.6,0.1,0.7,0.4
	C22.6,11.9,22.6,12.2,22.6,12.5L22.6,12.5z M22.6,12.5"/>
<path class="st0" d="M14.7,7H6.3C5.9,7,5.6,7.3,5.6,7.7c0,0.4,0.3,0.7,0.7,0.7h8.4c0.4,0,0.7-0.3,0.7-0.7C15.4,7.3,15.1,7,14.7,7
	L14.7,7z M14.7,7"/>
</svg>
