<svg xmlns="http://www.w3.org/2000/svg" xmlns:xlink="http://www.w3.org/1999/xlink" width="13" height="13" viewBox="0 0 13 13"><defs><path id="hcu5a" d="M349.33 1807c-.46 0-.87-.19-1.18-.49l-2.15-2.16-2.16 2.16a1.66 1.66 0 1 1-2.35-2.36l2.15-2.15-2.15-2.16a1.66 1.66 0 0 1 1.18-2.84c.46 0 .87.18 1.17.49l2.16 2.15 2.15-2.15a1.66 1.66 0 0 1 2.85 1.17c0 .46-.19.88-.49 1.18l-2.15 2.16 2.15 2.15a1.66 1.66 0 0 1-1.18 2.85z"/></defs><g><g transform="translate(-339 -1795)"><use fill="#fff" xlink:href="#hcu5a"/></g></g></svg>