<svg xmlns="http://www.w3.org/2000/svg" xmlns:xlink="http://www.w3.org/1999/xlink" width="38" height="39" viewBox="0 0 38 39"><defs><path id="3lrga" d="M485.03 1124.55a1 1 0 0 1 .53 1.85c-1.26.79-2.4 1.74-3.4 2.84a1 1 0 1 1-1.48-1.35 18.1 18.1 0 0 1 3.5-2.98h.01l.04-.03h.01v-.01h.01l.02-.01v-.01h.01l.01-.01h.01v-.01h.02v-.01h.01v-.01h.02v-.01h.01v-.01h.02v-.01h.01l.01-.01h.01v-.01l.03-.01.01-.01.06-.04a1 1 0 0 1 .52-.15zm-6.27 6.9a1 1 0 0 1 .9 1.44 15.88 15.88 0 0 0-1.4 4.2 1 1 0 0 1-1.97-.35v-.02l.01-.01v-.01-.01-.01-.01l.01-.01v-.01-.01-.01-.01-.01l.01-.01v-.01-.01-.01-.01h.01v-.01-.01-.01-.01-.01l.01-.01v-.01-.01-.01-.01l.01-.01v-.01-.01-.01-.01l.01-.01v-.01-.01-.01-.01a.08.08 0 0 1 .01-.01v-.01-.01-.01-.01h.01v-.01-.02-.02h.01v-.01-.02-.01l.01-.01v-.01-.01-.01-.01l.01-.01v-.01-.01-.01-.01h.01v-.01-.01-.01-.01l.01-.01v-.01-.01-.01l.01-.02v-.02l.01-.02v-.02-.02l.01-.01v-.01a.15.15 0 0 1 0-.02h.01v-.01-.01-.01-.01l.01-.01v-.01-.01l.01-.02v-.02l.01-.03v-.02l.01-.03v-.01l.01-.01v-.02-.02h.01v-.03l.01-.02v-.02c.32-1.25.77-2.44 1.33-3.57a1 1 0 0 1 .9-.56zm-2.28 4.39zm.6 4.79a1 1 0 0 1 1 .9 15.9 15.9 0 0 0 1.02 4.3 1 1 0 0 1-1.86.74c-.14-.35-.27-.7-.38-1.06l-.02-.05-.02-.07v-.02l-.01-.02v-.02l-.01-.01v-.01a.2.2 0 0 1 0-.01l-.01-.02-.01-.03v-.02h-.01v-.02l-.01-.02v-.01-.01l-.01-.01v-.02l-.01-.02v-.03h-.01v-.02-.01l-.01-.01v-.01-.01h-.01v-.01-.02a.37.37 0 0 1-.01-.02v-.01-.01h-.01v-.01-.01-.01l-.01-.01v-.01-.01-.01h-.01v-.01-.02l-.01-.02v-.01-.01l-.01-.01v-.03l-.01-.01a.08.08 0 0 1 0-.01v-.01l-.01-.01v-.02-.01h-.01v-.01-.01-.01-.01h-.01v-.02-.01-.01h-.01v-.01-.01-.01l-.01-.01v-.01-.01-.01l-.01-.01v-.02-.02h-.01v-.01-.01-.01l-.01-.01v-.01-.01-.01h-.01v-.01-.01-.01l-.01-.02v-.03h-.01v-.02-.02l-.01-.01v-.01-.01l-.01-.02v-.01-.01-.01l-.01-.02v-.02l-.01-.02v-.01-.02h-.01v-.02-.01-.01h-.01v-.01-.02-.01l-.01-.01v-.01-.02l-.01-.02v-.03h-.01v-.01a.06.06 0 0 0 0-.02v-.01l-.01-.01v-.02-.02h-.01v-.01-.02-.02h-.01v-.02l-.01-.03v-.02l-.01-.03v-.02-.01l-.01-.01v-.01-.02l-.01-.02v-.01-.01-.01l-.01-.02v-.03l-.01-.02v-.03-.02h-.01v-.02l-.01-.03v-.02-.02-.01l-.01-.02a1 1 0 0 1 .76-2.75zm3.4 8.67c.3 0 .6.14.8.4a16.1 16.1 0 0 0 3.14 3.12 1 1 0 0 1-1.2 1.6l-.67-.53-.08-.07-.02-.02-.02-.01-.01-.01-.02-.02h-.01v-.01h-.01v-.01h-.01l-.01-.01h-.01v-.01h-.01v-.01h-.01v-.01h-.01l-.01-.01v-.01h-.01l-.01-.01h-.01v-.01h-.01v-.01h-.01v-.01h-.01a.09.09 0 0 0 0-.01h-.02v-.01l-.01-.01-.02-.01v-.01h-.01v-.01l-.02-.02h-.01l-.01-.01-.02-.02-.01-.01-.02-.01c-.57-.51-1.11-1.05-1.62-1.63l-.02-.02-.01-.01-.01-.02-.02-.01v-.02h-.01l-.01-.01-.02-.02v-.01h-.01v-.01h-.01v-.01h-.01v-.01l-.01-.01h-.01v-.02h-.01v-.01h-.01l-.02-.02-.01-.02-.03-.03-.57-.71a1 1 0 0 1 .8-1.6zm7.46 5.59a1 1 0 0 1 .36.07c1.38.52 2.84.85 4.32.98a1 1 0 0 1-.17 2h-.02-.01l-.01-.01h-.03-.01-.01-.01-.01-.01-.01-.01l-.01-.01h-.01-.01-.01-.01-.04-.02v-.01h-.08-.02l-.03-.01a17.88 17.88 0 0 1-4.49-1.08 1 1 0 0 1 .36-1.93zm13.75-.72a1 1 0 0 1 .45 1.89l-.11.05-.02.01-.02.01-.02.01h-.01l-.01.01h-.01v.01h-.01l-.01.01h-.01-.01v.01h-.01-.01v.01h-.01-.01v.01h-.01-.01v.01h-.02v.01h-.01-.01l-.02.02h-.03l-.01.02a17.86 17.86 0 0 1-4.5 1.43 1 1 0 0 1-.2-1.98 15.9 15.9 0 0 0 4.2-1.43 1 1 0 0 1 .45-.11zm6.84-6.34a1 1 0 0 1 .85 1.52l-.16.27-.02.02v.01l-.01.01v.01h-.01v.02h-.01v.01l-.01.01v.01h-.01v.01h-.01v.02h-.01v.01l-.01.01v.01h-.01v.02h-.01v.01h-.01a.12.12 0 0 1 0 .01v.01h-.01v.01h-.01v.02h-.01v.01h-.01v.01l-.01.02-.01.01v.01h-.01l-.01.02-.01.01-.01.02-.03.04a18.1 18.1 0 0 1-2.73 3.2 1 1 0 0 1-1.42-.06 1 1 0 0 1 .06-1.4 16.07 16.07 0 0 0 2.8-3.44 1 1 0 0 1 .86-.48zm.52 2.04zm1.95-11.03a1 1 0 0 1 1 .98V1140.6h-.01V1140.85h-.01V1141.04l-.01.03V1141.2h-.01V1141.35l-.01.01v.11l-.01.03v.09l-.01.03v.08l-.01.03v.03l-.01.09v.05l-.01.03v.06l-.02.08v.09l-.01.02-.01.12-.02.1v.04l-.01.06v.06l-.01.03v.02l-.02.06-.01.11-.01.06-.01.05v.06l-.02.05V1143.06l-.01.02v.03l-.01.02v.04l-.01.02v.03l-.01.02v.04l-.01.02v.03l-.01.02v.04l-.01.02v.03l-.01.02v.03h-.01v.06h-.01v.04l-.01.01v.04h-.01v.02a.14.14 0 0 0 0 .02v.01h-.01v.05h-.01v.04l-.01.01v.04l-.01.02v.03h-.01v.03l-.01.02v.04l-.01.02-.2.79a1 1 0 0 1-1.93-.53c.38-1.38.57-2.8.57-4.25v-.15a1 1 0 0 1 1-1zm-2.64-8.94a1 1 0 0 1 .85.46c.63 1 1.16 2.06 1.6 3.17v.04l.01.02.01.02.01.02a.27.27 0 0 0 0 .01v.01h.01v.02l.01.02v.01l.01.01v.02h.01v.03h.01v.02l.01.01v.02h.01v.02l.01.01v.03h.01v.02l.01.02v.01l.01.01v.01l.01.02v.02c.12.3.22.61.3.92a1 1 0 0 1-1.91.57 15.91 15.91 0 0 0-1.83-4.03 1 1 0 0 1 .84-1.54zm-6.96-6.2a1 1 0 0 1 .44.1c.57.27 1.12.57 1.65.9l.01.01c.02 0 .03.02.04.03h.02l.02.02h.01l.01.01h.01v.01h.01l.01.01a.05.05 0 0 1 .01 0l.01.01h.01v.01h.01v.01h.02v.01l.02.01.02.01.01.01h.01v.01h.01l.01.01h.01l.01.01.01.01h.01v.01h.01l.02.01.01.01h.01v.01h.01v.01h.01l.01.01h.01l.01.01.02.01a.83.83 0 0 1 .06.04l.03.03.04.02c.68.46 1.32.96 1.92 1.5a1 1 0 0 1-1.33 1.49 16.04 16.04 0 0 0-3.68-2.47 1 1 0 0 1 .43-1.9zm-7.4-1.7H494.6l.03.01H494.84c.6.04 1.18.1 1.76.18h.08l.01.01H496.75l.01.01H496.83v.01H496.88v.01h.05l.02.01h.06v.01h.01l.08.01a1 1 0 0 1-.35 1.98 16.17 16.17 0 0 0-7.14.37 1 1 0 0 1-1.24-.69 1 1 0 0 1 .7-1.23l.1-.04.06-.01h.02l.01-.01h.01a.03.03 0 0 1 .01 0l.02-.01h.01a.06.06 0 0 1 .01 0l.01-.01h.03l.01-.01h.03l.01-.01h.03l.01-.01h.02l.03-.01.02-.01h.02l.03-.01h.03a17.98 17.98 0 0 1 3.6-.52l.02-.01h.13l.01-.01H493.82v-.01H494zm-1 13a1 1 0 0 1 2 0v4h4a1 1 0 0 1 0 2h-4v4a1 1 0 0 1-2 0v-4h-4a1 1 0 0 1 0-2h4z"/></defs><g><g transform="translate(-475 -1120)"><use fill="#c2c9cc" xlink:href="#3lrga"/></g></g></svg>