<?xml version="1.0" encoding="utf-8"?>
<!-- Generator: Adobe Illustrator 19.2.1, SVG Export Plug-In . SVG Version: 6.00 Build 0)  -->
<svg version="1.1" id="Layer_1" xmlns="http://www.w3.org/2000/svg" xmlns:xlink="http://www.w3.org/1999/xlink" x="0px" y="0px"
	 viewBox="0 0 48 48" style="enable-background:new 0 0 48 48;" xml:space="preserve">
<style type="text/css">
	.st0{fill:#212426;}
</style>
<path class="st0" d="M24,0C10.7,0,0,10.7,0,24s10.7,24,24,24s24-10.7,24-24S37.3,0,24,0z M24,46C11.8,46,2,36.2,2,24S11.8,2,24,2
	s22,9.8,22,22S36.2,46,24,46z"/>
<path class="st0" d="M14.8,13.4l19.8,19.8c0.4,0.4,0.4,1,0,1.4c-0.4,0.4-1,0.4-1.4,0L13.4,14.8c-0.4-0.4-0.4-1,0-1.4
	C13.8,13,14.4,13,14.8,13.4L14.8,13.4z"/>
<path class="st0" d="M13.4,33.2l19.8-19.8c0.4-0.4,1-0.4,1.4,0c0.4,0.4,0.4,1,0,1.4l0,0L14.8,34.6c-0.4,0.4-1,0.4-1.4,0
	C13,34.2,13,33.6,13.4,33.2L13.4,33.2z"/>
</svg>
