<?xml version="1.0" encoding="utf-8"?>
<!-- Generator: Adobe Illustrator 19.2.1, SVG Export Plug-In . SVG Version: 6.00 Build 0)  -->
<svg version="1.1" id="Layer_1" xmlns="http://www.w3.org/2000/svg" xmlns:xlink="http://www.w3.org/1999/xlink" x="0px" y="0px"
	 viewBox="0 0 37 48" style="enable-background:new 0 0 37 48;" xml:space="preserve">
<style type="text/css">
	.st0{fill:#CCCCCC;}
</style>
<g>
	<path class="st0" d="M36.6,10.1l-0.6-0.6l-8.3-8.4v0L27,0.5C26.7,0.2,26.3,0,25.9,0H2c-1,0-2,0.8-2,2.4v43.9c0,0.7,0.7,1.4,1.5,1.6
		c0,0,0.1,0,0.1,0c0.1,0,0.3,0,0.4,0H35c0.1,0,0.3,0,0.4,0c0,0,0.1,0,0.1,0c0.8-0.2,1.5-0.9,1.5-1.6V11.6
		C37,10.9,36.9,10.5,36.6,10.1L36.6,10.1z M27.1,3l6.9,7h-6.9V3z M2,46.3c-0.1,0-0.1,0-0.2,0c-0.1-0.1-0.2-0.2-0.2-0.3v-12h33.7v12
		c0,0.1-0.1,0.3-0.2,0.3c-0.1,0-0.1,0-0.2,0H2z M1.6,32.3V2.4c0-0.2,0-0.8,0.4-0.8h23.5c0,0.1,0,0.2,0,0.3v9.6H35c0.1,0,0.2,0,0.3,0
		c0,0,0,0,0,0v20.7H1.6z M1.6,32.3"/>
	<path class="st0" d="M10.7,37.4h4.2l-0.2,0.2l-3.9,6v1.1h5.5v-1.1h-4.2l0.2-0.2l3.9-6v-1.1h-5.5V37.4z M10.7,37.4"/>
	<rect x="18.2" y="36.4" class="st0" width="1.4" height="8.3"/>
	<path class="st0" d="M26,37c-0.3-0.2-0.6-0.4-0.9-0.5c-0.3-0.1-0.7-0.2-1-0.2h-2.4v8.3H23v-3h1c0.4,0,0.8-0.1,1.2-0.2
		c0.4-0.1,0.7-0.3,0.9-0.5c0.3-0.2,0.5-0.5,0.6-0.9c0.1-0.3,0.2-0.7,0.2-1.1c0-0.4-0.1-0.8-0.3-1.1C26.5,37.5,26.2,37.3,26,37L26,37
		z M25.4,39.8c-0.1,0.2-0.2,0.4-0.3,0.5c-0.1,0.1-0.3,0.2-0.4,0.3c-0.2,0.1-0.3,0.1-0.5,0.1H23v-3.3h1c0.3,0,0.6,0.1,0.8,0.2
		c0.2,0.1,0.4,0.2,0.5,0.4c0.1,0.2,0.2,0.3,0.2,0.5c0,0.2,0.1,0.3,0.1,0.5C25.6,39.3,25.5,39.6,25.4,39.8L25.4,39.8z M25.4,39.8"/>
	<path class="st0" d="M18.9,19h1.6v-1.7h-1.6v-1.7h1.6v-1.7h-1.6v-1.7h1.6v-1.7h-1.6V9.1h1.6V7.4h-1.6V5.8h-1.6v1.7h-1.6v1.7h1.6
		v1.7h-1.6v1.7h1.6v1.7h-1.6v1.7h1.6v1.7h-1.6V19h1.6v1.7H14v4.1c0,2.3,1.8,4.1,4.1,4.1c2.3,0,4.1-1.9,4.1-4.1v-4.1h-3.3V19z
		 M20.6,24.8c0,1.4-1.1,2.5-2.5,2.5s-2.5-1.1-2.5-2.5v-2.5h4.9V24.8z M20.6,24.8"/>
	<path class="st0" d="M17.3,25.7h1.6c0.5,0,0.8-0.4,0.8-0.8c0-0.5-0.4-0.8-0.8-0.8h-1.6c-0.5,0-0.8,0.4-0.8,0.8
		C16.4,25.3,16.8,25.7,17.3,25.7L17.3,25.7z M17.3,25.7"/>
</g>
</svg>
