<?xml version="1.0" encoding="utf-8"?>
<!-- Generator: Adobe Illustrator 19.2.1, SVG Export Plug-In . SVG Version: 6.00 Build 0)  -->
<svg version="1.1" id="Layer_1" xmlns="http://www.w3.org/2000/svg" xmlns:xlink="http://www.w3.org/1999/xlink" x="0px" y="0px"
	 viewBox="0 0 24 24" style="enable-background:new 0 0 24 24;" xml:space="preserve">
<style type="text/css">
	.st0{fill:#919799;}
</style>
<path class="st0" d="M23.7,11.3L18,7.2c-0.5-0.3-1.1,0-1.1,0.6v2.1h-1.4V2.1C15.4,1,14.5,0,13.3,0H2.1C1,0,0,1,0,2.1v16
	c0,0.7,0.3,1.3,0.9,1.7l5.6,3.7c1.4,0.9,3.3-0.1,3.3-1.7V21h3.5c1.2,0,2.1-0.9,2.1-2.1V14h1.4v2.1c0,0.6,0.7,0.9,1.1,0.6l5.7-4.2
	C24,12.2,24,11.6,23.7,11.3L23.7,11.3z M7.4,22.4l-5.6-3.7c-0.2-0.1-0.3-0.3-0.3-0.6v-16c0-0.1,0-0.2,0-0.2l6.5,3.2
	c0.2,0.1,0.5,0.3,0.5,0.7v16.1C8.4,22.4,7.8,22.7,7.4,22.4L7.4,22.4z M14,18.9c0,0.4-0.3,0.7-0.7,0.7H9.8V5.7c0-0.8-0.5-1.5-1.3-1.9
	L3.7,1.4h9.6c0.4,0,0.7,0.3,0.7,0.7v7.7h-2.1c-0.4,0-0.7,0.3-0.7,0.7v2.8c0,0.4,0.3,0.7,0.7,0.7H14V18.9z M18.2,14.7v-1.4
	c0-0.4-0.3-0.7-0.7-0.7h-4.9v-1.4h4.9c0.4,0,0.7-0.3,0.7-0.7V9.1l3.8,2.8L18.2,14.7z M18.2,14.7"/>
<path class="st0" d="M6.3,9.8c-0.4,0-0.7,0.3-0.7,0.7v2.8C5.6,13.7,6,14,6.3,14C6.7,14,7,13.7,7,13.3v-2.8C7,10.1,6.7,9.8,6.3,9.8
	L6.3,9.8z M6.3,9.8"/>
</svg>
