<?xml version="1.0" encoding="utf-8"?>
<!-- Generator: Adobe Illustrator 19.2.1, SVG Export Plug-In . SVG Version: 6.00 Build 0)  -->
<svg version="1.1" id="Layer_1" xmlns="http://www.w3.org/2000/svg" xmlns:xlink="http://www.w3.org/1999/xlink" x="0px" y="0px"
	 viewBox="0 0 35.9 35.9" style="enable-background:new 0 0 35.9 35.9;" xml:space="preserve">
<style type="text/css">
	.st0{fill:#C2C9CC;}
</style>
<path class="st0" d="M8.9,2.6c-0.2,0-0.4,0.1-0.5,0.2c0,0,0,0-0.1,0l0,0c0,0,0,0,0,0l0,0c0,0,0,0,0,0h0c0,0,0,0,0,0h0c0,0,0,0,0,0h0
	c0,0,0,0,0,0h0c0,0,0,0,0,0h0c0,0,0,0,0,0h0c0,0,0,0,0,0h0c0,0,0,0,0,0h0c0,0,0,0,0,0h0c0,0,0,0,0,0h0c0,0,0,0,0,0l0,0c0,0,0,0,0,0
	h0c0,0,0,0,0,0h0c0,0,0,0,0,0l0,0c0,0,0,0,0,0l0,0c-1.3,0.8-2.5,1.8-3.5,3c-0.4,0.4-0.4,1,0.1,1.4c0.2,0.2,0.4,0.3,0.7,0.3
	c0.3,0,0.6-0.1,0.7-0.3c1-1.1,2.1-2.1,3.4-2.8C9.9,4.1,10.1,3.5,9.8,3C9.6,2.7,9.3,2.5,8.9,2.6L8.9,2.6L8.9,2.6z"/>
<path class="st0" d="M2.7,9.5c-0.4,0-0.7,0.2-0.9,0.6c-0.6,1.1-1,2.3-1.3,3.6l0,0v0l0,0c0,0,0,0,0,0l0,0c0,0,0,0,0,0l0,0
	c0,0,0,0,0,0l0,0c0,0,0,0,0,0l0,0v0v0l0,0c0,0,0,0,0,0l0,0c0,0,0,0,0,0l0,0c0,0,0,0,0,0l0,0c0,0,0,0,0,0l0,0c0,0,0,0,0,0l0,0
	c0,0,0,0,0,0l0,0c0,0,0,0,0,0l0,0v0l0,0c0,0,0,0,0,0l0,0c0,0,0,0,0,0l0,0c0,0,0,0,0,0l0,0c0,0,0,0,0,0l0,0c0,0,0,0,0,0l0,0
	c0,0,0,0,0,0l0,0c0,0,0,0,0,0l0,0c0,0,0,0,0,0l0,0c0,0,0,0,0,0l0,0c0,0,0,0,0,0c0,0,0,0,0,0l0,0v0c0,0,0,0,0,0l0,0c0,0,0,0,0,0l0,0
	c0,0,0,0,0,0v0l0,0c0,0,0,0,0,0l0,0c0,0,0,0,0,0l0,0c0,0,0,0,0,0l0,0c0,0,0,0,0,0l0,0c0,0,0,0,0,0l0,0v0l0,0c0,0,0,0,0,0l0,0v0l0,0
	c0,0,0,0,0,0l0,0c0,0,0,0,0,0l0,0v0l0,0v0l0,0c0,0,0,0,0,0l0,0c0,0,0,0,0,0l0,0c0,0,0,0,0,0l0,0c0,0,0,0,0,0l0,0c0,0,0,0,0,0l0,0
	c0,0,0,0,0,0l0,0v0l0,0v0l0,0c0,0,0,0,0,0l0,0v0l0,0c0,0,0,0,0,0l0,0v0l0,0c0,0,0,0,0,0l0,0c0,0,0,0,0,0l0,0c0,0,0,0,0,0
	c0,0,0,0,0,0l0,0c0,0,0,0,0,0l0,0v0l0,0v0l0,0c0,0,0,0,0,0l0,0c0,0,0,0,0,0l0,0c0,0,0,0,0,0l0,0c0,0,0,0,0,0l0,0c0,0,0,0,0,0l0,0v0
	l0,0c0,0,0,0,0,0l0,0v0l0,0v0l0,0v0l0,0v0l0,0c0,0,0,0,0,0l0,0c0,0,0,0,0,0l0,0c0,0,0,0,0,0l0,0c0,0,0,0,0,0l0,0c0,0,0,0,0,0l0,0
	c0,0,0,0,0,0c0,0,0,0,0,0l0,0c0,0,0,0,0,0c0,0,0,0,0,0l0,0v0l0,0c0,0,0,0,0,0l0,0c0,0,0,0,0,0l0,0v0l0,0c0,0,0,0,0,0l0,0
	c0,0,0,0,0,0l0,0v0l0,0c0,0,0,0,0,0l0,0v0l0,0c0,0,0,0,0,0l0,0c0,0,0,0,0,0v0l0,0v0c0,0,0,0,0,0l0,0c0,0,0,0,0,0l0,0c0,0,0,0,0,0
	s0,0,0,0l0,0v0c0,0,0,0,0,0l0,0v0c0,0,0,0,0,0l0,0c0,0,0,0,0,0l0,0v0l0,0c0,0,0,0,0,0l0,0c0,0,0,0,0,0l0,0c-0.1,0.5,0.3,1.1,0.8,1.2
	c0.1,0,0.1,0,0.2,0c0.5,0,0.9-0.3,1-0.8c0.3-1.5,0.7-2.9,1.4-4.2c0.2-0.5,0-1.1-0.5-1.3C3.2,9.5,3.1,9.5,2.9,9.5l0,0L2.7,9.5z"/>
<path class="st0" d="M1,18.6H0.9c-0.5,0.1-1,0.5-0.9,1.1c0,0.5,0.1,1,0.2,1.5l0,0c0,0.1,0,0.1,0,0.2l0,0c0,0,0,0,0,0l0,0
	c0,0,0,0,0,0l0,0c0,0,0,0,0,0l0,0c0,0,0,0,0,0l0,0c0,0,0,0,0,0l0,0c0,0,0,0,0,0l0,0c0,0,0,0,0,0l0,0c0,0,0,0,0,0v0c0,0,0,0,0,0l0,0
	c0,0,0,0,0,0l0,0c0,0,0,0,0,0l0,0c0,0,0,0,0,0l0,0c0,0,0,0,0,0l0,0v0l0,0v0l0,0c0,0,0,0,0,0l0,0c0,0,0,0,0,0l0,0c0,0,0,0,0,0l0,0
	c0,0,0,0,0,0l0,0v0l0,0c0,0,0,0,0,0l0,0c0,0,0,0,0,0v0c0,0,0,0,0,0v0l0,0c0,0,0,0,0,0l0,0c0,0,0,0,0,0l0,0v0l0,0v0l0,0c0,0,0,0,0,0
	l0,0c0,0,0,0,0,0l0,0c0,0,0,0,0,0l0,0c0,0,0,0,0,0l0,0c0,0,0,0,0,0l0,0c0,0,0,0,0,0c0,0,0,0,0,0v0l0,0c0,0,0,0,0,0l0,0c0,0,0,0,0,0
	l0,0c0,0,0,0,0,0l0,0c0,0,0,0,0,0l0,0c0,0,0,0,0,0l0,0c0,0,0,0,0,0l0,0c0,0,0,0,0,0l0,0v0l0,0v0l0,0v0l0,0c0,0,0,0,0,0l0,0
	c0,0,0,0,0,0l0,0c0,0,0,0,0,0l0,0c0,0,0,0,0,0l0,0c0,0,0,0,0,0v0l0,0c0,0,0,0,0,0c0,0,0,0,0,0l0,0v0v0l0,0c0,0,0,0,0,0l0,0
	c0,0,0,0,0,0l0,0c0,0,0,0,0,0l0,0c0,0,0,0,0,0l0,0v0l0,0v0l0,0c0,0,0,0,0,0l0,0c0,0,0,0,0,0l0,0v0c0,0,0,0,0,0l0,0v0v0c0,0,0,0,0,0
	l0,0c0,0,0,0,0,0v0l0,0c0,0,0,0,0,0l0,0c0,0,0,0,0,0l0,0c0,0,0,0,0,0l0,0c0,0,0,0,0,0l0,0c0,0,0,0,0,0l0,0v0l0,0c0,0,0,0,0,0l0,0
	c0,0,0,0,0,0l0,0v0l0,0c0,0,0,0,0,0c0,0,0,0,0,0l0,0c0,0,0,0,0,0l0,0c0,0,0,0,0,0l0,0c0,0,0,0,0,0l0,0c0,0,0,0,0,0v0l0,0
	c0,0,0,0,0,0c0,0,0,0,0,0l0,0v0l0,0c0,0,0,0,0,0l0,0v0l0,0c0,0,0,0,0,0l0,0c0,0,0,0,0,0l0,0c0,0,0,0,0,0l0,0c0,0,0,0,0,0l0,0
	c0,0,0,0,0,0l0,0c0,0,0,0,0,0l0,0c0,0,0,0,0,0l0,0c0,0,0,0,0,0c0,0,0,0,0,0l0,0c0,0,0,0,0,0l0,0c0,0,0,0,0,0l0,0c0,0,0,0,0,0l0,0v0
	l0,0c0,0,0,0,0,0l0,0c0,0,0,0,0,0l0,0c0,0,0,0,0,0l0,0c0,0,0,0,0,0l0,0v0l0,0c0,0,0,0,0,0l0,0c0,0,0,0,0,0l0,0c0,0,0,0,0,0l0,0
	c0,0,0,0,0,0l0,0v0c0,0,0,0,0,0l0,0c0,0,0,0,0,0l0,0c0,0,0,0,0,0l0,0c0,0,0,0,0,0l0,0c0,0,0,0,0,0l0,0c0,0,0,0,0,0l0,0v0l0,0v0l0,0
	c0,0,0,0,0,0l0,0c0,0,0,0,0,0l0,0c0,0,0,0,0,0l0,0v0c0,0,0,0,0,0l0,0v0c0,0,0,0,0,0l0,0v0l0,0c0,0,0,0,0,0l0,0v0l0,0c0,0,0,0,0,0
	l0,0c0,0,0,0,0,0l0,0v0l0,0v0l0,0v0l0,0c0,0,0,0,0,0l0,0c0,0,0,0,0,0l0,0c0,0,0,0,0,0l0,0c0,0,0,0,0,0l0,0c0,0,0,0,0,0l0,0v0l0,0
	c0,0,0,0,0,0l0,0c0,0,0,0,0,0l0,0c0,0,0,0,0,0l0,0v0l0,0c0,0,0,0,0,0l0,0c0,0,0,0,0,0l0,0c0,0,0,0,0,0l0,0c0,0,0,0,0,0l0,0
	c0,0,0,0,0,0l0,0c0,0,0,0,0,0l0,0c0,0,0,0,0,0l0,0c0,0,0,0,0,0l0,0c0,0,0,0,0,0l0,0c0,0,0,0,0,0l0,0c0,0,0,0,0,0v0l0,0c0,0,0,0,0,0
	l0,0c0,0,0,0,0,0l0,0c0,0,0,0.1,0,0.1l0,0c0,0,0,0,0,0.1l0,0c0.1,0.4,0.2,0.7,0.4,1.1c0.2,0.4,0.5,0.6,0.9,0.6c0.1,0,0.2,0,0.4-0.1
	c0.5-0.2,0.8-0.8,0.6-1.3c-0.5-1.4-0.9-2.8-1-4.3c0-0.5-0.5-0.9-1-0.9l0,0L1,18.6z"/>
<path class="st0" d="M4.4,27.3c-0.6,0-1,0.5-1,1c0,0.2,0.1,0.4,0.2,0.6c0.2,0.2,0.4,0.5,0.6,0.7l0,0l0,0l0,0c0,0,0,0,0,0l0,0
	c0,0,0,0,0,0l0,0v0l0,0c0,0,0,0,0,0h0c0,0,0,0,0,0l0,0v0h0c0,0,0,0,0,0l0,0c0,0,0,0,0,0h0c0,0,0,0,0,0l0,0c0,0,0,0,0,0l0,0
	c0,0,0,0,0,0h0c0,0,0,0,0,0l0,0c0,0,0,0,0,0l0,0c0,0,0,0,0,0h0c0,0,0,0,0,0l0,0c0,0,0,0,0,0l0,0c0,0,0,0,0,0l0,0c0,0,0,0,0,0l0,0
	c0,0,0,0,0,0l0,0c0,0,0,0,0,0h0c0.5,0.6,1,1.1,1.6,1.6l0,0c0,0,0,0,0,0l0,0c0,0,0,0,0,0l0,0c0,0,0,0,0,0v0h0c0,0,0,0,0,0h0
	c0,0,0,0,0,0h0c0,0,0,0,0,0l0,0c0,0,0,0,0,0h0c0,0,0,0,0,0l0,0c0,0,0,0,0,0h0c0,0,0,0,0,0h0c0,0,0,0,0,0l0,0c0,0,0,0,0,0h0
	c0,0,0,0,0,0l0,0c0,0,0,0,0,0h0c0,0,0,0,0,0h0c0,0,0,0,0,0h0c0,0,0,0,0,0h0c0,0,0,0,0,0h0v0h0v0h0c0,0,0,0,0,0h0c0,0,0,0,0,0h0
	c0,0,0,0,0,0h0.1c0,0,0,0,0,0l0,0c0,0,0,0,0,0l0,0c0,0,0,0,0,0l0,0c0,0,0,0,0,0l0,0c0,0,0.1,0.1,0.1,0.1l0,0
	c0.2,0.2,0.4,0.4,0.7,0.5c0.2,0.1,0.4,0.2,0.6,0.2c0.6,0,1-0.4,1-1c0-0.3-0.1-0.6-0.4-0.8c-1.2-0.9-2.2-1.9-3.1-3.1
	C5,27.4,4.7,27.3,4.4,27.3L4.4,27.3L4.4,27.3z"/>
<path class="st0" d="M11.9,32.9c-0.6,0-1,0.5-1,1c0,0.4,0.3,0.8,0.6,0.9c1.4,0.5,3,0.9,4.5,1.1h0.1c0,0,0,0,0,0h0.1c0,0,0,0,0,0h0.1
	c0,0,0,0,0,0h0.1c0,0,0.1,0,0.1,0c0.6,0,1-0.4,1-1c0-0.6-0.4-1-1-1c-1.5-0.1-2.9-0.5-4.3-1C12.1,32.9,12,32.9,11.9,32.9L11.9,32.9
	L11.9,32.9z"/>
<path class="st0" d="M25.6,32.2c-0.2,0-0.3,0-0.5,0.1c-1.3,0.7-2.7,1.2-4.2,1.4c-0.5,0.1-0.9,0.6-0.8,1.2c0.1,0.5,0.5,0.8,1,0.8
	c0.1,0,0.1,0,0.2,0c1.5-0.3,2.9-0.8,4.3-1.4l0,0c0,0,0,0,0,0l0,0c0,0,0,0,0,0h0c0,0,0,0,0,0l0,0c0,0,0,0,0,0h0c0,0,0,0,0,0h0
	c0,0,0,0,0,0h0c0,0,0,0,0,0h0c0,0,0,0,0,0h0v0h0c0,0,0,0,0,0h0c0,0,0,0,0,0h0c0,0,0,0,0,0h0c0,0,0,0,0,0h0c0,0,0,0,0,0h0l0.1-0.1
	c0.5-0.3,0.7-0.9,0.4-1.3C26.3,32.4,26,32.2,25.6,32.2L25.6,32.2L25.6,32.2z"/>
<path class="st0" d="M32.4,25.8c-0.3,0-0.7,0.2-0.9,0.5c-0.8,1.3-1.7,2.4-2.8,3.4c-0.4,0.4-0.4,1-0.1,1.4c0.2,0.2,0.5,0.3,0.7,0.3
	c0.3,0,0.5-0.1,0.7-0.3c1-1,1.9-2,2.7-3.2l0,0c0,0,0,0,0,0l0,0c0,0,0,0,0,0h0c0,0,0,0,0,0l0,0c0,0,0,0,0,0l0,0c0,0,0,0,0,0l0,0
	c0,0,0,0,0,0h0v0l0,0c0,0,0,0,0,0l0,0v0l0,0c0,0,0,0,0,0l0,0c0,0,0,0,0,0h0c0,0,0,0,0,0l0,0c0,0,0,0,0,0l0,0v0l0,0c0,0,0,0,0,0h0v0
	l0,0c0,0,0,0,0,0l0,0v0l0,0c0,0,0,0,0,0l0,0c0,0,0,0,0,0l0,0c0,0,0,0,0,0h0c0,0,0,0,0,0l0,0v0l0,0c0,0,0,0,0,0l0,0c0,0,0,0,0,0l0,0
	c0,0,0,0,0,0l0,0c0,0,0,0,0,0l0,0c0,0,0,0,0,0l0,0c0,0,0,0,0,0l0,0v0l0,0c0,0,0,0,0,0l0,0v0c0,0,0,0,0,0l0,0c0,0,0,0,0,0l0,0
	c0.1-0.1,0.1-0.2,0.2-0.3c0.3-0.5,0.1-1.1-0.3-1.4c-0.2-0.1-0.3-0.1-0.5-0.1l0,0L32.4,25.8z"/>
<path class="st0" d="M34.9,16.8L34.9,16.8c-0.6,0-1,0.5-1,1V18c0,1.4-0.2,2.9-0.6,4.3c-0.1,0.5,0.2,1.1,0.7,1.2c0,0,0,0,0,0
	c0.1,0,0.2,0,0.3,0c0.4,0,0.8-0.3,1-0.7c0.1-0.3,0.1-0.5,0.2-0.8l0,0c0,0,0,0,0,0l0,0c0,0,0,0,0,0l0,0v0l0,0c0,0,0,0,0,0l0,0l0,0
	l0,0c0,0,0,0,0,0l0,0c0,0,0,0,0,0l0,0c0,0,0,0,0,0l0,0c0,0,0,0,0,0l0,0c0,0,0,0,0,0l0,0v0l0,0c0,0,0,0,0,0l0,0c0,0,0,0,0,0l0,0
	c0,0,0,0,0,0l0,0v0l0,0c0,0,0,0,0,0l0,0c0,0,0,0,0,0l0,0c0,0,0,0,0,0l0,0v0l0,0v0l0,0v0l0,0c0,0,0,0,0,0l0,0v0c0,0,0,0,0,0l0,0
	c0,0,0,0,0,0l0,0c0,0,0,0,0,0l0,0c0,0,0,0,0,0l0,0c0,0,0,0,0,0v0l0,0v0l0,0v0l0,0v0l0,0c0,0,0,0,0,0l0,0c0,0,0,0,0,0l0,0
	c0,0,0,0,0,0l0,0v0l0,0v0l0,0c0,0,0,0,0,0l0,0c0,0,0,0,0,0l0,0c0,0,0,0,0,0l0,0v0l0,0v0l0,0v0l0,0c0,0,0,0,0,0l0,0c0,0,0,0,0,0l0,0
	c0,0,0,0,0,0l0,0v0l0,0c0,0,0,0,0,0l0,0c0,0,0,0,0,0l0,0c0,0,0,0,0,0l0,0v0l0,0c0,0,0,0,0,0l0,0c0,0,0,0,0,0l0,0c0,0,0,0,0,0l0,0v0
	v0v0l0,0c0,0,0,0,0,0l0,0c0,0,0,0,0,0l0,0c0,0,0,0,0,0l0,0c0,0,0,0,0,0l0,0c0,0,0,0,0,0l0,0c0,0,0,0,0,0l0,0c0,0,0,0,0,0l0,0
	c0,0,0,0,0,0l0,0c0,0,0,0,0,0l0,0c0,0,0,0,0,0l0,0c0,0,0,0,0,0l0,0c0,0,0,0,0,0l0,0c0,0,0,0,0,0l0,0c0,0,0,0,0,0l0,0c0,0,0,0,0,0
	l0,0c0,0,0,0,0,0l0,0v0l0,0c0,0,0,0,0,0l0,0v0l0,0c0,0,0,0,0,0l0,0c0,0,0,0,0,0l0,0c0,0,0,0,0,0v0c0,0,0,0,0-0.1l0,0c0,0,0,0,0,0
	l0,0c0,0,0,0,0,0l0,0c0,0,0,0,0-0.1l0,0c0,0,0,0,0-0.1l0,0c0,0,0-0.1,0-0.1l0,0c0,0,0,0,0-0.1l0,0c0,0,0,0,0,0l0,0c0,0,0,0,0,0l0,0
	c0,0,0,0,0-0.1l0,0c0,0,0,0,0-0.1l0,0v0l0,0c0,0,0,0,0,0l0,0c0,0,0,0,0,0l0,0l0-0.1l0,0c0,0,0-0.1,0-0.1l0,0v0l0,0v0l0,0
	c0,0,0,0,0-0.1l0,0c0,0,0-0.1,0-0.1l0,0v0l0,0c0,0,0,0,0,0l0,0c0,0,0,0,0,0l0,0v0l0,0c0,0,0,0,0,0l0,0l0-0.1l0,0c0,0,0,0,0,0l0,0v0
	l0,0c0,0,0,0,0,0l0,0c0,0,0,0,0,0l0,0v0l0,0c0,0,0,0,0,0l0,0c0,0,0,0,0,0l0,0c0,0,0,0,0,0l0,0v0l0,0c0,0,0,0,0,0l0,0c0,0,0,0,0,0
	l0,0c0,0,0,0,0,0l0,0v0l0,0c0,0,0,0,0,0l0,0c0,0,0,0,0,0l0,0c0,0,0,0,0,0l0,0v0l0,0c0,0,0,0,0,0l0,0c0,0,0,0,0,0l0,0v0l0,0v0l0,0
	c0,0,0,0,0,0l0,0v0l0,0c0,0,0,0,0,0v0l0,0v0c0,0,0,0,0,0l0,0v0l0,0c0,0,0,0,0,0l0,0c0,0,0,0,0,0l0,0c0,0,0,0,0,0l0,0v0l0,0v0l0,0v0
	l0,0v0l0,0v0l0,0c0,0,0,0,0,0l0,0v0l0,0v0l0,0v0l0,0v0l0,0c0,0,0,0,0,0l0,0v0l0,0c0,0,0,0,0,0l0,0c0,0,0,0,0,0l0,0c0,0,0,0,0,0l0,0
	v0l0,0c0,0,0,0,0,0l0,0v0l0,0v0l0,0c0,0,0,0,0,0l0,0v0l0,0v0l0,0v0l0,0v0l0,0v0l0,0v0l0,0v0l0,0v0l0,0v0l0,0v0l0,0c0,0,0,0,0,0l0,0
	v0l0,0c0,0,0,0,0,0l0,0v0l0,0v0l0,0c0,0,0,0,0,0l0,0v0l0,0c0,0,0,0,0,0l0,0v0l0,0v0l0,0v0l0,0v0l0,0v0l0,0v0l0,0v0l0,0c0,0,0,0,0,0
	l0,0v0l0,0v0l0,0v0l0,0v0l0,0v0l0,0v0l0,0v0l0,0v0l0,0v0l0,0c0,0,0,0,0,0l0,0v0l0,0v0l0,0c0,0,0,0,0,0l0,0v0l0,0v0l0,0v0l0,0v0l0,0
	v0l0,0v0l0,0v0l0,0c0,0,0,0,0,0l0,0v0l0,0v0l0,0v0c0,0,0,0,0,0l0,0v0l0,0v0l0,0v0l0,0v0l0,0v0l0,0v0l0,0v0l0,0v0l0,0v0l0,0v0l0,0v0
	l0,0v0l0,0v0l0,0v0l0,0v0l0,0v0l0,0v0l0,0v0l0,0v0l0,0v0l0,0v0l0,0c0,0,0,0,0,0l0,0v0l0,0v0l0,0v0l0,0v0l0,0v0l0,0v0l0,0v0l0,0
	c0,0,0,0,0,0v0l0,0v0l0,0v0l0,0v0l0,0v0l0,0v0l0,0v0l0,0v0l0,0v0l0,0v0l0,0v0l0,0v0l0,0v0l0,0c0,0,0-0.1,0-0.1c0-0.5-0.5-1-1-1l0,0
	L34.9,16.8z"/>
<path class="st0" d="M32.3,7.9c-0.2,0-0.4,0.1-0.5,0.2c-0.5,0.3-0.6,0.9-0.3,1.4c0.8,1.3,1.4,2.6,1.8,4c0.1,0.4,0.5,0.7,1,0.7
	c0.1,0,0.2,0,0.3-0.1c0.5-0.2,0.8-0.7,0.7-1.2c-0.1-0.3-0.2-0.6-0.3-0.9l0,0c0,0,0,0,0,0l0,0c0,0,0,0,0,0l0,0c0,0,0,0,0,0l0,0
	c0,0,0,0,0,0l0,0v0c0,0,0,0,0,0c0,0,0,0,0,0l0,0c0,0,0,0,0,0c0,0,0,0,0,0l0,0c0,0,0,0,0,0l0,0c0,0,0,0,0,0l0,0c0,0,0,0,0,0l0,0v0
	l0,0c0,0,0,0,0,0l0,0v0l0,0c0,0,0,0,0,0l0,0v0l0,0v0l0,0v0l0,0v0l0,0v0l0,0c0,0,0,0,0,0l0,0c0,0,0,0,0,0l0,0v0l0,0v0l0,0v0l0,0
	c0,0,0,0,0,0l0,0c0,0,0,0,0,0l0,0c0,0,0,0,0,0l0,0v0l0,0c0,0,0,0,0,0l0,0v0l0,0c0,0,0,0,0,0l0,0c0,0,0,0,0,0l0,0c0,0,0,0,0,0l0,0
	c0,0,0,0,0,0l0,0c0,0,0,0,0,0l0,0c0,0,0,0,0,0l0,0c0,0,0,0,0,0l0,0c-0.4-1.1-1-2.2-1.6-3.2c-0.2-0.3-0.5-0.5-0.8-0.5l0,0L32.3,7.9z"
	/>
<path class="st0" d="M25.3,1.7c-0.6,0-1,0.4-1,1c0,0.4,0.2,0.7,0.6,0.9c1.3,0.7,2.6,1.5,3.7,2.5C29,6.4,29.6,6.4,30,5.9
	c0.3-0.4,0.3-1-0.1-1.4c-0.6-0.5-1.2-1-1.9-1.5l0,0c0,0,0,0,0,0l0,0c0,0,0,0,0,0c0,0,0,0,0,0l0,0c0,0,0,0,0,0h0c0,0,0,0,0,0l0,0
	c0,0,0,0,0,0l0,0c0,0,0,0,0,0h0c0,0,0,0,0,0h0v0h0c0,0,0,0,0,0h0c0,0,0,0,0,0h0c0,0,0,0,0,0h0c0,0,0,0,0,0h0c0,0,0,0,0,0h0
	c0,0,0,0,0,0h0c0,0,0,0,0,0h0c0,0,0,0,0,0h0c0,0,0,0,0,0h0c0,0,0,0,0,0h0c0,0,0,0,0,0h0c0,0,0,0,0,0h0c0,0,0,0,0,0h0v0h0
	c0,0,0,0,0,0h0c0,0,0,0,0,0h0c0,0,0,0,0,0h0c0,0,0,0,0,0h0c0,0,0,0,0,0h0c0,0,0,0,0,0h0c0,0,0,0,0,0l0,0c0,0,0,0,0,0l0,0l0,0l0,0
	c0,0,0,0,0,0l0,0c-0.5-0.3-1.1-0.6-1.6-0.9C25.6,1.7,25.5,1.7,25.3,1.7L25.3,1.7L25.3,1.7z"/>
<path class="st0" d="M17.9,0h-0.4c0,0,0,0,0,0h-0.3c0,0,0,0,0,0h0c-1.2,0.1-2.4,0.2-3.5,0.5l0,0c0,0,0,0,0,0l0,0c0,0,0,0,0,0l0,0
	c0,0,0,0,0,0h0c0,0,0,0,0,0h0c0,0,0,0,0,0h0c0,0,0,0,0,0h0c0,0,0,0,0,0h0c0,0,0,0,0,0h0c0,0,0,0,0,0h0c0,0,0,0,0,0h0c0,0,0,0,0,0
	l0,0c0,0,0,0-0.1,0l0,0c0,0-0.1,0-0.1,0c-0.5,0.2-0.8,0.7-0.7,1.2c0.1,0.4,0.5,0.7,1,0.7c0.1,0,0.2,0,0.3,0C14.9,2.2,16.4,2,17.9,2
	l0,0c0.9,0,1.8,0.1,2.8,0.2c0.5,0.1,1-0.3,1.2-0.8c0.1-0.5-0.3-1.1-0.8-1.2c0,0-0.1,0-0.1,0h0c0,0,0,0,0,0h-0.1v0h-0.1c0,0,0,0,0,0
	h-0.1c0,0,0,0,0,0h-0.1c0,0,0,0,0,0h0c0,0,0,0,0,0h0C19.9,0.1,19.3,0,18.7,0h-0.1c0,0,0,0,0,0v0h-0.3c0,0,0,0,0,0c0,0,0,0,0,0
	L17.9,0L17.9,0z"/>
<path class="st0" d="M22.9,17h-4v-4c0-0.6-0.4-1-1-1c-0.6,0-1,0.4-1,1v4h-4c-0.6,0-1,0.4-1,1s0.4,1,1,1h4v4c0,0.6,0.4,1,1,1
	c0.6,0,1-0.4,1-1v-4h4c0.6,0,1-0.4,1-1S23.5,17,22.9,17z"/>
</svg>
