<svg xmlns="http://www.w3.org/2000/svg" width="18" height="18" viewBox="0 0 18 18">
  <defs>
    <style>
      .cls-1 {
        fill: #3eb39f;
        fill-rule: evenodd;
      }
    </style>
  </defs>
  <path id="icon-question" class="cls-1" d="M1113,1142a9,9,0,1,1-9,9A9,9,0,0,1,1113,1142Zm-1.17,10.52h1.97a1.264,1.264,0,0,1,.22-0.76,5.451,5.451,0,0,1,.7-0.77q0.4-.39.66-0.69a2.707,2.707,0,0,0,.43-0.73,2.586,2.586,0,0,0,.18-1,2.24,2.24,0,0,0-.91-1.9,3.906,3.906,0,0,0-2.4-.68,4.65,4.65,0,0,0-2.21.49,3.644,3.644,0,0,0-1.48,1.38l1.58,0.98a2.293,2.293,0,0,1,.8-0.75,2.083,2.083,0,0,1,1.09-.28,1.627,1.627,0,0,1,1.02.3,0.966,0.966,0,0,1,.38.82,1.037,1.037,0,0,1-.2.64,4.928,4.928,0,0,1-.63.71,6.278,6.278,0,0,0-.89,1.04,2.12,2.12,0,0,0-.31,1.2h0Zm0.99,3.49a1.17,1.17,0,0,0,.89-0.37,1.237,1.237,0,0,0,.36-0.9,1.223,1.223,0,0,0-.35-0.88,1.19,1.19,0,0,0-.9-0.36,1.213,1.213,0,0,0-1.25,1.24,1.237,1.237,0,0,0,.36.9,1.17,1.17,0,0,0,.89.37h0Z" transform="translate(-1104 -1142)"/>
</svg>
