<svg xmlns="http://www.w3.org/2000/svg" width="24" height="17" viewBox="0 0 24 17">
  <defs>
    <style>
      .cls-1 {
        fill: #999;
        fill-rule: evenodd;
      }
    </style>
  </defs>
  <path id="icon-ar-left" class="cls-1" d="M398.243,3236.71a1,1,0,0,1-1.414,0l-7.072-7.04a1,1,0,0,1,1.415-1.41l7.071,7.04A1,1,0,0,1,398.243,3236.71Zm0-16.42a1,1,0,0,1,0,1.41l-7.071,7.04a1,1,0,0,1-1.415-1.41l7.072-7.04A1,1,0,0,1,398.243,3220.29ZM390,3227.5H412a1,1,0,0,1,1,1h0a1,1,0,0,1-1,1H390a1,1,0,0,1-1-1h0A1,1,0,0,1,390,3227.5Z" transform="translate(-389 -3220)"/>
</svg>
