<?xml version="1.0" encoding="utf-8"?>
<!-- Generator: Adobe Illustrator 19.2.1, SVG Export Plug-In . SVG Version: 6.00 Build 0)  -->
<svg version="1.1" id="Layer_1" xmlns="http://www.w3.org/2000/svg" xmlns:xlink="http://www.w3.org/1999/xlink" x="0px" y="0px"
	 viewBox="0 0 24 24" style="enable-background:new 0 0 24 24;" xml:space="preserve">
<style type="text/css">
	.st0{fill:#919799;}
</style>
<g>
	<path class="st0" d="M12,0C5.4,0,0,5.4,0,12c0,6.7,5.5,12,12,12c3.2,0,6.2-1.3,8.5-3.5c2.3-2.3,3.5-5.3,3.5-8.5C24,5.4,18.6,0,12,0
		L12,0z M18.3,20.5c-0.4,0.3-0.9,0.6-1.4,0.9v-2.3c0-0.4-0.3-0.7-0.7-0.7c-0.4,0-0.7,0.3-0.7,0.7V22c-1.1,0.4-2.3,0.6-3.5,0.6
		c-1.2,0-2.4-0.2-3.5-0.6v-2.9c0-0.4-0.3-0.7-0.7-0.7c-0.4,0-0.7,0.3-0.7,0.7v2.3c-0.5-0.3-1-0.6-1.4-0.9v-1.4c0-2,1.6-3.6,3.5-3.6
		h5.6c1.9,0,3.5,1.6,3.5,3.6V20.5z M8.5,10.6c0-1.9,1.6-3.5,3.5-3.5c1.9,0,3.5,1.5,3.5,3.4c-0.1,1.9-1.5,3.5-3.3,3.6
		C10.2,14.2,8.5,12.6,8.5,10.6L8.5,10.6z M19.7,19.2c0-2.9-2.1-4.8-4.4-5.1c0.1-0.1,0.2-0.2,0.3-0.3c0.8-0.9,1.3-2.2,1.3-3.5
		c0,0,0-0.1,0-0.1c-0.2-2.5-2.3-4.5-4.9-4.5c-2.7,0-4.9,2.2-4.9,4.9c0,1.4,0.5,2.6,1.5,3.6c-2.3,0.3-4.3,2.2-4.3,5.1
		c-1.8-1.9-2.9-4.4-2.9-7.2C1.4,6.2,6.2,1.4,12,1.4c5.8,0,10.6,4.8,10.6,10.6C22.6,14.8,21.5,17.3,19.7,19.2L19.7,19.2z M19.7,19.2"
		/>
</g>
</svg>
