<svg xmlns="http://www.w3.org/2000/svg" width="5" height="12" viewBox="0 0 5 12">
  <defs>
    <style>
      .cls-1 {
        fill: #0cb9f2;
        fill-rule: evenodd;
      }
    </style>
  </defs>
  <path id="icon-ar-sm-left-hover" class="cls-1" d="M504.866,1243.47l-3,5.12a1.011,1.011,0,0,1-1.366.36,0.98,0.98,0,0,1-.366-1.35l3-5.11a1.011,1.011,0,0,1,1.366-.36A0.971,0.971,0,0,1,504.866,1243.47Zm-3,3.94,3,5.12a0.971,0.971,0,0,1-.366,1.34,1.011,1.011,0,0,1-1.366-.36l-3-5.11a0.98,0.98,0,0,1,.366-1.35A1.011,1.011,0,0,1,501.866,1247.41Z" transform="translate(-500 -1242)"/>
</svg>
