<svg xmlns="http://www.w3.org/2000/svg" width="35.906" height="35.94" viewBox="0 0 35.906 35.94">
  <defs>
    <style>
      .cls-1 {
        fill: #212426;
        fill-rule: evenodd;
      }
    </style>
  </defs>
  <path id="icon-photo-add-change" class="cls-1" d="M533.034,1786.55a1.014,1.014,0,0,0-.527.15c-0.018.01-.036,0.03-0.054,0.04h0a0.016,0.016,0,0,0-.017.01h0c-0.006,0-.011.01-0.016,0.01h-0.008c0,0.01-.006.01-0.009,0.01H532.4c0,0.01-.006.01-0.009,0.01h-0.007s0,0,0,.01h-0.013c0,0.01,0,.01,0,0.01h-0.013c0,0.01,0,.01,0,0.01h-0.011c0,0.01,0,.01-0.006.01h-0.01c0,0.01,0,.01-0.007.01H532.3c0,0.01,0,.01-0.008.01h-0.007a0.034,0.034,0,0,0,0,.01h-0.009s0,0-.007.01h0a0.015,0.015,0,0,0-.016.01h-0.009s0,0.01-.007.01h-0.009a0.059,0.059,0,0,1-.033.02h0a0.015,0.015,0,0,1-.016.01h0a18.572,18.572,0,0,0-3.5,2.98,1,1,0,0,0,.739,1.68,0.988,0.988,0,0,0,.74-0.33,16.278,16.278,0,0,1,3.406-2.84,1,1,0,0,0-.529-1.85h0Zm-6.272,6.9a1.006,1.006,0,0,0-.9.56,17.974,17.974,0,0,0-1.317,3.56h0s0,0.01,0,.01h0c0,0.01,0,.01,0,0.02h0a0.146,0.146,0,0,0,0,.02h0c0,0.01,0,.02-0.007.03h0a0.052,0.052,0,0,0,0,.02h0a0.052,0.052,0,0,0,0,.02h0v0.01s0,0.01,0,.01h0a0.062,0.062,0,0,1,0,.02h0c0,0.01,0,.01,0,0.01h0c0,0.01,0,.01,0,0.01h0a0.017,0.017,0,0,1,0,.01h0a0.146,0.146,0,0,0,0,.02h0a0.036,0.036,0,0,0,0,.01h0a0.036,0.036,0,0,1,0,.01h0a0.036,0.036,0,0,1,0,.01h0a0.142,0.142,0,0,0,0,.02h0a0.036,0.036,0,0,1,0,.01h0s0,0,0,.01h0s0,0,0,.01h0s0,0,0,.01h0a0.017,0.017,0,0,0,0,.01h0s0,0,0,.01h0s0,0,0,.01h0a0.016,0.016,0,0,1,0,.01,0.017,0.017,0,0,0,0,.01h0v0.01a0.042,0.042,0,0,0,0,.01h0a0.016,0.016,0,0,1,0,.01h0c0,0.01,0,.01,0,0.01v0.01h0a0.017,0.017,0,0,1,0,.01h0a0.017,0.017,0,0,1,0,.01h0a0.016,0.016,0,0,1,0,.01h0c0,0.01,0,.01,0,0.01h0c0,0.01,0,.01,0,0.01h0c0,0.01,0,.01,0,0.01h0a0.036,0.036,0,0,0,0,.01h0v0.01h0a0.036,0.036,0,0,1,0,.01h0a0.034,0.034,0,0,0,0,.01h0s0,0.01,0,.01h0s0,0.01,0,.01h0a0.036,0.036,0,0,0,0,.01h0s0,0,0,.01h0a0.016,0.016,0,0,0,0,.01h0a0.016,0.016,0,0,0,0,.01h0a0.016,0.016,0,0,0,0,.01h0s0,0,0,.01h0v0.01h0v0.01h0c0,0.01,0,.01,0,0.01h0v0.01h0a0.016,0.016,0,0,1,0,.01h0v0.01h0v0.01h0a0.016,0.016,0,0,0,0,.01h0a0.016,0.016,0,0,1,0,.01s0,0,0,.01h0c0,0.01,0,.01,0,0.01h0v0.01h0v0.01h0c0,0.01,0,.01,0,0.01h0c0,0.01,0,.01,0,0.01h0c0,0.01,0,.01,0,0.01h0c0,0.01,0,.01,0,0.01h0s0,0.01,0,.01h0s0,0.01,0,.01h0a0.034,0.034,0,0,0,0,.01h0s0,0.01,0,.01h0s0,0.01,0,.01h0s0,0.01,0,.01h0s0,0,0,.01h0s0,0,0,.01h0s0,0,0,.01h0s0,0,0,.01h0s0,0,0,.01h0s0,0,0,.01h0a0.016,0.016,0,0,1,0,.01s0,0,0,.01h0c0,0.01,0,.01,0,0.01a0.016,0.016,0,0,0,0,.01h0v0.01h0c0,0.01,0,.01,0,0.01h0c0,0.01,0,.01,0,0.01h0v0.01h0c0,0.01,0,.01,0,0.01h0s0,0,0,.01h0s0,0.01,0,.01h0a0.034,0.034,0,0,0,0,.01h0v0.01h0a0.016,0.016,0,0,0,0,.01h0v0.01h0v0.01h0v0.01h0s0,0,0,.01h0s0,0,0,.01h0a0.016,0.016,0,0,1,0,.01,0.016,0.016,0,0,0,0,.01h0v0.01s0,0,0,.01h0v0.01s0,0,0,.01h0a0.016,0.016,0,0,1,0,.01h0v0.01h0c0,0.01,0,.01,0,0.01h0v0.01s0,0,0,.01h0a1,1,0,0,0,.8,1.16,1.139,1.139,0,0,0,.181.02,1,1,0,0,0,.983-0.82,15.886,15.886,0,0,1,1.4-4.2,1,1,0,0,0-.451-1.34,1.018,1.018,0,0,0-.444-0.11h0Zm-1.684,9.18h-0.1a1,1,0,0,0-.9,1.09q0.071,0.735.2,1.47h0c0.012,0.06.023,0.12,0.036,0.19h0a0.142,0.142,0,0,0,0,.02h0v0.01h0a0.062,0.062,0,0,1,0,.02h0a0.062,0.062,0,0,1,0,.02h0c0,0.01,0,.02,0,0.03h0a0.042,0.042,0,0,1,0,.02h0a0.042,0.042,0,0,0,0,.02h0a0.042,0.042,0,0,0,0,.02v0.01a0.052,0.052,0,0,1,0,.02h0a0.042,0.042,0,0,0,0,.02h0c0,0.01,0,.01,0,0.01h0c0,0.01,0,.01,0,0.02h0s0,0,0,.01h0a0.036,0.036,0,0,0,0,.01h0s0,0.01,0,.01h0c0,0.01,0,.01,0,0.02h0a0.142,0.142,0,0,1,0,.02h0s0,0,0,.01h0a0.036,0.036,0,0,1,0,.01h0v0.01h0a0.136,0.136,0,0,0,0,.02h0a0.062,0.062,0,0,0,0,.02v0.01a0.042,0.042,0,0,1,0,.01v0.01h0a0.123,0.123,0,0,0,0,.02h0c0,0.01,0,.01,0,0.01h0s0,0.01,0,.01h0v0.01h0a0.142,0.142,0,0,0,0,.02h0c0,0.01,0,.01,0,0.02h0s0,0,0,.01h0a0.062,0.062,0,0,1,0,.02h0a0.052,0.052,0,0,1,0,.02h0a0.016,0.016,0,0,0,0,.01,0.042,0.042,0,0,0,0,.01v0.01h0s0,0,0,.01h0a0.016,0.016,0,0,0,0,.01h0a0.123,0.123,0,0,0,0,.02h0a0.016,0.016,0,0,0,0,.01h0c0,0.01,0,.01,0,0.01h0c0,0.01,0,.01,0,0.01h0a0.142,0.142,0,0,1,0,.02h0v0.01h0s0,0.01,0,.01h0s0,0.01,0,.01h0a0.142,0.142,0,0,1,0,.02h0a0.016,0.016,0,0,0,0,.01,0.017,0.017,0,0,1,0,.01h0s0,0,0,.01h0a0.042,0.042,0,0,1,0,.01v0.01h0c0,0.01,0,.01,0,0.01a0.016,0.016,0,0,0,0,.01h0v0.01a0.042,0.042,0,0,0,0,.01h0c0,0.01,0,.01,0,0.01h0c0,0.01,0,.01,0,0.01h0a0.016,0.016,0,0,0,0,.01h0c0,0.01,0,.01,0,0.02h0v0.01h0s0,0.01,0,.01h0a0.034,0.034,0,0,0,0,.01h0c0,0.01,0,.01,0,0.02h0s0,0,0,.01h0s0,0,0,.01h0v0.01s0,0.01,0,.01a0.016,0.016,0,0,0,0,.01h0c0,0.01,0,.01,0,0.01a0.016,0.016,0,0,0,0,.01h0a0.042,0.042,0,0,0,0,.02h0a0.016,0.016,0,0,0,0,.01h0c0,0.01,0,.01,0,0.01h0a0.016,0.016,0,0,0,0,.01h0a0.034,0.034,0,0,0,0,.01h0s0,0.01,0,.01h0v0.01h0a0.036,0.036,0,0,0,0,.01h0v0.01h0a0.016,0.016,0,0,0,0,.01s0,0,0,.01h0c0,0.01,0,.01,0,0.01h0c0,0.01,0,.01,0,0.01h0a0.034,0.034,0,0,0,0,.01h0c0,0.01,0,.01,0,0.01v0.01h0c0,0.01,0,.01,0,0.01v0.01h0a0.016,0.016,0,0,0,0,.01h0a0.017,0.017,0,0,0,0,.01h0v0.01h0a0.036,0.036,0,0,1,0,.01h0a0.034,0.034,0,0,1,0,.01h0s0,0,0,.01h0s0,0,0,.01h0s0,0,0,.01h0s0,0,0,.01h0c0,0.01,0,.01,0,0.01h0c0,0.01,0,.01,0,0.01a0.016,0.016,0,0,0,0,.01h0s0,0,0,.01h0a0.034,0.034,0,0,1,0,.01h0c0,0.01,0,.01,0,0.01h0s0,0.01,0,.01h0a0.016,0.016,0,0,0,0,.01h0c0,0.01,0,.01,0,0.01h0a0.016,0.016,0,0,0,0,.01h0a0.016,0.016,0,0,1,0,.01h0s0,0.01,0,.01h0s0,0,0,.01h0a0.036,0.036,0,0,0,0,.01h0a0.016,0.016,0,0,1,0,.01h0a0.085,0.085,0,0,1,0,.02h0v0.01s0,0,0,.01h0a0.016,0.016,0,0,1,0,.01h0a0.042,0.042,0,0,0,0,.01h0c0,0.01,0,.01,0,0.01h0c0,0.01,0,.01,0,0.01h0a0.016,0.016,0,0,0,0,.01h0v0.01h0a0.038,0.038,0,0,0,0,.01h0s0,0.01,0,.01h0a0.017,0.017,0,0,1,0,.01h0a0.016,0.016,0,0,1,0,.01h0a0.034,0.034,0,0,1,0,.01s0,0,0,.01h0v0.01s0,0,0,.01h0v0.01h0c0,0.01,0,.01,0,0.01h0V1807h0c0,0.01,0,.01,0,0.01h0a0.016,0.016,0,0,0,0,.01h0v0.01h0s0,0.01,0,.01h0s0,0,0,.01h0a0.042,0.042,0,0,1,0,.01h0s0,0,0,.01h0c0,0.01,0,.01,0,0.02h0a0.085,0.085,0,0,0,0,.02h0c0,0.01,0,.01,0,0.01h0s0,0.01,0,.01h0a0.016,0.016,0,0,0,0,.01h0a0.146,0.146,0,0,1,0,.02h0a0.036,0.036,0,0,0,0,.01h0s0,0.01,0,.01h0s0,0,0,.01h0a0.052,0.052,0,0,1,0,.02h0a0.052,0.052,0,0,1,0,.02h0a0.052,0.052,0,0,0,0,.02h0a0.052,0.052,0,0,0,0,.02h0c0,0.01,0,.01,0,0.01h0a0.146,0.146,0,0,1,0,.02h0s0,0,0,.01h0s0,0,0,.01h0a0.017,0.017,0,0,1,0,.01h0s0,0.01.006,0.01v0.01h0a0.142,0.142,0,0,1,0,.02h0a0.045,0.045,0,0,0,.006.02h0c0.006,0.02.013,0.05,0.02,0.07h0c0.006,0.02.011,0.03,0.017,0.05h0c0.115,0.36.241,0.71,0.378,1.06a1,1,0,0,0,.93.63,0.943,0.943,0,0,0,.365-0.07,1,1,0,0,0,.566-1.29,15.91,15.91,0,0,1-1.026-4.31,0.993,0.993,0,0,0-.994-0.9h0Zm3.4,8.67a1.006,1.006,0,0,0-.8,1.61c0.184,0.24.373,0.47,0.569,0.71h0l0.03,0.03h0c0,0.01.009,0.01,0.013,0.02h0s0.008,0.01.012,0.01h0a0.042,0.042,0,0,0,0,.01h0s0,0,.006.01h0.007c0,0.01,0,.01.006,0.01h0s0,0.01,0,.01h0.007c0,0.01,0,.01,0,0.01h0s0,0,0,.01h0.007s0,0.01,0,.01h0c0,0.01,0,.01.006,0.01h0s0,0,0,.01h0.008c0,0.01,0,.01.006,0.01h0a0.047,0.047,0,0,0,0,.01h0s0,0,0,.01h0.008c0,0.01,0,.01.005,0.01h0a0.047,0.047,0,0,1,0,.01h0a0.147,0.147,0,0,0,.013.01h0c0,0.01.008,0.01,0.012,0.02h0a0.127,0.127,0,0,1,.012.01h0c0,0.01.008,0.01,0.012,0.02h0.007a17.93,17.93,0,0,0,1.62,1.63h0a0.013,0.013,0,0,1,.014.01h0s0.009,0.01.014,0.01h0a0.013,0.013,0,0,0,.014.01v0.01h0.007a0.061,0.061,0,0,0,.007.01h0.007a0.243,0.243,0,0,1,.014.02h0.008c0,0.01,0,.01.007,0.01h0s0,0,.006.01h0.009c0,0.01,0,.01.006,0.01h0s0,0,.007.01h0.008a0.061,0.061,0,0,1,.007.01h0.008c0,0.01,0,.01,0,0.01h0s0,0,.006.01h0.009c0,0.01,0,.01.006,0.01h0.006c0,0.01,0,.01,0,0.01h0.008c0,0.01,0,.01,0,0.01h0.007c0,0.01,0,.01,0,0.01h0.006a0.042,0.042,0,0,1,0,.01h0.008s0,0,0,.01h0.007s0,0.01,0,.01h0.009a0.036,0.036,0,0,1,0,.01h0.01c0,0.01,0,.01,0,0.01h0.008c0,0.01,0,.01,0,0.01h0.006s0,0.01.007,0.01H530.4a0.243,0.243,0,0,0,.014.02h0a0.17,0.17,0,0,1,.014.01h0s0.01,0.01.015,0.01h0c0.007,0.01.013,0.01,0.02,0.02h0c0.027,0.02.055,0.05,0.082,0.07h0c0.221,0.18.445,0.36,0.674,0.53a1.024,1.024,0,0,0,.6.2,1,1,0,0,0,.6-1.8,16.131,16.131,0,0,1-3.149-3.12,1,1,0,0,0-.8-0.4h0Zm7.468,5.59a1,1,0,0,0-.36,1.93,18.131,18.131,0,0,0,4.49,1.08h0.05a0.019,0.019,0,0,1,.02.01h0.1c0,0.01,0,.01,0,0.01h0.1a0.038,0.038,0,0,0,0,.01h0.1a0.256,0.256,0,0,0,.086.01,1,1,0,0,0,.085-2,16.315,16.315,0,0,1-4.317-.98,0.9,0.9,0,0,0-.356-0.07h0Zm13.741-.72a0.923,0.923,0,0,0-.452.11,15.913,15.913,0,0,1-4.187,1.43,1,1,0,0,0,.188,1.98,0.6,0.6,0,0,0,.187-0.02,18.02,18.02,0,0,0,4.315-1.41h0a0.017,0.017,0,0,1,.018-0.01h0c0.006,0,.011-0.01.018-0.01h0.007a0.015,0.015,0,0,1,.016-0.01h0s0,0,0-.01h0.018s0,0,0-.01h0.018a0.042,0.042,0,0,0,0-.01h0.018c0-.01,0-0.01,0-0.01h0.014s0,0,0-.01H549.9s0-.01,0-0.01h0.017s0-.01.006-0.01h0.012s0,0,.006-0.01h0.017s0,0,0-.01h0.017a0.07,0.07,0,0,0,.008-0.01H550s0.006,0,.008-0.01h0.018l0.112-.06a1,1,0,0,0-.454-1.89h0Zm6.845-6.34a1,1,0,0,0-.855.48,15.984,15.984,0,0,1-2.806,3.43,1,1,0,0,0-.055,1.41,0.986,0.986,0,0,0,1.414.06,18.354,18.354,0,0,0,2.733-3.2h0c0.009-.01.018-0.03,0.027-0.04h0a0.034,0.034,0,0,0,.011-0.02h0.006c0-.01,0-0.01,0-0.01h0c0-.01,0-0.01,0-0.01h0a0.047,0.047,0,0,1,0-.01h0s0,0,0-.01h0.006v-0.01h0c0-.01,0-0.01,0-0.01h0s0-.01,0-0.01h0s0,0,0-.01h0s0,0,0-.01h0.006c0-.01,0-0.01,0-0.01h0c0-.01,0-0.01,0-0.01h0s0-.01,0-0.01h0s0,0,0-.01h0.006s0-.01,0-0.01h0c0-.01,0-0.01,0-0.01h0s0-.01,0-0.01h0s0,0,0-.01h0s0,0,0-.01h0a0.016,0.016,0,0,0,0-.01h0.007c0-.01,0-0.01,0-0.01h0s0-.01,0-0.01h0s0,0,0-.01h0a0.042,0.042,0,0,0,0-.01h0s0,0,0-.01h0c0-.01,0-0.01,0-0.01h0a0.017,0.017,0,0,0,0-.01h0s0-.01,0-0.01h0s0-.01,0-0.01h0s0,0,.006-0.01h0a0.016,0.016,0,0,0,0-.01s0.007-.01.01-0.01h0c0-.01.007-0.01,0.011-0.02h0c0.057-.09.113-0.18,0.169-0.27a1.005,1.005,0,0,0-.854-1.52h0Zm2.474-8.99H559a1.011,1.011,0,0,0-1,1.01V1802a16.131,16.131,0,0,1-.569,4.25,1,1,0,0,0,.7,1.23,1.212,1.212,0,0,0,.266.03,1,1,0,0,0,.963-0.73q0.106-.39.195-0.78h0a0.016,0.016,0,0,1,0-.01h0c0-.01,0-0.01,0-0.02h0v-0.01h0a0.052,0.052,0,0,0,0-.02h0l0.006-.03h0a0.052,0.052,0,0,1,0-.02h0a0.016,0.016,0,0,1,0-.01h0a0.142,0.142,0,0,1,0-.02h0a0.016,0.016,0,0,0,0-.01h0c0-.01,0-0.01,0-0.02h0v-0.01h0c0-.01,0-0.01,0-0.01h0a0.016,0.016,0,0,1,0-.01h0a0.034,0.034,0,0,1,0-.01h0s0-.01,0-0.01h0a0.034,0.034,0,0,1,0-.01h0s0,0,0-.01h0a0.017,0.017,0,0,0,0-.01h0v-0.01h0a0.034,0.034,0,0,0,0-.01h0v-0.01h0s0,0,0-.01h0a0.016,0.016,0,0,1,0-.01h0a0.016,0.016,0,0,1,0-.01h0a0.034,0.034,0,0,1,0-.01h0c0-.01,0-0.01,0-0.01h0a0.034,0.034,0,0,1,0-.01h0c0-.01,0-0.01,0-0.01v-0.01h0v-0.01h0v-0.01h0v-0.01h0a0.016,0.016,0,0,0,0-.01h0s0,0,0-.01h0v-0.01h0v-0.01h0v-0.01h0s0,0,0-.01h0c0-.01,0-0.01,0-0.01h0c0-.01,0-0.01,0-0.01h0s0-.01,0-0.01h0v-0.01h0v-0.01h0a0.016,0.016,0,0,0,0-.01h0s0,0,0-.01h0s0,0,0-.01h0v-0.01h0a0.017,0.017,0,0,1,0-.01h0c0-.01,0-0.01,0-0.01h0a0.08,0.08,0,0,1,0-.02h0v-0.01h0c0-.01,0-0.01,0-0.02h0a0.016,0.016,0,0,0,0-.01h0a0.08,0.08,0,0,0,0-.02h0v-0.01s0-.01,0-0.01v-0.01h0a0.08,0.08,0,0,1,0-.02h0a0.034,0.034,0,0,1,0-.01h0c0-.01,0-0.01,0-0.02h0s0,0,0-.01h0a0.049,0.049,0,0,0,0-.02h0a0.016,0.016,0,0,0,0-.01h0a0.042,0.042,0,0,1,0-.01h0a0.016,0.016,0,0,1,0-.01h0a0.042,0.042,0,0,1,0-.02h0a0.016,0.016,0,0,1,0-.01h0c0-.01,0-0.01,0-0.02h0s0-.01,0-0.01h0c0-.01,0-0.01,0-0.02h0s0,0,0-.01h0s0-.01,0-0.01h0c0-.01,0-0.01,0-0.01h0a0.08,0.08,0,0,1,0-.02h0c0-.01,0-0.01,0-0.01h0c0-.01,0-0.01,0-0.02h0v-0.01h0c0-.01,0-0.01,0-0.02h0a0.016,0.016,0,0,0,0-.01h0a0.052,0.052,0,0,1,0-.02v-0.01a0.476,0.476,0,0,0,.009-0.05h0c0-.01,0-0.02,0-0.03h0c0-.01,0-0.02,0-0.03h0a0.476,0.476,0,0,0,.009-0.05h0l0.009-.06h0c0-.03.011-0.07,0.016-0.11h0a0.476,0.476,0,0,1,.009-0.05h0c0-.01,0-0.02,0-0.03h0c0-.01,0-0.02,0-0.03h0c0-.02,0-0.04.008-0.06h0c0-.02,0-0.03.007-0.05h0v-0.01h0c0-.01,0-0.02,0-0.03h0c0-.01,0-0.01,0-0.02h0l0.012-.09h0c0-.04.009-0.08,0.014-0.11h0l0-.03h0l0-.03h0c0-.02,0-0.04.007-0.06h0c0-.03.006-0.05,0.009-0.08h0l0-.03h0l0-.03h0l0-.03h0l0-.03h0a0.08,0.08,0,0,0,0-.02h0l0.009-.09h0c0-.01,0-0.02,0-0.03h0l0-.03h0a0.08,0.08,0,0,0,0-.02h0c0-.01,0-0.02,0-0.03h0l0-.03h0c0-.01,0-0.02,0-0.03h0a0.034,0.034,0,0,0,0-.01h0a0.117,0.117,0,0,0,0-.02h0v-0.01h0s0-.01,0-0.02h0v-0.01a0.034,0.034,0,0,0,0-.01h0v-0.01h0a0.117,0.117,0,0,1,0-.02h0c0-.01,0-0.01,0-0.01h0c0-.01,0-0.01,0-0.02h0v-0.01h0c0-.01,0-0.01,0-0.02h0a0.034,0.034,0,0,0,0-.01h0a0.134,0.134,0,0,0,0-.02h0s0,0,0-.01h0a0.117,0.117,0,0,0,0-.02h0v-0.01h0s0-.01,0-0.01v-0.01h0v-0.01a0.034,0.034,0,0,1,0-.01h0c0-.01,0-0.01,0-0.01h0a0.077,0.077,0,0,1,0-.02h0c0-.01,0-0.01,0-0.01h0a0.134,0.134,0,0,1,0-.02h0v-0.01h0l0-.02h0v-0.01h0l0-.02h0v-0.01h0a0.077,0.077,0,0,0,0-.02h0v-0.01h0v-0.02h0v-0.03h0v-0.01h0c0-.01,0-0.01,0-0.01h0v-0.01h0a0.134,0.134,0,0,0,0-.02h0a0.034,0.034,0,0,0,0-.01h0c0-.01,0-0.01,0-0.02h0V1803h0a0.134,0.134,0,0,1,0-.02h0v-0.01h0v-0.01h0v-0.01h0v-0.01h0v-0.01h0v-0.01h0v-0.01h0v-0.01h0v-0.01h0v-0.01h0v-0.01h0v-0.01h0v-0.01h0c0-.01,0-0.01,0-0.01h0v-0.01h0v-0.01h0a0.034,0.034,0,0,0,0-.01h0v-0.01h0a0.034,0.034,0,0,0,0-.01h0v-0.01h0a0.034,0.034,0,0,1,0-.01h0v-0.01h0v-0.01h0s0,0,0-.01h0v-0.01h0v-0.01h0v-0.01h0v-0.01h0a0.016,0.016,0,0,0,0-.01h0v-0.01h0v-0.01h0v-0.01h0v-0.01h0v-0.02h0v-0.01h0a0.016,0.016,0,0,1,0-.01h0v-0.01h0v-0.01h0a0.016,0.016,0,0,1,0-.01h0v-0.01h0v-0.01h0a0.034,0.034,0,0,1,0-.01h0v-0.01h0v-0.01h0v-0.01h0s0,0,0-.01h0v-0.01h0v-0.01h0v-0.01h0s0,0,0-.01h0v-0.01h0v-0.01h0v-0.01s0,0,0-.01h0v-0.01h0v-0.01h0v-0.01h0v-0.01h0v-0.01h0v-0.01h0v-0.01h0v-0.01h0v-0.01h0v-0.01h0v-0.01h0v-0.01h0v-0.01h0v-0.01h0v-0.01h0v-0.01h0v-0.01h0v-0.01h0v-0.01h0v-0.01h0v-0.01h0s0,0,0-.01h0v-0.01h0v-0.01h0v-0.02h0v-0.01h0v-0.01h0v-0.01h0v-0.01h0v-0.01h0a0.016,0.016,0,0,1,0-.01v-0.01h0v-0.01h0v-0.01h0v-0.01h0v-0.01h0v-0.01h0v-0.01h0v-0.02h0v-0.01h0V1802h0v-0.01h0v-0.01h0v-0.02h0c0-.04,0-0.09,0-0.14a1,1,0,0,0-1-.98h0Zm-2.642-8.94a0.966,0.966,0,0,0-.536.16,1,1,0,0,0-.308,1.38,15.839,15.839,0,0,1,1.832,4.03,1.008,1.008,0,0,0,.958.72,0.937,0.937,0,0,0,.283-0.05,1,1,0,0,0,.678-1.24c-0.093-.31-0.192-0.62-0.3-0.92h0a0.159,0.159,0,0,0-.007-0.02h0c0-.01,0-0.01-0.006-0.02h0a0.017,0.017,0,0,1,0-.01h0s0,0,0-.01h0v-0.01s0-.01-0.006-0.01a0.034,0.034,0,0,1,0-.01h0c0-.01,0-0.01,0-0.01a0.016,0.016,0,0,1,0-.01h0a0.017,0.017,0,0,0,0-.01h0c0-.01,0-0.01,0-0.01h0s0-.01,0-0.01h0a0.034,0.034,0,0,1,0-.01h0a0.016,0.016,0,0,1,0-.01h0v-0.01h0c0-.01,0-0.01,0-0.01h0s0-.01,0-0.01h0s0-.01,0-0.01h0s0-.01,0-0.01h0s0-.01,0-0.01h0s0,0,0-.01h0s0,0,0-.01h0a0.016,0.016,0,0,0,0-.01h0v-0.01h0v-0.01h0v-0.01h0c0-.01,0-0.01,0-0.01h0c0-.01,0-0.01,0-0.01h0a0.036,0.036,0,0,1,0-.01h0s0-.01,0-0.01h0a0.036,0.036,0,0,0,0-.01h0s0,0,0-.01h0s0,0,0-.01h0s0-.01-0.006-0.01v-0.01s0-.01-0.006-0.01h0c0-.01,0-0.01,0-0.01h0a0.041,0.041,0,0,0-.007-0.02h0c0-.01,0-0.01-0.007-0.02h0c0-.01,0-0.01-0.007-0.02h0a18.307,18.307,0,0,0-1.6-3.17,1,1,0,0,0-.845-0.46h0Zm-6.958-6.21a1,1,0,0,0-.437,1.9,16.193,16.193,0,0,1,3.682,2.47,1,1,0,0,0,1.333-1.49,18.639,18.639,0,0,0-1.918-1.5h0c-0.013-.01-0.025-0.01-0.038-0.02h0a0.059,0.059,0,0,0-.033-0.02c0-.01,0-0.01,0-0.01h0s-0.007,0-.01-0.01h-0.007c-0.006,0-.01-0.01-0.016-0.01h0a0.014,0.014,0,0,0-.015-0.01h0a0.047,0.047,0,0,1,0-.01h-0.012c0-.01,0-0.01,0-0.01H551.9s0-.01,0-0.01h-0.007s0,0-.008-0.01h-0.013c0-.01-0.006-0.01-0.01-0.01h0s0,0,0-.01h-0.012s0,0,0-.01h-0.013c0-.01,0-0.01,0-0.01h-0.008s0,0,0-.01H551.8s0,0-.006-0.01h-0.011s0,0,0-.01h-0.012a0.042,0.042,0,0,0,0-.01h-0.012s0-.01,0-0.01h-0.012c0-.01,0-0.01,0-0.01h-0.01a0.017,0.017,0,0,1,0-.01h-0.007s-0.01-.01-0.015-0.01h-0.008v-0.01h-0.009s0,0-.006-0.01h-0.011s0,0-.006-0.01h-0.01s0,0-.006-0.01h-0.01s0-.01-0.007-0.01h-0.009s0-.01-0.008-0.01h-0.009a0.07,0.07,0,0,0-.008-0.01h-0.008a0.016,0.016,0,0,0-.016-0.01h0a0.015,0.015,0,0,0-.016-0.01h0l-0.041-.03h0s-0.011-.01-0.016-0.01h0c-0.531-.33-1.08-0.63-1.647-0.91a0.967,0.967,0,0,0-.435-0.1h0ZM542,1784h-0.441a0.018,0.018,0,0,1-.019.01h-0.269a0.02,0.02,0,0,0-.02.01h-0.059a17.993,17.993,0,0,0-3.546.51h0c-0.016,0-.031.01-0.046,0.01h0c-0.009,0-.018.01-0.027,0.01h0a0.031,0.031,0,0,0-.027.01h-0.019a0.017,0.017,0,0,0-.018.01h-0.038c0,0.01-.006.01-0.009,0.01h-0.03c0,0.01,0,.01-0.006.01h-0.03s0,0.01-.007.01h-0.032c0,0.01,0,.01,0,0.01H537.32s0,0.01-.007.01h-0.032s0,0,0,.01h-0.026c-0.006,0-.013.01-0.019,0.01h0c-0.018,0-.035.01-0.053,0.01h0a0.548,0.548,0,0,0-.118.04,1,1,0,0,0,.275,1.96,1.3,1.3,0,0,0,.274-0.04A15.818,15.818,0,0,1,542,1786h0a15.822,15.822,0,0,1,2.754.24,1,1,0,0,0,.343-1.97c-0.026-.01-0.051-0.01-0.077-0.02h-0.036s-0.008-.01-0.012-0.01h-0.051s0-.01,0-0.01h-0.06c0-.01,0-0.01-0.006-0.01H544.8s-0.006-.01-0.009-0.01h-0.061c0-.01-0.007-0.01-0.01-0.01h-0.049a0.025,0.025,0,0,0-.023-0.01H544.6a17.035,17.035,0,0,0-1.762-.17H542.75a0.026,0.026,0,0,0-.024-0.01h-0.282a0.011,0.011,0,0,0-.012-0.01H542Z" transform="translate(-524.094 -1784)"/>
</svg>
