<svg xmlns="http://www.w3.org/2000/svg" width="48" height="48" viewBox="0 0 48 48">
  <defs>
    <style>
      .cls-1 {
        fill: #fff;
        fill-rule: evenodd;
        opacity: 0.5;
      }
    </style>
  </defs>
  <path id="icon_header_wallet" class="cls-1" d="M89.317,24.9H89.282V10.278a1.086,1.086,0,0,0-1.069-1.1h-5.63L78.375,0.6A1.079,1.079,0,0,0,77.754.054a1.042,1.042,0,0,0-.816.063L59.559,9.176H48.33A4.374,4.374,0,0,0,44,13.464s0,0.007,0,.011,0,0.005,0,.008c0,0.052,0,.1,0,0.156v29.9A4.4,4.4,0,0,0,48.33,48H88.212a1.086,1.086,0,0,0,1.069-1.1V38.41h0.035A2.728,2.728,0,0,0,92,35.645V27.667A2.728,2.728,0,0,0,89.317,24.9ZM87.143,11.38v4.274H85.761l-2.1-4.273h3.479Zm-10.194-8.8,4.021,8.194h0l2.394,4.878H81.292a1.109,1.109,0,0,0-.047-0.113L78.493,9.933a1.061,1.061,0,0,0-1.156-.584l-0.327.065a3.061,3.061,0,0,1-3.21-1.46L73.588,7.6a1.052,1.052,0,0,0-1.394-.407L55.952,15.653H51.871L60.3,11.262h0ZM78.9,15.653H60.69L72.309,9.6a5.189,5.189,0,0,0,4.629,2.051ZM48.33,11.38h7l-7.855,4.094a2.258,2.258,0,0,1-1.25-1.452L46.221,14c-0.012-.043-0.022-0.086-0.031-0.129s-0.014-.076-0.02-0.114-0.009-.06-0.013-0.091q-0.009-.079-0.013-0.161A2.212,2.212,0,0,1,48.33,11.38ZM87.143,45.8H48.33a2.229,2.229,0,0,1-2.192-2.259V43.024H78.81a1.1,1.1,0,0,0,0-2.2H46.138V17.249a4.219,4.219,0,0,0,1.4.532l0.008,0h0l0.03,0.006h0l0.025,0c0.063,0.011.126,0.021,0.19,0.029l0.038,0h0l0.089,0.008c0.044,0,.087.009,0.132,0.012l0.033,0c0.083,0,.162.007,0.239,0.007H87.143v2.431H54.188a1.1,1.1,0,0,0,0,2.2H87.143V24.9H71.676A1.086,1.086,0,0,0,70.607,26v11.3a1.086,1.086,0,0,0,1.069,1.1H87.143V45.8Zm2.718-10.151a0.553,0.553,0,0,1-.545.561H72.746v-9.1H89.317a0.554,0.554,0,0,1,.545.561v7.978h0ZM78.057,27.5a4.162,4.162,0,1,0,4.037,4.16A4.1,4.1,0,0,0,78.057,27.5Zm0,6.116a1.957,1.957,0,1,1,1.9-1.956A1.93,1.93,0,0,1,78.057,33.612Zm3.016,8.732a1.128,1.128,0,0,0,.1.19,1.06,1.06,0,0,0,.133.168,1.224,1.224,0,0,0,.163.137,1.088,1.088,0,0,0,.185.1,1.017,1.017,0,0,0,.409.084A1.062,1.062,0,0,0,82.27,43a1.044,1.044,0,0,0,.2-0.063,1.088,1.088,0,0,0,.185-0.1,1.175,1.175,0,0,0,.163-0.137,1.059,1.059,0,0,0,.132-0.168,1.136,1.136,0,0,0,.1-0.19,1.2,1.2,0,0,0,.061-0.206,1.135,1.135,0,0,0,.021-0.216,1.116,1.116,0,0,0-.021-0.215,1.149,1.149,0,0,0-.061-0.206,1.124,1.124,0,0,0-.1-0.19,1.057,1.057,0,0,0-1.1-.468,0.991,0.991,0,0,0-.2.063,1.146,1.146,0,0,0-.185.1,1.134,1.134,0,0,0-.163.137,1.058,1.058,0,0,0-.133.167,1.116,1.116,0,0,0-.1.19,1.141,1.141,0,0,0-.061.206,1.107,1.107,0,0,0-.02.215,1.133,1.133,0,0,0,.02.216A1.19,1.19,0,0,0,81.073,42.344ZM51.924,20.969a1.157,1.157,0,0,0-.1-0.191,1.185,1.185,0,0,0-.134-0.168,1.015,1.015,0,0,0-.163-0.136,1.081,1.081,0,0,0-.184-0.1,1.14,1.14,0,0,0-.2-0.063,1.032,1.032,0,0,0-.418,0,1.082,1.082,0,0,0-.2.063,1.058,1.058,0,0,0-.185.1,1.019,1.019,0,0,0-.162.136,1.1,1.1,0,0,0-.133.168,1.178,1.178,0,0,0-.1.191,1.141,1.141,0,0,0-.082.421,1.125,1.125,0,0,0,.021.216,1.155,1.155,0,0,0,.061.206,1.189,1.189,0,0,0,.1.191,1.1,1.1,0,0,0,.133.166,1.049,1.049,0,0,0,.162.138,1.035,1.035,0,0,0,.185.1,1.063,1.063,0,0,0,.2.063,1.011,1.011,0,0,0,.209.022,1.029,1.029,0,0,0,.209-0.022,1.116,1.116,0,0,0,.2-0.063,1.057,1.057,0,0,0,.184-0.1,1.046,1.046,0,0,0,.163-0.138A1.183,1.183,0,0,0,51.826,22a1.214,1.214,0,0,0,.1-0.191,1.14,1.14,0,0,0,.061-0.637A1.11,1.11,0,0,0,51.924,20.969Z" transform="translate(-44)"/>
</svg>
