<svg xmlns="http://www.w3.org/2000/svg" width="10" height="10" viewBox="0 0 10 10">
  <defs>
    <style>
      .cls-1 {
        fill: #c6cacc;
        fill-rule: evenodd;
      }
    </style>
  </defs>
  <path id="icon-edit" class="cls-1" d="M435,1852.87a0.642,0.642,0,0,1-.183.45h0l-0.808.8-2.134-2.13,0.808-.81h0a0.633,0.633,0,0,1,.884,0h0l1.25,1.25h0A0.636,0.636,0,0,1,435,1852.87Zm-4.009,0,2.134,2.14-5.808,5.81h0a0.636,0.636,0,0,1-.442.18h-1.25a0.626,0.626,0,0,1-.625-0.63v-1.25a0.636,0.636,0,0,1,.183-0.44h0Z" transform="translate(-425 -1851)"/>
</svg>
