<svg xmlns="http://www.w3.org/2000/svg" width="5" height="12" viewBox="0 0 5 12">
  <defs>
    <style>
      .cls-1 {
        fill: #212426;
        fill-rule: evenodd;
      }
    </style>
  </defs>
  <path id="icon-ar-sm-right" class="cls-1" d="M671.134,1252.53l3-5.12a1.011,1.011,0,0,1,1.366-.36,0.98,0.98,0,0,1,.366,1.35l-3,5.11a1.011,1.011,0,0,1-1.366.36A0.971,0.971,0,0,1,671.134,1252.53Zm3-3.94-3-5.12a0.971,0.971,0,0,1,.366-1.34,1.011,1.011,0,0,1,1.366.36l3,5.11a0.98,0.98,0,0,1-.366,1.35A1.011,1.011,0,0,1,674.134,1248.59Z" transform="translate(-671 -1242)"/>
</svg>
