<svg xmlns="http://www.w3.org/2000/svg" width="10" height="10" viewBox="0 0 10 10">
  <defs>
    <style>
      .cls-1 {
        fill: #c6cacc;
        fill-rule: evenodd;
      }
    </style>
  </defs>
  <path id="icon-delete" class="cls-1" d="M433.332,1885a1.67,1.67,0,0,1-1.178-.49h0L430,1882.36l-2.155,2.15h0a1.668,1.668,0,0,1-2.357-2.36h0l2.155-2.15-2.155-2.16h0a1.663,1.663,0,0,1,1.179-2.84,1.627,1.627,0,0,1,1.178.49h0l2.155,2.15,2.155-2.15h0a1.629,1.629,0,0,1,1.178-.49,1.663,1.663,0,0,1,1.179,2.84h0l-2.155,2.16,2.155,2.15h0A1.67,1.67,0,0,1,433.332,1885Z" transform="translate(-425 -1875)"/>
</svg>
