<?xml version="1.0" encoding="utf-8"?>
<!-- Generator: Adobe Illustrator 19.2.1, SVG Export Plug-In . SVG Version: 6.00 Build 0)  -->
<svg version="1.1" id="Layer_1" xmlns="http://www.w3.org/2000/svg" xmlns:xlink="http://www.w3.org/1999/xlink" x="0px" y="0px"
	 viewBox="0 0 37 48" style="enable-background:new 0 0 37 48;" xml:space="preserve">
<style type="text/css">
	.st0{fill:#CCCCCC;}
</style>
<g>
	<path class="st0" d="M36.6,10.1l-0.6-0.6l-8.3-8.4L27,0.5C26.7,0.2,26.3,0,25.9,0H2c-1,0-2,0.8-2,2.4v43.9c0,0.7,0.7,1.4,1.5,1.6
		c0,0,0.1,0,0.1,0c0.1,0,0.3,0,0.4,0H35c0.1,0,0.3,0,0.4,0c0,0,0.1,0,0.1,0c0.8-0.2,1.5-0.9,1.5-1.6V11.6
		C37,10.9,36.9,10.5,36.6,10.1L36.6,10.1z M34.1,9.9h-6.9V3L34.1,9.9z M2,46.3c-0.1,0-0.1,0-0.2,0c-0.1-0.1-0.2-0.2-0.2-0.3v-12
		h33.7v12c0,0.2-0.1,0.3-0.2,0.3c-0.1,0-0.1,0-0.2,0H2z M1.6,32.3V2.4c0-0.2,0-0.8,0.4-0.8h23.5c0,0.1,0,0.2,0,0.3v9.6H35
		c0.1,0,0.2,0,0.3,0c0,0,0,0,0,0v20.7H1.6z M1.6,32.3"/>
	<path class="st0" d="M13.8,37.6c-0.3-0.4-0.8-0.7-1.3-0.9c-0.5-0.2-1.1-0.3-1.8-0.3H8.1v8.3h3.1c0.1,0,0.3,0,0.5,0
		c0.2,0,0.5-0.1,0.7-0.2c0.3-0.1,0.5-0.2,0.8-0.4c0.3-0.2,0.5-0.4,0.8-0.8c0.2-0.3,0.4-0.7,0.6-1.2c0.1-0.5,0.2-1.1,0.2-1.8
		c0-0.5-0.1-1-0.3-1.5C14.4,38.4,14.1,37.9,13.8,37.6L13.8,37.6z M12.8,42.8c-0.4,0.6-1.1,0.9-2,0.9H9.5v-6.3h0.8
		c0.6,0,1.2,0.1,1.6,0.3c0.4,0.2,0.7,0.4,1,0.7c0.2,0.3,0.4,0.6,0.5,0.9c0.1,0.3,0.1,0.7,0.1,1C13.4,41.4,13.2,42.2,12.8,42.8
		L12.8,42.8z M12.8,42.8"/>
	<path class="st0" d="M22,37.3c-0.3-0.4-0.7-0.6-1.1-0.8c-0.4-0.2-0.9-0.3-1.4-0.3c-0.5,0-1,0.1-1.4,0.3c-0.4,0.2-0.8,0.5-1.1,0.8
		c-0.3,0.4-0.6,0.8-0.7,1.3c-0.2,0.5-0.3,1.1-0.3,1.8c0,0.7,0.1,1.3,0.3,1.9c0.2,0.5,0.4,1,0.7,1.3c0.3,0.4,0.7,0.6,1.1,0.8
		c0.4,0.2,0.9,0.3,1.4,0.3c0.5,0,0.9-0.1,1.4-0.3c0.4-0.2,0.8-0.4,1.1-0.8c0.3-0.4,0.6-0.8,0.7-1.3c0.2-0.5,0.3-1.2,0.3-1.9
		c0-0.7-0.1-1.3-0.3-1.8C22.6,38.1,22.3,37.7,22,37.3L22,37.3z M21.5,42c-0.1,0.4-0.3,0.7-0.5,1c-0.2,0.3-0.4,0.4-0.7,0.5
		c-0.3,0.1-0.5,0.2-0.8,0.2c-0.3,0-0.5-0.1-0.8-0.2c-0.2-0.1-0.5-0.3-0.7-0.6c-0.2-0.3-0.3-0.6-0.5-1c-0.1-0.4-0.2-0.9-0.2-1.5
		c0-0.6,0.1-1.1,0.2-1.5c0.1-0.4,0.3-0.7,0.5-1c0.2-0.3,0.4-0.4,0.7-0.5c0.2-0.1,0.5-0.2,0.8-0.2c0.3,0,0.5,0.1,0.8,0.2
		c0.2,0.1,0.5,0.3,0.7,0.6c0.2,0.3,0.3,0.6,0.4,1c0.1,0.4,0.2,0.9,0.2,1.4C21.6,41.1,21.6,41.6,21.5,42L21.5,42z M21.5,42"/>
	<path class="st0" d="M26.8,38c0.2-0.3,0.4-0.4,0.7-0.5c0.2-0.1,0.5-0.2,0.8-0.2c0.2,0,0.5,0.1,0.7,0.1c0.2,0.1,0.4,0.3,0.6,0.5
		l0.9-0.8c-0.3-0.3-0.7-0.5-1-0.7c-0.4-0.1-0.8-0.2-1.3-0.2c-0.5,0-0.9,0.1-1.4,0.3c-0.4,0.2-0.8,0.5-1.1,0.8
		c-0.3,0.4-0.6,0.8-0.7,1.3c-0.2,0.5-0.3,1.1-0.3,1.9c0,0.7,0.1,1.3,0.3,1.9c0.2,0.5,0.4,1,0.7,1.3c0.3,0.4,0.7,0.6,1.1,0.8
		c0.4,0.2,0.9,0.3,1.4,0.3c0.4,0,0.9-0.1,1.3-0.2c0.4-0.1,0.7-0.4,1-0.7L29.6,43c-0.2,0.2-0.4,0.4-0.6,0.5c-0.2,0.1-0.5,0.1-0.8,0.1
		c-0.3,0-0.5-0.1-0.8-0.2c-0.2-0.1-0.5-0.3-0.7-0.6c-0.2-0.3-0.3-0.6-0.5-1c-0.1-0.4-0.2-0.9-0.2-1.4c0-0.6,0.1-1.1,0.2-1.5
		C26.4,38.6,26.6,38.3,26.8,38L26.8,38z M26.8,38"/>
	<path class="st0" d="M5.8,11.6h4.9c0.5,0,0.8-0.4,0.8-0.8c0-0.5-0.4-0.8-0.8-0.8H5.8c-0.5,0-0.8,0.4-0.8,0.8
		C4.9,11.2,5.3,11.6,5.8,11.6L5.8,11.6z M5.8,11.6"/>
	<path class="st0" d="M5.8,15.7h7.4c0.5,0,0.8-0.4,0.8-0.8c0-0.5-0.4-0.8-0.8-0.8H5.8c-0.5,0-0.8,0.4-0.8,0.8
		C4.9,15.4,5.3,15.7,5.8,15.7L5.8,15.7z M5.8,15.7"/>
	<path class="st0" d="M16.4,15.7c0.2,0,0.4-0.1,0.6-0.2c0.1-0.2,0.2-0.4,0.2-0.6c0-0.2-0.1-0.4-0.2-0.6c-0.3-0.3-0.9-0.3-1.2,0
		c-0.1,0.2-0.2,0.4-0.2,0.6c0,0.2,0.1,0.4,0.2,0.6C16,15.6,16.2,15.7,16.4,15.7L16.4,15.7z M16.4,15.7"/>
	<path class="st0" d="M19.7,15.7h6.6c0.5,0,0.8-0.4,0.8-0.8c0-0.5-0.4-0.8-0.8-0.8h-6.6c-0.5,0-0.8,0.4-0.8,0.8
		C18.9,15.4,19.3,15.7,19.7,15.7L19.7,15.7z M19.7,15.7"/>
	<path class="st0" d="M5.2,26.7c-0.1,0.2-0.2,0.4-0.2,0.6c0,0.2,0.1,0.4,0.2,0.6c0.2,0.1,0.4,0.2,0.6,0.2c0.2,0,0.4-0.1,0.6-0.2
		c0.1-0.2,0.2-0.4,0.2-0.6c0-0.2-0.1-0.4-0.2-0.6C6,26.4,5.5,26.4,5.2,26.7L5.2,26.7z M5.2,26.7"/>
	<path class="st0" d="M15.6,26.5H9c-0.5,0-0.8,0.4-0.8,0.8c0,0.5,0.4,0.8,0.8,0.8h6.6c0.5,0,0.8-0.4,0.8-0.8
		C16.4,26.9,16.1,26.5,15.6,26.5L15.6,26.5z M15.6,26.5"/>
	<path class="st0" d="M31.2,14.1h-1.6c-0.5,0-0.8,0.4-0.8,0.8c0,0.5,0.4,0.8,0.8,0.8h1.6c0.5,0,0.8-0.4,0.8-0.8
		C32.1,14.4,31.7,14.1,31.2,14.1L31.2,14.1z M31.2,14.1"/>
	<path class="st0" d="M5.8,19.9h18.1c0.5,0,0.8-0.4,0.8-0.8c0-0.5-0.4-0.8-0.8-0.8H5.8c-0.5,0-0.8,0.4-0.8,0.8
		C4.9,19.5,5.3,19.9,5.8,19.9L5.8,19.9z M5.8,19.9"/>
	<path class="st0" d="M31.2,18.2h-4.9c-0.5,0-0.8,0.4-0.8,0.8c0,0.5,0.4,0.8,0.8,0.8h4.9c0.5,0,0.8-0.4,0.8-0.8
		C32.1,18.6,31.7,18.2,31.2,18.2L31.2,18.2z M31.2,18.2"/>
	<path class="st0" d="M5.8,24H9c0.5,0,0.8-0.4,0.8-0.8c0-0.5-0.4-0.8-0.8-0.8H5.8c-0.5,0-0.8,0.4-0.8,0.8C4.9,23.6,5.3,24,5.8,24
		L5.8,24z M5.8,24"/>
	<path class="st0" d="M20.6,22.3h-8.2c-0.5,0-0.8,0.4-0.8,0.8c0,0.5,0.4,0.8,0.8,0.8h8.2c0.5,0,0.8-0.4,0.8-0.8
		C21.4,22.7,21,22.3,20.6,22.3L20.6,22.3z M20.6,22.3"/>
	<path class="st0" d="M31.2,22.3h-7.4c-0.5,0-0.8,0.4-0.8,0.8c0,0.5,0.4,0.8,0.8,0.8h7.4c0.5,0,0.8-0.4,0.8-0.8
		C32.1,22.7,31.7,22.3,31.2,22.3L31.2,22.3z M31.2,22.3"/>
</g>
</svg>
