<?xml version="1.0" encoding="utf-8"?><svg xmlns="http://www.w3.org/2000/svg" xmlns:xlink="http://www.w3.org/1999/xlink"><symbol viewBox="0 0 12.2 5" id="icon-ar-down" xmlns="http://www.w3.org/2000/svg"><path d="M12.1.5c-.3-.5-.9-.6-1.4-.4L6.1 2.8 1.5.1C1-.1.4 0 .1.5S0 1.6.5 1.9l4.7 2.7c.2.3.5.4.9.4s.7-.1.9-.4l4.7-2.7c.5-.3.6-.9.4-1.4z"/></symbol><symbol viewBox="0 0 24 17" id="icon-ar-left" xmlns="http://www.w3.org/2000/svg"><defs><style>.abcls-1{fill:#999;fill-rule:evenodd}</style></defs><path id="abicon-ar-left" class="abcls-1" d="M398.243 3236.71a1 1 0 0 1-1.414 0l-7.072-7.04a1 1 0 0 1 1.415-1.41l7.071 7.04a1 1 0 0 1 0 1.41zm0-16.42a1 1 0 0 1 0 1.41l-7.071 7.04a1 1 0 0 1-1.415-1.41l7.072-7.04a1 1 0 0 1 1.414 0zM390 3227.5h22a1 1 0 0 1 1 1 1 1 0 0 1-1 1h-22a1 1 0 0 1-1-1 1 1 0 0 1 1-1z" transform="translate(-389 -3220)"/></symbol><symbol viewBox="0 0 5 12" id="icon-ar-sm-left" xmlns="http://www.w3.org/2000/svg"><defs><style>.accls-1{fill:#212426;fill-rule:evenodd}</style></defs><path id="acicon-ar-sm-left" class="accls-1" d="M504.866 1243.47l-3 5.12a1.011 1.011 0 0 1-1.366.36.98.98 0 0 1-.366-1.35l3-5.11a1.011 1.011 0 0 1 1.366-.36.971.971 0 0 1 .366 1.34zm-3 3.94l3 5.12a.971.971 0 0 1-.366 1.34 1.011 1.011 0 0 1-1.366-.36l-3-5.11a.98.98 0 0 1 .366-1.35 1.011 1.011 0 0 1 1.366.36z" transform="translate(-500 -1242)"/></symbol><symbol viewBox="0 0 5 12" id="icon-ar-sm-left-hover" xmlns="http://www.w3.org/2000/svg"><defs><style>.adcls-1{fill:#0cb9f2;fill-rule:evenodd}</style></defs><path id="adicon-ar-sm-left-hover" class="adcls-1" d="M504.866 1243.47l-3 5.12a1.011 1.011 0 0 1-1.366.36.98.98 0 0 1-.366-1.35l3-5.11a1.011 1.011 0 0 1 1.366-.36.971.971 0 0 1 .366 1.34zm-3 3.94l3 5.12a.971.971 0 0 1-.366 1.34 1.011 1.011 0 0 1-1.366-.36l-3-5.11a.98.98 0 0 1 .366-1.35 1.011 1.011 0 0 1 1.366.36z" transform="translate(-500 -1242)"/></symbol><symbol viewBox="0 0 5 12" id="icon-ar-sm-right" xmlns="http://www.w3.org/2000/svg"><defs><style>.aecls-1{fill:#212426;fill-rule:evenodd}</style></defs><path id="aeicon-ar-sm-right" class="aecls-1" d="M671.134 1252.53l3-5.12a1.011 1.011 0 0 1 1.366-.36.98.98 0 0 1 .366 1.35l-3 5.11a1.011 1.011 0 0 1-1.366.36.971.971 0 0 1-.366-1.34zm3-3.94l-3-5.12a.971.971 0 0 1 .366-1.34 1.011 1.011 0 0 1 1.366.36l3 5.11a.98.98 0 0 1-.366 1.35 1.011 1.011 0 0 1-1.366-.36z" transform="translate(-671 -1242)"/></symbol><symbol viewBox="0 0 5 12" id="icon-ar-sm-right-hover" xmlns="http://www.w3.org/2000/svg"><defs><style>.afcls-1{fill:#0cb9f2;fill-rule:evenodd}</style></defs><path id="aficon-ar-sm-right-hover" class="afcls-1" d="M671.134 1252.53l3-5.12a1.011 1.011 0 0 1 1.366-.36.98.98 0 0 1 .366 1.35l-3 5.11a1.011 1.011 0 0 1-1.366.36.971.971 0 0 1-.366-1.34zm3-3.94l-3-5.12a.971.971 0 0 1 .366-1.34 1.011 1.011 0 0 1 1.366.36l3 5.11a.98.98 0 0 1-.366 1.35 1.011 1.011 0 0 1-1.366-.36z" transform="translate(-671 -1242)"/></symbol><symbol id="icon-ar-up" viewBox="0 0 12 5" xmlns="http://www.w3.org/2000/svg"><style>.agst0{fill:#212426}</style><path class="agst0" d="M11.5 3.1L6.9.4C6.7.1 6.4 0 6 0s-.7.1-.9.4L.5 3.1c-.5.3-.6.9-.4 1.4.3.5.9.6 1.4.4L6 2.2l4.5 2.7c.5.2 1.1.1 1.4-.4.2-.5.1-1.1-.4-1.4z"/></symbol><symbol id="icon-certificate" viewBox="0 0 24 24" xmlns="http://www.w3.org/2000/svg"><style>.ahst0{fill:#3e95b3}</style><path class="ahst0" d="M23.2 0H.8C.4 0 0 .4 0 .8v15.7c0 .4.4.8.8.8h9.1L8 21.6c-.1.3-.1.6.1.9.2.2.5.3.8.2l1.3-.5.5 1.3c.1.3.4.5.7.5.3 0 .6-.2.7-.5l1.5-3.5 1.5 3.5c.1.3.4.5.7.5.3 0 .6-.2.7-.5l.5-1.3 1.3.5c.3.1.6 0 .8-.2.2-.2.3-.6.1-.9l-1.9-4.3h5.5c.4 0 .8-.4.8-.8V.8c.4-.4 0-.8-.4-.8zM11.6 21.1l-.1-.2c-.1-.3-.4-.5-.7-.5h-.3l-.4.1 1.1-2.6c.4.3.9.6 1.4.7l-1 2.5zm-5.5-8.6c-.2-.7-.8-1.2-1.4-1.4v-5c.7-.2 1.2-.8 1.4-1.4h11.7c.2.7.8 1.2 1.4 1.4v5c-.7.2-1.2.8-1.4 1.4H17c-.7-1-1.9-1.6-3.1-1.6s-2.4.6-3.1 1.6H6.1zm7.7 4.7c-1.3 0-2.3-1.1-2.3-2.4 0-1.3 1.1-2.4 2.3-2.4 1.3 0 2.3 1.1 2.3 2.4.1 1.4-1 2.4-2.3 2.4zm3.3 3.2c-.4-.1-.9.1-1 .5l-.1.2-1.1-2.5c.5-.2 1-.4 1.4-.7l1.1 2.6-.3-.1zm5.3-4.7h-4.8c.1-.3.1-.5.1-.8s0-.5-.1-.8h.9c.4 0 .8-.4.8-.8s.4-.8.8-.8.8-.4.8-.8V5.5c0-.4-.4-.8-.8-.8s-.8-.4-.8-.8-.4-.8-.8-.8h-13c-.5 0-.8.4-.8.8s-.4.8-.8.8-.8.4-.8.8v6.3c0 .4.4.8.8.8s.8.4.8.8.4.8.8.8H10c-.1.3-.1.5-.1.8s0 .5.1.8H1.6V1.6h20.9v14.1z"/><path class="ahst0" d="M17.7 7c0-.4-.4-.8-.8-.8H7c-.4.1-.7.4-.7.8s.4.8.8.8H17c.4 0 .7-.3.7-.8zM9.1 9.4H7c-.4 0-.8.4-.8.8s.4.8.8.8h2.1c.4 0 .8-.4.8-.8s-.3-.8-.8-.8z"/></symbol><symbol viewBox="0 0 12 9" id="icon-check-ok" xmlns="http://www.w3.org/2000/svg"><defs><style>.aicls-1{fill:#3eb39f;fill-rule:evenodd}</style></defs><path id="aiicon-check-ok" class="aicls-1" d="M351.56 1852.06l-6 6a1.5 1.5 0 0 1-2.122 0l-3-3a1.5 1.5 0 1 1 2.122-2.12l1.939 1.94 4.939-4.94a1.5 1.5 0 1 1 2.122 2.12z" transform="translate(-340 -1849.5)"/></symbol><symbol viewBox="0 0 12 9" id="icon-check-question" xmlns="http://www.w3.org/2000/svg"><defs><style>.ajcls-1{fill:#3e95b2;fill-rule:evenodd}</style></defs><path id="ajicon-check-question" class="ajcls-1" d="M231.56 1800.06l-6 6a1.5 1.5 0 0 1-2.122 0l-3-3a1.5 1.5 0 1 1 2.122-2.12l1.939 1.94 4.939-4.94a1.5 1.5 0 1 1 2.122 2.12z" transform="translate(-220 -1797.5)"/></symbol><symbol id="icon-chkbx" viewBox="0 0 24 24" xmlns="http://www.w3.org/2000/svg"><style>.akst0{fill:#c6cacc}</style><path class="akst0" d="M21 2c.6 0 1 .4 1 1v18c0 .6-.4 1-1 1H3c-.6 0-1-.4-1-1V3c0-.6.4-1 1-1h18m0-2H3C1.3 0 0 1.3 0 3v18c0 1.7 1.3 3 3 3h18c1.7 0 3-1.3 3-3V3c0-1.7-1.3-3-3-3z"/></symbol><symbol id="icon-chkbx-nrml" viewBox="0 0 24 24" xmlns="http://www.w3.org/2000/svg"><style>.alst0{fill:#3e95b2}</style><path class="alst0" d="M21 2c.6 0 1 .4 1 1v18c0 .6-.4 1-1 1H3c-.6 0-1-.4-1-1V3c0-.6.4-1 1-1h18m0-2H3C1.3 0 0 1.3 0 3v18c0 1.7 1.3 3 3 3h18c1.7 0 3-1.3 3-3V3c0-1.7-1.3-3-3-3z"/><path id="alicon-check-ok" class="alst0" d="M17.6 10.1l-6 6c-.6.6-1.5.6-2.1 0l-3-3c-.6-.6-.6-1.5 0-2.1.6-.6 1.5-.6 2.1 0l1.9 1.9L15.4 8c.6-.6 1.5-.6 2.1 0 .7.5.7 1.4.1 2.1 0-.1 0 0 0 0z"/></symbol><symbol id="icon-chkbx-ok" viewBox="0 0 24 24" xmlns="http://www.w3.org/2000/svg"><style>.amst0{fill:#3eb39f}</style><path class="amst0" d="M21 2c.6 0 1 .4 1 1v18c0 .6-.4 1-1 1H3c-.6 0-1-.4-1-1V3c0-.6.4-1 1-1h18m0-2H3C1.3 0 0 1.3 0 3v18c0 1.7 1.3 3 3 3h18c1.7 0 3-1.3 3-3V3c0-1.7-1.3-3-3-3z"/><path id="amicon-check-ok" class="amst0" d="M17.6 10.1l-6 6c-.6.6-1.5.6-2.1 0l-3-3c-.6-.6-.6-1.5 0-2.1.6-.6 1.5-.6 2.1 0l1.9 1.9L15.4 8c.6-.6 1.5-.6 2.1 0 .7.5.7 1.4.1 2.1 0-.1 0 0 0 0z"/></symbol><symbol id="icon-chkbx-wrong" viewBox="0 0 24 24" xmlns="http://www.w3.org/2000/svg"><style>.anst0{fill:#f26d6d}</style><path class="anst0" d="M21 2c.6 0 1 .4 1 1v18c0 .6-.4 1-1 1H3c-.6 0-1-.4-1-1V3c0-.6.4-1 1-1h18m0-2H3C1.3 0 0 1.3 0 3v18c0 1.7 1.3 3 3 3h18c1.7 0 3-1.3 3-3V3c0-1.7-1.3-3-3-3z"/><path id="anicon-check-ok" class="anst0" d="M17.6 10.1l-6 6c-.6.6-1.5.6-2.1 0l-3-3c-.6-.6-.6-1.5 0-2.1.6-.6 1.5-.6 2.1 0l1.9 1.9L15.4 8c.6-.6 1.5-.6 2.1 0 .7.5.7 1.4.1 2.1 0-.1 0 0 0 0z"/></symbol><symbol viewBox="0 0 17.56 17.562" id="icon-close" xmlns="http://www.w3.org/2000/svg"><defs><style>.aocls-1{fill:#c6cacc;fill-rule:evenodd}</style></defs><path id="aoicon-close" class="aocls-1" d="M1093.93 243.515l15.56 15.556a1 1 0 0 1-1.42 1.414l-15.56-15.557a1 1 0 0 1 1.42-1.413zm-1.42 15.556l15.56-15.556a1 1 0 0 1 1.42 1.413l-15.56 15.557a1 1 0 0 1-1.42-1.414z" transform="translate(-1092.22 -243.219)"/></symbol><symbol id="icon-close-rnd" viewBox="0 0 48 48" xmlns="http://www.w3.org/2000/svg"><style>.apst0{fill:#919799}</style><path class="apst0" d="M24 0C10.7 0 0 10.7 0 24s10.7 24 24 24 24-10.7 24-24S37.3 0 24 0zm0 46C11.8 46 2 36.2 2 24S11.8 2 24 2s22 9.8 22 22-9.8 22-22 22z"/><path class="apst0" d="M14.8 13.4l19.8 19.8c.4.4.4 1 0 1.4-.4.4-1 .4-1.4 0L13.4 14.8c-.4-.4-.4-1 0-1.4.4-.4 1-.4 1.4 0z"/><path class="apst0" d="M13.4 33.2l19.8-19.8c.4-.4 1-.4 1.4 0 .4.4.4 1 0 1.4L14.8 34.6c-.4.4-1 .4-1.4 0-.4-.4-.4-1 0-1.4z"/></symbol><symbol id="icon-close-rnd-hover" viewBox="0 0 48 48" xmlns="http://www.w3.org/2000/svg"><style>.aqst0{fill:#212426}</style><path class="aqst0" d="M24 0C10.7 0 0 10.7 0 24s10.7 24 24 24 24-10.7 24-24S37.3 0 24 0zm0 46C11.8 46 2 36.2 2 24S11.8 2 24 2s22 9.8 22 22-9.8 22-22 22z"/><path class="aqst0" d="M14.8 13.4l19.8 19.8c.4.4.4 1 0 1.4-.4.4-1 .4-1.4 0L13.4 14.8c-.4-.4-.4-1 0-1.4.4-.4 1-.4 1.4 0z"/><path class="aqst0" d="M13.4 33.2l19.8-19.8c.4-.4 1-.4 1.4 0 .4.4.4 1 0 1.4L14.8 34.6c-.4.4-1 .4-1.4 0-.4-.4-.4-1 0-1.4z"/></symbol><symbol viewBox="0 0 17.56 17.562" id="icon-close_hover" xmlns="http://www.w3.org/2000/svg"><defs><style>.arcls-1{fill:#919799;fill-rule:evenodd}</style></defs><path id="aricon-close_hover" class="arcls-1" d="M1093.93 243.515l15.56 15.556a1 1 0 0 1-1.42 1.414l-15.56-15.556a1 1 0 1 1 1.42-1.414zm-1.42 15.556l15.56-15.556a1 1 0 1 1 1.42 1.414l-15.56 15.556a1 1 0 0 1-1.42-1.414z" transform="translate(-1092.22 -243.219)"/></symbol><symbol viewBox="0 0 10 10" id="icon-delete" xmlns="http://www.w3.org/2000/svg"><defs><style>.ascls-1{fill:#c6cacc;fill-rule:evenodd}</style></defs><path id="asicon-delete" class="ascls-1" d="M433.332 1885a1.67 1.67 0 0 1-1.178-.49l-2.154-2.15-2.155 2.15a1.668 1.668 0 0 1-2.357-2.36l2.155-2.15-2.155-2.16a1.663 1.663 0 0 1 1.179-2.84 1.627 1.627 0 0 1 1.178.49l2.155 2.15 2.155-2.15a1.629 1.629 0 0 1 1.178-.49 1.663 1.663 0 0 1 1.179 2.84l-2.155 2.16 2.155 2.15a1.67 1.67 0 0 1-1.18 2.85z" transform="translate(-425 -1875)"/></symbol><symbol viewBox="0 0 10 10" id="icon-delete-dis" xmlns="http://www.w3.org/2000/svg"><defs><style>.atcls-1{fill:#e1eaed;fill-rule:evenodd}</style></defs><path id="aticon-delete-dis" class="atcls-1" d="M477.332 1885a1.67 1.67 0 0 1-1.178-.49l-2.154-2.15-2.155 2.15a1.668 1.668 0 0 1-2.357-2.36l2.155-2.15-2.155-2.16a1.663 1.663 0 0 1 1.179-2.84 1.627 1.627 0 0 1 1.178.49l2.155 2.15 2.155-2.15a1.629 1.629 0 0 1 1.178-.49 1.663 1.663 0 0 1 1.179 2.84l-2.155 2.16 2.155 2.15a1.67 1.67 0 0 1-1.18 2.85z" transform="translate(-469 -1875)"/></symbol><symbol viewBox="0 0 10 10" id="icon-delete-hover" xmlns="http://www.w3.org/2000/svg"><defs><style>.aucls-1{fill:#3e95b3;fill-rule:evenodd}</style></defs><path id="auicon-delete-hover" class="aucls-1" d="M455.332 1885a1.67 1.67 0 0 1-1.178-.49l-2.154-2.15-2.155 2.15a1.668 1.668 0 0 1-2.357-2.36l2.155-2.15-2.155-2.16a1.663 1.663 0 0 1 1.179-2.84 1.627 1.627 0 0 1 1.178.49l2.155 2.15 2.155-2.15a1.629 1.629 0 0 1 1.178-.49 1.663 1.663 0 0 1 1.179 2.84l-2.155 2.16 2.155 2.15a1.67 1.67 0 0 1-1.18 2.85z" transform="translate(-447 -1875)"/></symbol><symbol id="icon-doc" viewBox="0 0 37 48" xmlns="http://www.w3.org/2000/svg"><style>.avst0{fill:#ccc}</style><path class="avst0" d="M36.6 10.1l-.6-.6-8.3-8.4-.7-.6c-.3-.3-.7-.5-1.1-.5H2C1 0 0 .8 0 2.4v43.9c0 .7.7 1.4 1.5 1.6h34c.8-.2 1.5-.9 1.5-1.6V11.6c0-.7-.1-1.1-.4-1.5zm-2.5-.2h-6.9V3l6.9 6.9zM2 46.3h-.2c-.1-.1-.2-.2-.2-.3V34h33.7v12c0 .2-.1.3-.2.3H2zm-.4-14V2.4c0-.2 0-.8.4-.8h23.5v9.9h9.8v20.7H1.6zm0 0"/><path class="avst0" d="M13.8 37.6c-.3-.4-.8-.7-1.3-.9-.5-.2-1.1-.3-1.8-.3H8.1v8.3h3.6c.2 0 .5-.1.7-.2.3-.1.5-.2.8-.4.3-.2.5-.4.8-.8.2-.3.4-.7.6-1.2.1-.5.2-1.1.2-1.8 0-.5-.1-1-.3-1.5-.1-.4-.4-.9-.7-1.2zm-1 5.2c-.4.6-1.1.9-2 .9H9.5v-6.3h.8c.6 0 1.2.1 1.6.3.4.2.7.4 1 .7.2.3.4.6.5.9.1.3.1.7.1 1-.1 1.1-.3 1.9-.7 2.5zm9.2-5.5c-.3-.4-.7-.6-1.1-.8-.4-.2-.9-.3-1.4-.3-.5 0-1 .1-1.4.3-.4.2-.8.5-1.1.8-.3.4-.6.8-.7 1.3-.2.5-.3 1.1-.3 1.8s.1 1.3.3 1.9c.2.5.4 1 .7 1.3.3.4.7.6 1.1.8.4.2.9.3 1.4.3.5 0 .9-.1 1.4-.3.4-.2.8-.4 1.1-.8.3-.4.6-.8.7-1.3.2-.5.3-1.2.3-1.9s-.1-1.3-.3-1.8c-.1-.5-.4-.9-.7-1.3zm-.5 4.7c-.1.4-.3.7-.5 1-.2.3-.4.4-.7.5-.3.1-.5.2-.8.2-.3 0-.5-.1-.8-.2-.2-.1-.5-.3-.7-.6-.2-.3-.3-.6-.5-1-.1-.4-.2-.9-.2-1.5s.1-1.1.2-1.5c.1-.4.3-.7.5-1 .2-.3.4-.4.7-.5.2-.1.5-.2.8-.2.3 0 .5.1.8.2.2.1.5.3.7.6.2.3.3.6.4 1 .1.4.2.9.2 1.4 0 .7 0 1.2-.1 1.6zm5.3-4c.2-.3.4-.4.7-.5.2-.1.5-.2.8-.2.2 0 .5.1.7.1.2.1.4.3.6.5l.9-.8c-.3-.3-.7-.5-1-.7-.4-.1-.8-.2-1.3-.2s-.9.1-1.4.3c-.4.2-.8.5-1.1.8-.3.4-.6.8-.7 1.3-.2.5-.3 1.1-.3 1.9 0 .7.1 1.3.3 1.9.2.5.4 1 .7 1.3.3.4.7.6 1.1.8.4.2.9.3 1.4.3.4 0 .9-.1 1.3-.2s.7-.4 1-.7l-.9-.9c-.2.2-.4.4-.6.5-.2.1-.5.1-.8.1-.3 0-.5-.1-.8-.2-.2-.1-.5-.3-.7-.6-.2-.3-.3-.6-.5-1-.1-.4-.2-.9-.2-1.4 0-.6.1-1.1.2-1.5l.6-.9zm-21-26.4h4.9c.5 0 .8-.4.8-.8 0-.5-.4-.8-.8-.8H5.8c-.5 0-.8.4-.8.8-.1.4.3.8.8.8zm0 4.1h7.4c.5 0 .8-.4.8-.8 0-.5-.4-.8-.8-.8H5.8c-.5 0-.8.4-.8.8-.1.5.3.8.8.8zm10.6 0c.2 0 .4-.1.6-.2.1-.2.2-.4.2-.6 0-.2-.1-.4-.2-.6-.3-.3-.9-.3-1.2 0-.1.2-.2.4-.2.6 0 .2.1.4.2.6.2.1.4.2.6.2zm3.3 0h6.6c.5 0 .8-.4.8-.8 0-.5-.4-.8-.8-.8h-6.6c-.5 0-.8.4-.8.8 0 .5.4.8.8.8zm-14.5 11c-.1.2-.2.4-.2.6 0 .2.1.4.2.6.2.1.4.2.6.2.2 0 .4-.1.6-.2.1-.2.2-.4.2-.6 0-.2-.1-.4-.2-.6-.4-.3-.9-.3-1.2 0zm10.4-.2H9c-.5 0-.8.4-.8.8 0 .5.4.8.8.8h6.6c.5 0 .8-.4.8-.8s-.3-.8-.8-.8zm15.6-12.4h-1.6c-.5 0-.8.4-.8.8 0 .5.4.8.8.8h1.6c.5 0 .8-.4.8-.8.1-.5-.3-.8-.8-.8zM5.8 19.9h18.1c.5 0 .8-.4.8-.8 0-.5-.4-.8-.8-.8H5.8c-.5 0-.8.4-.8.8-.1.4.3.8.8.8zm25.4-1.7h-4.9c-.5 0-.8.4-.8.8 0 .5.4.8.8.8h4.9c.5 0 .8-.4.8-.8.1-.4-.3-.8-.8-.8zM5.8 24H9c.5 0 .8-.4.8-.8 0-.5-.4-.8-.8-.8H5.8c-.5 0-.8.4-.8.8-.1.4.3.8.8.8zm14.8-1.7h-8.2c-.5 0-.8.4-.8.8 0 .5.4.8.8.8h8.2c.5 0 .8-.4.8-.8s-.4-.8-.8-.8zm10.6 0h-7.4c-.5 0-.8.4-.8.8 0 .5.4.8.8.8h7.4c.5 0 .8-.4.8-.8.1-.4-.3-.8-.8-.8zm0 0"/></symbol><symbol viewBox="0 0 10 10" id="icon-edit" xmlns="http://www.w3.org/2000/svg"><defs><style>.awcls-1{fill:#c6cacc;fill-rule:evenodd}</style></defs><path id="awicon-edit" class="awcls-1" d="M435 1852.87a.642.642 0 0 1-.183.45l-.808.8-2.134-2.13.808-.81a.633.633 0 0 1 .884 0l1.25 1.25a.636.636 0 0 1 .183.44zm-4.009 0l2.134 2.14-5.808 5.81a.636.636 0 0 1-.442.18h-1.25a.626.626 0 0 1-.625-.63v-1.25a.636.636 0 0 1 .183-.44z" transform="translate(-425 -1851)"/></symbol><symbol viewBox="0 0 10 10" id="icon-edit-dis" xmlns="http://www.w3.org/2000/svg"><defs><style>.axcls-1{fill:#e1eaed;fill-rule:evenodd}</style></defs><path id="axicon-edit-dis" class="axcls-1" d="M479 1852.87a.642.642 0 0 1-.183.45l-.808.8-2.134-2.13.808-.81a.633.633 0 0 1 .884 0l1.25 1.25a.636.636 0 0 1 .183.44zm-4.009 0l2.134 2.14-5.808 5.81a.635.635 0 0 1-.442.18h-1.25a.626.626 0 0 1-.625-.63v-1.25a.636.636 0 0 1 .183-.44z" transform="translate(-469 -1851)"/></symbol><symbol viewBox="0 0 10 10" id="icon-edit-hover" xmlns="http://www.w3.org/2000/svg"><defs><style>.aycls-1{fill:#3e95b2;fill-rule:evenodd}</style></defs><path id="ayicon-edit-hover" class="aycls-1" d="M457 1852.87a.642.642 0 0 1-.183.45l-.808.8-2.134-2.13.808-.81a.633.633 0 0 1 .884 0l1.25 1.25a.636.636 0 0 1 .183.44zm-4.009 0l2.134 2.14-5.808 5.81a.636.636 0 0 1-.442.18h-1.25a.626.626 0 0 1-.625-.63v-1.25a.636.636 0 0 1 .183-.44z" transform="translate(-447 -1851)"/></symbol><symbol id="icon-fingerprint" viewBox="0 0 24 30" xmlns="http://www.w3.org/2000/svg"><style>.azst0{fill:#f26d6d}</style><path class="azst0" d="M12 7.5c-2.5 0-4.6 2.1-4.6 4.7v15c0 .5.4.9.9.9s.9-.4.9-.9v-15c0-1.6 1.2-2.8 2.8-2.8 1.5 0 2.8 1.3 2.8 2.8 0 .5.4.9.9.9s.9-.4.9-.9c0-2.6-2.1-4.7-4.6-4.7zm0 0"/><path class="azst0" d="M12 11.3c-.5 0-.9.4-.9.9v8.4c0 .5.4.9.9.9s.9-.4.9-.9v-8.4c0-.5-.4-.9-.9-.9zm0 12.1c-.5 0-.9.4-.9.9V29c0 .5.4.9.9.9s.9-.4.9-.9v-4.7c0-.4-.4-.9-.9-.9zm3.7-8.4c-.5 0-.9.4-.9.9v11.2c0 .5.4.9.9.9s.9-.4.9-.9V15.9c0-.5-.4-.9-.9-.9zM4.6 16.9c-.5 0-.9.4-.9.9v6.6c0 .5.4.9.9.9s.9-.4.9-.9v-6.6c0-.5-.4-.9-.9-.9zM23.1 15c-.5 0-.9.4-.9.9v4.7c0 .5.4.9.9.9s.9-.4.9-.9v-4.7c0-.5-.4-.9-.9-.9zm-4.6-6.5c-.5.2-.7.7-.5 1.2.3.8.5 1.6.5 2.5v12.2c0 .5.4.9.9.9s.9-.4.9-.9V12.2c0-1.1-.2-2.2-.6-3.2-.2-.5-.7-.7-1.2-.5zM12 3.7c-4.6 0-8.3 3.8-8.3 8.4V14c0 .5.4.9.9.9s.9-.4.9-.9v-1.9c0-3.6 2.9-6.6 6.5-6.6 1.5 0 2.9.5 4 1.4.4.3 1 .3 1.3-.1.3-.4.3-1-.1-1.3-1.5-1.1-3.3-1.8-5.2-1.8zm0 0"/><path class="azst0" d="M7.9 2.7c1.3-.6 2.7-.9 4.1-.9 5.6 0 10.2 4.6 10.2 10.3 0 .5.4.9.9.9s.9-.4.9-.9C24 5.5 18.6 0 12 0c-1.7 0-3.3.3-4.8 1-.5.2-.7.8-.5 1.3.2.4.8.6 1.2.4zM4.4 4c-.4-.4-1-.3-1.3.1C1.1 6.3 0 9.2 0 12.2v8.4c0 .5.4.9.9.9s.9-.4.9-.9v-8.4c0-2.5.9-5 2.6-6.9.4-.4.3-1 0-1.3zm0 0"/></symbol><symbol viewBox="0 0 44 48" id="icon-header-calendar" xmlns="http://www.w3.org/2000/svg"><defs><style>.bacls-1{fill:#fff;fill-rule:evenodd;opacity:.5}</style></defs><path id="baicon_header_calendar" class="bacls-1" d="M40.06 13.807h2.955a.986.986 0 0 0 .985-.986v-2.63a6.25 6.25 0 0 0-6.239-6.247H24.468a2.953 2.953 0 0 1 4.988-.986.986.986 0 1 0 1.468-1.316 4.924 4.924 0 0 0-8.5 2.3H10.02a2.953 2.953 0 0 1 4.989-.986.986.986 0 1 0 1.468-1.316 4.924 4.924 0 0 0-8.5 2.3H6.239A6.25 6.25 0 0 0 0 10.191v31.562A6.25 6.25 0 0 0 6.239 48h31.522A6.25 6.25 0 0 0 44 41.753v-26.3a.985.985 0 1 0-1.97 0v26.3a4.279 4.279 0 0 1-3.618 4.224 6.226 6.226 0 0 0 1.648-4.224V13.807zm1.97-3.616v1.644h-1.97v-1.644a6.226 6.226 0 0 0-1.648-4.225 4.279 4.279 0 0 1 3.618 4.225zM1.97 41.753V13.807h4.269a.986.986 0 0 0 0-1.973H1.97v-1.643a4.276 4.276 0 0 1 4.269-4.274H7.98a4.935 4.935 0 0 0 4.826 3.945.986.986 0 0 0 0-1.972 2.96 2.96 0 0 1-2.786-1.973h12.408a4.935 4.935 0 0 0 4.826 3.945.986.986 0 0 0 0-1.972 2.96 2.96 0 0 1-2.786-1.972h9.353a4.276 4.276 0 0 1 4.269 4.274v1.644h-4.269a.986.986 0 0 0 0 1.973h4.269v27.944a4.276 4.276 0 0 1-4.269 4.274H6.239a4.276 4.276 0 0 1-4.269-4.274zm6.9-27.945h22.324a.986.986 0 0 0 0-1.973H8.866a.986.986 0 0 0 0 1.972zm25.284 26.63a.986.986 0 0 0-.985-.986h-4.6v-3.945h5.582v2.959a.985.985 0 1 0 1.97 0V18.739a2.96 2.96 0 0 0-2.955-2.959H6.9a2.96 2.96 0 0 0-2.96 2.959v19.726a2.961 2.961 0 0 0 2.96 2.959h26.264a.986.986 0 0 0 .985-.986zm-7.554-.986h-5.585v-3.945H26.6v3.945zm7.552-11.836h-5.585v-3.945h5.582v3.945zm-7.552 0h-5.585v-3.945H26.6v3.945zm0 1.973v3.945h-5.585v-3.945H26.6zM21.015 21.7v-3.947H26.6V21.7h-5.585zm-1.97 0h-5.582v-3.947h5.582V21.7zm0 1.973v3.945h-5.582v-3.947h5.582zm-7.552 3.945H5.91v-3.947h5.582v3.945zM5.91 29.589h5.582v3.945H5.91v-3.945zm7.552 0h5.582v3.945h-5.581v-3.945zm5.582 5.918v3.945h-5.581v-3.945h5.582zm9.522-1.973v-3.945h5.582v3.945h-5.581zm5.582-14.795V21.7h-5.581v-3.947h4.6a.987.987 0 0 1 .982.986zM6.9 17.753h4.6V21.7H5.91v-2.961a.987.987 0 0 1 .99-.986zm-.99 20.712v-2.958h5.582v3.945H6.9a.987.987 0 0 1-.99-.987z"/></symbol><symbol viewBox="0 0 48 48" id="icon-header-wallet" xmlns="http://www.w3.org/2000/svg"><defs><style>.bbcls-1{fill:#fff;fill-rule:evenodd;opacity:.5}</style></defs><path id="bbicon_header_wallet" class="bbcls-1" d="M89.317 24.9h-.035V10.278a1.086 1.086 0 0 0-1.069-1.1h-5.63L78.375.6a1.079 1.079 0 0 0-.621-.546 1.042 1.042 0 0 0-.816.063L59.559 9.176H48.33A4.374 4.374 0 0 0 44 13.464v30.075A4.4 4.4 0 0 0 48.33 48h39.882a1.086 1.086 0 0 0 1.069-1.1v-8.49h.035A2.728 2.728 0 0 0 92 35.645v-7.978a2.728 2.728 0 0 0-2.683-2.767zm-2.174-13.52v4.274h-1.382l-2.1-4.273h3.479zm-10.194-8.8l4.021 8.194 2.394 4.878h-2.072a1.109 1.109 0 0 0-.047-.113l-2.752-5.606a1.061 1.061 0 0 0-1.156-.584l-.327.065a3.061 3.061 0 0 1-3.21-1.46l-.212-.354a1.052 1.052 0 0 0-1.394-.407l-16.242 8.46h-4.081l8.429-4.391zM78.9 15.653H60.69L72.309 9.6a5.189 5.189 0 0 0 4.629 2.051zM48.33 11.38h7l-7.855 4.094a2.258 2.258 0 0 1-1.25-1.452L46.221 14c-.012-.043-.022-.086-.031-.129s-.014-.076-.02-.114l-.013-.091q-.009-.079-.013-.161a2.212 2.212 0 0 1 2.186-2.125zM87.143 45.8H48.33a2.229 2.229 0 0 1-2.192-2.259v-.517H78.81a1.1 1.1 0 0 0 0-2.2H46.138V17.249a4.219 4.219 0 0 0 1.4.532h.008l.03.006h.025c.063.011.126.021.19.029h.038l.089.008c.044 0 .087.009.132.012h.033c.083 0 .162.007.239.007h38.821v2.431H54.188a1.1 1.1 0 0 0 0 2.2h32.955V24.9H71.676a1.086 1.086 0 0 0-1.069 1.1v11.3a1.086 1.086 0 0 0 1.069 1.1h15.467v7.4zm2.718-10.151a.553.553 0 0 1-.545.561h-16.57v-9.1h16.571a.554.554 0 0 1 .545.561v7.978zM78.057 27.5a4.162 4.162 0 1 0 4.037 4.16 4.1 4.1 0 0 0-4.037-4.16zm0 6.116a1.957 1.957 0 1 1 1.9-1.956 1.93 1.93 0 0 1-1.9 1.952zm3.016 8.732a1.128 1.128 0 0 0 .1.19 1.06 1.06 0 0 0 .133.168 1.224 1.224 0 0 0 .163.137 1.088 1.088 0 0 0 .185.1 1.017 1.017 0 0 0 .409.084A1.062 1.062 0 0 0 82.27 43a1.044 1.044 0 0 0 .2-.063 1.088 1.088 0 0 0 .185-.1 1.175 1.175 0 0 0 .163-.137 1.059 1.059 0 0 0 .132-.168 1.136 1.136 0 0 0 .1-.19 1.2 1.2 0 0 0 .061-.206 1.135 1.135 0 0 0 .021-.216 1.116 1.116 0 0 0-.021-.215 1.149 1.149 0 0 0-.061-.206 1.124 1.124 0 0 0-.1-.19 1.057 1.057 0 0 0-1.1-.468.991.991 0 0 0-.2.063 1.146 1.146 0 0 0-.185.1 1.134 1.134 0 0 0-.163.137 1.058 1.058 0 0 0-.133.167 1.116 1.116 0 0 0-.1.19 1.141 1.141 0 0 0-.061.206 1.107 1.107 0 0 0-.02.215 1.133 1.133 0 0 0 .02.216 1.19 1.19 0 0 0 .065.209zM51.924 20.969a1.157 1.157 0 0 0-.1-.191 1.185 1.185 0 0 0-.134-.168 1.015 1.015 0 0 0-.163-.136 1.081 1.081 0 0 0-.184-.1 1.14 1.14 0 0 0-.2-.063 1.032 1.032 0 0 0-.418 0 1.082 1.082 0 0 0-.2.063 1.058 1.058 0 0 0-.185.1 1.019 1.019 0 0 0-.162.136 1.1 1.1 0 0 0-.133.168 1.178 1.178 0 0 0-.1.191 1.141 1.141 0 0 0-.082.421 1.125 1.125 0 0 0 .021.216 1.155 1.155 0 0 0 .061.206 1.189 1.189 0 0 0 .1.191 1.1 1.1 0 0 0 .133.166 1.049 1.049 0 0 0 .162.138 1.035 1.035 0 0 0 .185.1 1.063 1.063 0 0 0 .2.063 1.011 1.011 0 0 0 .209.022 1.029 1.029 0 0 0 .209-.022 1.116 1.116 0 0 0 .2-.063 1.057 1.057 0 0 0 .184-.1 1.046 1.046 0 0 0 .163-.138 1.183 1.183 0 0 0 .136-.169 1.214 1.214 0 0 0 .1-.191 1.14 1.14 0 0 0 .061-.637 1.11 1.11 0 0 0-.063-.203z" transform="translate(-44)"/></symbol><symbol id="icon-instruction" viewBox="0 0 24 30" xmlns="http://www.w3.org/2000/svg"><style>.bcst0{fill:#3eb39f}</style><path class="bcst0" d="M11.1 14.1H7.7c-.5 0-.9.4-.9.9v3.5c0 .5.4.9.9.9h3.4c.5 0 .9-.4.9-.9V15c0-.5-.4-.9-.9-.9zm-.8 3.5H8.6v-1.8h1.7v1.8zm.8 3.6H7.7c-.5 0-.9.4-.9.9v3.5c0 .5.4.9.9.9h3.4c.5 0 .9-.4.9-.9V22c0-.5-.4-.8-.9-.8zm-.8 3.5H8.6v-1.8h1.7v1.8z"/><path class="bcst0" d="M0 25.5c0 .5.4.9.9.9h2.6v2.7c0 .5.4.9.9.9h18.9c.5 0 .9-.4.9-.9V8.7c0-.7-.3-1.4-.8-1.9L21 4.3c-.1-.1-.2-.2-.3-.2V.9c0-.5-.4-.9-.9-.9H.9C.4 0 0 .4 0 .9v24.6zm5.1 2.7V5.3h12v4.4c0 .5.4.9.9.9h4.3v17.6H5.1zM22 8.1c.2.2.3.4.3.6v.2h-3.4V5.3h.1c.2 0 .4.1.6.3L22 8.1zM1.7 1.8h17.1v1.8H4.3c-.5 0-.9.4-.9.9v20.2H1.7V1.8z"/><path class="bcst0" d="M19.7 15.9h-5.1c-.5 0-.9.4-.9.9s.4.9.9.9h5.1c.5 0 .9-.4.9-.9s-.4-.9-.9-.9zm-12-3.5h6.9c.5 0 .9-.4.9-.9s-.4-.9-.9-.9H7.7c-.5 0-.9.4-.9.9s.4.9.9.9zm0-3.6h6.9c.5 0 .9-.4.9-.9s-.5-.8-.9-.8H7.7c-.5 0-.8.4-.8.9s.3.8.8.8zm12 14.1h-5.1c-.5 0-.9.4-.9.9s.4.9.9.9h5.1c.5 0 .9-.4.9-.9s-.4-.9-.9-.9z"/></symbol><symbol id="icon-menu-archive" viewBox="0 0 24 24" xmlns="http://www.w3.org/2000/svg"><style>.bdst0{fill:#919799}</style><path class="bdst0" d="M23.5 10.8c-.4-.6-1.1-.9-1.8-.9H21V7.7c0-1.2-.9-2.1-2.1-2.1h-.7v-.7c0-.2-.1-.4-.2-.5L13.8.2c-.1-.1-.3-.2-.5-.2H3.5c-.4 0-.7.4-.7.7v3.5h-.7C.9 4.2 0 5.2 0 6.3v15.5c0 1.4 1.3 2.3 2.2 2.1h17.5c1 0 1.8-.7 2.1-1.6l2.1-9.5c.2-.7 0-1.4-.4-2zM18.2 7h.7c.4 0 .7.3.7.7v2.2h-1.4V7zM14 2.4l1.8 1.8H14V2.4zm-9.8-1h8.4v3.5c0 .4.3.7.7.7h3.5v4.3H4.2V1.4zM1.4 6.3c0-.4.3-.7.7-.7h.7V11c-.1.2-.2.4-.2.6l-1.2 5.3V6.3zm21.2 6.2L20.4 22c-.1.3-.4.5-.7.5H2.4c-.2 0-.4-.1-.5-.3-.1-.2-.2-.4-.1-.6L4 11.8c.1-.3.4-.5.7-.5h17c.3 0 .6.1.7.4.2.2.2.5.2.8zm0 0"/><path class="bdst0" d="M14.7 7H6.3c-.4 0-.7.3-.7.7 0 .4.3.7.7.7h8.4c.4 0 .7-.3.7-.7 0-.4-.3-.7-.7-.7zm0 0"/></symbol><symbol id="icon-menu-exit" viewBox="0 0 24 24" xmlns="http://www.w3.org/2000/svg"><style>.best0{fill:#919799}</style><path class="best0" d="M23.7 11.3L18 7.2c-.5-.3-1.1 0-1.1.6v2.1h-1.4V2.1C15.4 1 14.5 0 13.3 0H2.1C1 0 0 1 0 2.1v16c0 .7.3 1.3.9 1.7l5.6 3.7c1.4.9 3.3-.1 3.3-1.7V21h3.5c1.2 0 2.1-.9 2.1-2.1V14h1.4v2.1c0 .6.7.9 1.1.6l5.7-4.2c.4-.3.4-.9.1-1.2zM7.4 22.4l-5.6-3.7c-.2-.1-.3-.3-.3-.6V1.9L8 5.1c.2.1.5.3.5.7v16.1c-.1.5-.7.8-1.1.5zm6.6-3.5c0 .4-.3.7-.7.7H9.8V5.7c0-.8-.5-1.5-1.3-1.9L3.7 1.4h9.6c.4 0 .7.3.7.7v7.7h-2.1c-.4 0-.7.3-.7.7v2.8c0 .4.3.7.7.7H14v4.9zm4.2-4.2v-1.4c0-.4-.3-.7-.7-.7h-4.9v-1.4h4.9c.4 0 .7-.3.7-.7V9.1l3.8 2.8-3.8 2.8zm0 0"/><path class="best0" d="M6.3 9.8c-.4 0-.7.3-.7.7v2.8c0 .4.4.7.7.7.4 0 .7-.3.7-.7v-2.8c0-.4-.3-.7-.7-.7zm0 0"/></symbol><symbol id="icon-menu-request" viewBox="0 0 24 24" xmlns="http://www.w3.org/2000/svg"><style>.bfst0{fill:#919799}</style><path class="bfst0" d="M20 2.8h-.7v-.7c0-1.2-.9-2.1-2-2.1H4C2.9 0 2 .9 2 2.1v17c0 1.2.9 2.1 2 2.1h.7v.7c0 1.2.9 2.1 2 2.1H20c1.1 0 2-.9 2-2.1v-17c0-1.1-.9-2.1-2-2.1zM5.3 5.4c-.4.4-.6.9-.6 1.5v12.9H4c-.4 0-.7-.3-.7-.7v-17c0-.4.3-.7.7-.7h13.3c.4 0 .7.3.7.7v.7H8.6c-.6 0-1.1.2-1.5.6l-1.8 2zm3.4-1.2V7H6v-.1c0-.2.1-.4.2-.5l1.9-2c.1-.1.3-.2.5-.2h.1zm12 17.7c0 .4-.3.7-.7.7H6.7c-.4 0-.7-.3-.7-.7V8.4h3.3c.4 0 .7-.3.7-.7V4.2h10c.4 0 .7.3.7.7v17zm0 0"/><path class="bfst0" d="M18.7 9.9H8c-.4 0-.7.3-.7.7 0 .4.3.7.7.7h10.7c.4 0 .7-.3.7-.7-.1-.3-.4-.7-.7-.7zm0 2.9H8c-.4 0-.7.3-.7.7 0 .4.3.7.7.7h10.7c.4 0 .7-.3.7-.7-.1-.4-.4-.7-.7-.7zm0 2.8H8c-.4 0-.7.3-.7.7 0 .4.3.7.7.7h10.7c.4 0 .7-.3.7-.7-.1-.4-.4-.7-.7-.7zm0 2.8H8c-.4 0-.7.3-.7.7 0 .4.3.7.7.7h10.7c.4 0 .7-.3.7-.7-.1-.4-.4-.7-.7-.7zm0 0"/></symbol><symbol id="icon-menu-user" viewBox="0 0 24 24" xmlns="http://www.w3.org/2000/svg"><style>.bgst0{fill:#919799}</style><path class="bgst0" d="M12 0C5.4 0 0 5.4 0 12c0 6.7 5.5 12 12 12 3.2 0 6.2-1.3 8.5-3.5 2.3-2.3 3.5-5.3 3.5-8.5 0-6.6-5.4-12-12-12zm6.3 20.5c-.4.3-.9.6-1.4.9v-2.3c0-.4-.3-.7-.7-.7-.4 0-.7.3-.7.7V22c-1.1.4-2.3.6-3.5.6-1.2 0-2.4-.2-3.5-.6v-2.9c0-.4-.3-.7-.7-.7-.4 0-.7.3-.7.7v2.3c-.5-.3-1-.6-1.4-.9v-1.4c0-2 1.6-3.6 3.5-3.6h5.6c1.9 0 3.5 1.6 3.5 3.6v1.4zm-9.8-9.9c0-1.9 1.6-3.5 3.5-3.5s3.5 1.5 3.5 3.4c-.1 1.9-1.5 3.5-3.3 3.6-2 .1-3.7-1.5-3.7-3.5zm11.2 8.6c0-2.9-2.1-4.8-4.4-5.1l.3-.3c.8-.9 1.3-2.2 1.3-3.5v-.1c-.2-2.5-2.3-4.5-4.9-4.5-2.7 0-4.9 2.2-4.9 4.9 0 1.4.5 2.6 1.5 3.6-2.3.3-4.3 2.2-4.3 5.1-1.8-1.9-2.9-4.4-2.9-7.2C1.4 6.2 6.2 1.4 12 1.4S22.6 6.2 22.6 12c0 2.8-1.1 5.3-2.9 7.2zm0 0"/></symbol><symbol viewBox="0 0 22.03 12" id="icon-pass" xmlns="http://www.w3.org/2000/svg"><defs><style>.bhcls-1{fill:#919799;fill-rule:evenodd}</style></defs><path id="bhicon-pass" class="bhcls-1" d="M1097.83 419.553a19.86 19.86 0 0 0-3.15-2.769 12 12 0 0 0-15.37 0 19.678 19.678 0 0 0-3.16 2.769.688.688 0 0 0 0 .894 19.735 19.735 0 0 0 3.16 2.769 12 12 0 0 0 15.37 0 19.918 19.918 0 0 0 3.15-2.769.688.688 0 0 0 0-.894zm-6.32.447a4.517 4.517 0 1 1-4.52-4.667 4.6 4.6 0 0 1 4.52 4.667zm-13.98 0a18.816 18.816 0 0 1 4.71-3.443 6.168 6.168 0 0 0 0 6.885 18.38 18.38 0 0 1-4.71-3.442zm14.21 3.443a6.12 6.12 0 0 0 0-6.885 18.38 18.38 0 0 1 4.71 3.442 18.841 18.841 0 0 1-4.71 3.443zm-7.97-3.443a3.227 3.227 0 1 0 3.22-3.334 3.279 3.279 0 0 0-3.22 3.334zm5.16 0a1.936 1.936 0 1 1-1.94-2 1.973 1.973 0 0 1 1.94 2z" transform="translate(-1076 -414)"/></symbol><symbol viewBox="0 0 22.03 12" id="icon-pass-show" xmlns="http://www.w3.org/2000/svg"><defs><style>.bicls-1{fill:#0cb9f2;fill-rule:evenodd}</style></defs><path id="biicon-pass-show" class="bicls-1" d="M1097.83 419.553a19.86 19.86 0 0 0-3.15-2.769 12 12 0 0 0-15.37 0 19.678 19.678 0 0 0-3.16 2.769.688.688 0 0 0 0 .894 19.735 19.735 0 0 0 3.16 2.769 12 12 0 0 0 15.37 0 19.918 19.918 0 0 0 3.15-2.769.688.688 0 0 0 0-.894zm-6.32.447a4.517 4.517 0 1 1-4.52-4.667 4.6 4.6 0 0 1 4.52 4.667zm-13.98 0a18.816 18.816 0 0 1 4.71-3.443 6.168 6.168 0 0 0 0 6.885 18.38 18.38 0 0 1-4.71-3.442zm14.21 3.443a6.12 6.12 0 0 0 0-6.885 18.38 18.38 0 0 1 4.71 3.442 18.841 18.841 0 0 1-4.71 3.443zm-7.97-3.443a3.227 3.227 0 1 0 3.22-3.334 3.279 3.279 0 0 0-3.22 3.334zm5.16 0a1.936 1.936 0 1 1-1.94-2 1.973 1.973 0 0 1 1.94 2z" transform="translate(-1076 -414)"/></symbol><symbol id="icon-pdf" viewBox="0 0 37 48" xmlns="http://www.w3.org/2000/svg"><style>.bjst0{fill:#ccc}</style><path class="bjst0" d="M36.6 10.1l-.6-.6-8.3-8.4-.7-.6c-.3-.3-.7-.5-1.1-.5H2C1 0 0 .8 0 2.4v43.9c0 .7.7 1.4 1.5 1.6h34c.8-.2 1.5-.9 1.5-1.6V11.6c0-.7-.1-1.1-.4-1.5zm-2.5-.2h-6.9V3l6.9 6.9zM2 46.3h-.2c-.1-.1-.2-.2-.2-.3V34h33.7v12c0 .2-.1.3-.2.3H2zm-.4-14V2.4c0-.2 0-.8.4-.8h23.5v9.9h9.8v20.7H1.6zm0 0"/><path class="bjst0" d="M12.8 37c-.3-.2-.6-.4-.9-.5-.3-.1-.7-.2-1-.2H8.4v8.3h1.3v-3h1c.4 0 .8-.1 1.2-.2.4-.1.7-.3.9-.5.3-.2.5-.5.6-.9.1-.3.2-.7.2-1.1 0-.4-.1-.8-.3-1.1 0-.3-.2-.5-.5-.8zm-.5 2.8c-.1.2-.2.4-.3.5-.1.1-.3.2-.4.3-.2.1-.3.1-.5.1H9.8v-3.3h1c.3 0 .6.1.8.2.2.1.4.2.5.4.1.2.2.3.2.5s.1.3.1.5c0 .3-.1.6-.1.8zm8.6-2.2c-.3-.4-.8-.7-1.3-.9-.5-.2-1.1-.3-1.8-.3h-2.5v8.3h3.6c.2 0 .5-.1.7-.2.3-.1.5-.2.8-.4.3-.2.5-.4.8-.8.2-.3.4-.7.6-1.2.1-.5.2-1.1.2-1.8 0-.5-.1-1-.3-1.5-.2-.4-.4-.9-.8-1.2zm-1 5.2c-.4.6-1.1.9-2 .9h-1.3v-6.3h.8c.6 0 1.2.1 1.6.3.4.2.7.4 1 .7.2.3.4.6.5.9.1.3.1.7.1 1 0 1.1-.2 1.9-.7 2.5zm4 1.9h1.4v-3.8h3.5V40h-3.5v-2.6h3.8v-1h-5.2v8.3zM26.3 19c-.8 0-1.7.1-2.8.3-1.5-1.6-3.1-4-4.2-6.3 1.1-4.7.6-5.3.3-5.6-.3-.3-.6-.9-1-.9-.2 0-.6.1-.8.1-.5.2-.7.5-.9 1-.6 1.4.2 3.7 1 5.5-.7 2.8-1.9 6.2-3.1 8.9-3.1 1.4-4.8 2.8-4.9 4.2-.1.5.1 1.2.9 1.9.2.2.5.3.8.3.7 0 1.4-.6 2.3-1.7.6-.9 1.3-2.1 2-3.5 2.2-1 4.9-1.8 7.3-2.3 1.3 1.3 2.5 1.9 3.5 1.9.7 0 1.4-.3 1.8-1 .5-.7.6-1.3.3-1.8-.5-.7-1.3-1-2.5-1zm-14.8 8c-.4-.3-.4-.5-.4-.6 0-.5.8-1.3 2.5-2.3-1.2 2.5-1.9 2.9-2.1 2.9zm6.8-19s.9.9.1 2.7c-1.2-1.2-.2-2.6-.1-2.7zm-1.7 13.3c.8-2 1.6-4.2 2.2-6.3.9 1.7 2 3.3 3.1 4.6-1.7.4-3.6 1-5.3 1.7zm10.6-.4c-.3.4-.8.4-1 .4-.4 0-.6-.3-1.3-.8.6-.1 1.1-.1 1.5-.1.7 0 .9.1 1 .2 0 0-.1.1-.2.3zm0 0"/></symbol><symbol id="icon-photo-add" viewBox="0 0 35.9 35.9" xmlns="http://www.w3.org/2000/svg"><style>.bkst0{fill:#c2c9cc}</style><path class="bkst0" d="M8.9 2.6c-.2 0-.4.1-.5.2h-.1c-1.3.8-2.5 1.8-3.5 3-.4.4-.4 1 .1 1.4.2.2.4.3.7.3.3 0 .6-.1.7-.3 1-1.1 2.1-2.1 3.4-2.8.2-.3.4-.9.1-1.4-.2-.3-.5-.5-.9-.4zM2.7 9.5c-.4 0-.7.2-.9.6-.6 1.1-1 2.3-1.3 3.6-.1.5.3 1.1.8 1.2h.2c.5 0 .9-.3 1-.8.3-1.5.7-2.9 1.4-4.2.2-.5 0-1.1-.5-1.3-.2.9-.3.9-.5.9h-.2zM1 18.6H.9c-.5.1-1 .5-.9 1.1 0 .5.1 1 .2 1.5v.4c.1.4.2.7.4 1.1.2.4.5.6.9.6.1 0 .2 0 .4-.1.5-.2.8-.8.6-1.3-.5-1.4-.9-2.8-1-4.3 0-.5-.5-.9-1-.9l.5 1.9zm3.4 8.7c-.6 0-1 .5-1 1 0 .2.1.4.2.6.2.2.4.5.6.7.5.6 1 1.1 1.6 1.6h.1l.1.1c.2.2.4.4.7.5.2.1.4.2.6.2.6 0 1-.4 1-1 0-.3-.1-.6-.4-.8-1.2-.9-2.2-1.9-3.1-3.1.2.3-.1.2-.4.2zm7.5 5.6c-.6 0-1 .5-1 1 0 .4.3.8.6.9 1.4.5 3 .9 4.5 1.1h.5c.6 0 1-.4 1-1s-.4-1-1-1c-1.5-.1-2.9-.5-4.3-1h-.3zm13.7-.7c-.2 0-.3 0-.5.1-1.3.7-2.7 1.2-4.2 1.4-.5.1-.9.6-.8 1.2.1.5.5.8 1 .8h.2c1.5-.3 2.9-.8 4.3-1.4l.1-.1c.5-.3.7-.9.4-1.3.2-.5-.1-.7-.5-.7zm6.8-6.4c-.3 0-.7.2-.9.5-.8 1.3-1.7 2.4-2.8 3.4-.4.4-.4 1-.1 1.4.2.2.5.3.7.3.3 0 .5-.1.7-.3 1-1 1.9-2 2.7-3.2.1-.1.1-.2.2-.3.3-.5.1-1.1-.3-1.4-.2-.1-.3-.1-.5-.1l.3-.3zm2.5-9c-.6 0-1 .5-1 1v.2c0 1.4-.2 2.9-.6 4.3-.1.5.2 1.1.7 1.2h.3c.4 0 .8-.3 1-.7.1-.3.1-.5.2-.8v-1.3c0-.5-.5-1-1-1l.4-2.9zm-2.6-8.9c-.2 0-.4.1-.5.2-.5.3-.6.9-.3 1.4.8 1.3 1.4 2.6 1.8 4 .1.4.5.7 1 .7.1 0 .2 0 .3-.1.5-.2.8-.7.7-1.2L35 12c-.4-1.1-1-2.2-1.6-3.2-.2-.3-.5-.5-.8-.5l-.3-.4zm-7-6.2c-.6 0-1 .4-1 1 0 .4.2.7.6.9 1.3.7 2.6 1.5 3.7 2.5.4.3 1 .3 1.4-.2.3-.4.3-1-.1-1.4-.6-.5-1.2-1-1.9-1.5-.5-.3-1.1-.6-1.6-.9-.8-.4-.9-.4-1.1-.4zM17.9 0h-.7c-1.2.1-2.4.2-3.5.5h-.2c-.5.2-.8.7-.7 1.2.1.4.5.7 1 .7h.3c.8-.2 2.3-.4 3.8-.4.9 0 1.8.1 2.8.2.5.1 1-.3 1.2-.8.1-.5-.3-1.1-.8-1.2h-.5c-.7-.1-1.3-.2-1.9-.2h-.8zm5 17h-4v-4c0-.6-.4-1-1-1s-1 .4-1 1v4h-4c-.6 0-1 .4-1 1s.4 1 1 1h4v4c0 .6.4 1 1 1s1-.4 1-1v-4h4c.6 0 1-.4 1-1s-.4-1-1-1z"/></symbol><symbol viewBox="0 0 35.906 35.94" id="icon-photo-add-change" xmlns="http://www.w3.org/2000/svg"><defs><style>.blcls-1{fill:#212426;fill-rule:evenodd}</style></defs><path id="blicon-photo-add-change" class="blcls-1" d="M533.034 1786.55a1.014 1.014 0 0 0-.527.15c-.018.01-.036.03-.054.04a.016.016 0 0 0-.017.01c-.006 0-.011.01-.016.01h-.008c0 .01-.006.01-.009.01h-.003c0 .01-.006.01-.009.01h-.007v.01h-.013v.01h-.013v.01h-.011c0 .01 0 .01-.006.01h-.01c0 .01 0 .01-.007.01h-.024c0 .01 0 .01-.008.01h-.007a.034.034 0 0 0 0 .01h-.009l-.007.01a.015.015 0 0 0-.016.01h-.009s0 .01-.007.01h-.009a.059.059 0 0 1-.033.02.015.015 0 0 1-.016.01 18.572 18.572 0 0 0-3.5 2.98 1 1 0 0 0 .739 1.68.988.988 0 0 0 .74-.33 16.278 16.278 0 0 1 3.406-2.84 1 1 0 0 0-.529-1.85zm-6.272 6.9a1.006 1.006 0 0 0-.9.56 17.974 17.974 0 0 0-1.317 3.56v.03a.146.146 0 0 0 0 .02c0 .01 0 .02-.007.03a.052.052 0 0 0 0 .02.052.052 0 0 0 0 .02v.02a.062.062 0 0 1 0 .02v.02a.017.017 0 0 1 0 .01.146.146 0 0 0 0 .02.036.036 0 0 0 0 .01.036.036 0 0 1 0 .01.036.036 0 0 1 0 .01.142.142 0 0 0 0 .02.036.036 0 0 1 0 .01v.03a.017.017 0 0 0 0 .01v.02a.016.016 0 0 1 0 .01.017.017 0 0 0 0 .01v.01a.042.042 0 0 0 0 .01.016.016 0 0 1 0 .01v.02a.017.017 0 0 1 0 .01.017.017 0 0 1 0 .01.016.016 0 0 1 0 .01v.03a.036.036 0 0 0 0 .01v.01a.036.036 0 0 1 0 .01.034.034 0 0 0 0 .01v.02a.036.036 0 0 0 0 .01v.01a.016.016 0 0 0 0 .01.016.016 0 0 0 0 .01.016.016 0 0 0 0 .01v.05a.016.016 0 0 1 0 .01v.02a.016.016 0 0 0 0 .01.016.016 0 0 1 0 .01v.1a.034.034 0 0 0 0 .01v.09a.016.016 0 0 1 0 .01v.02a.016.016 0 0 0 0 .01v.07a.034.034 0 0 0 0 .01v.01a.016.016 0 0 0 0 .01v.05a.016.016 0 0 1 0 .01.016.016 0 0 0 0 .01v.04a.016.016 0 0 1 0 .01v.04a1 1 0 0 0 .8 1.16 1.139 1.139 0 0 0 .181.02 1 1 0 0 0 .983-.82 15.886 15.886 0 0 1 1.4-4.2 1 1 0 0 0-.451-1.34 1.018 1.018 0 0 0-.444-.11zm-1.684 9.18h-.1a1 1 0 0 0-.9 1.09q.071.735.2 1.47l.036.19a.142.142 0 0 0 0 .02v.01a.062.062 0 0 1 0 .02.062.062 0 0 1 0 .02v.03a.042.042 0 0 1 0 .02.042.042 0 0 0 0 .02.042.042 0 0 0 0 .02v.01a.052.052 0 0 1 0 .02.042.042 0 0 0 0 .02v.04a.036.036 0 0 0 0 .01v.03a.142.142 0 0 1 0 .02v.01a.036.036 0 0 1 0 .01v.01a.136.136 0 0 0 0 .02.062.062 0 0 0 0 .02v.01a.042.042 0 0 1 0 .01v.01a.123.123 0 0 0 0 .02v.03a.142.142 0 0 0 0 .02v.03a.062.062 0 0 1 0 .02.052.052 0 0 1 0 .02.016.016 0 0 0 0 .01.042.042 0 0 0 0 .01v.02a.016.016 0 0 0 0 .01.123.123 0 0 0 0 .02.016.016 0 0 0 0 .01v.02a.142.142 0 0 1 0 .02v.03a.142.142 0 0 1 0 .02.016.016 0 0 0 0 .01.017.017 0 0 1 0 .01v.01a.042.042 0 0 1 0 .01v.02a.016.016 0 0 0 0 .01v.01a.042.042 0 0 0 0 .01v.02a.016.016 0 0 0 0 .01v.04a.034.034 0 0 0 0 .01v.06a.016.016 0 0 0 0 .01v.01a.016.016 0 0 0 0 .01.042.042 0 0 0 0 .02.016.016 0 0 0 0 .01v.01a.016.016 0 0 0 0 .01.034.034 0 0 0 0 .01v.02a.036.036 0 0 0 0 .01v.01a.016.016 0 0 0 0 .01v.03a.034.034 0 0 0 0 .01v.04a.016.016 0 0 0 0 .01.017.017 0 0 0 0 .01v.01a.036.036 0 0 1 0 .01.034.034 0 0 1 0 .01v.06a.016.016 0 0 0 0 .01v.01a.034.034 0 0 1 0 .01v.02a.016.016 0 0 0 0 .01v.01a.016.016 0 0 0 0 .01.016.016 0 0 1 0 .01v.02a.036.036 0 0 0 0 .01.016.016 0 0 1 0 .01.085.085 0 0 1 0 .02v.02a.016.016 0 0 1 0 .01.042.042 0 0 0 0 .01v.02a.016.016 0 0 0 0 .01v.01a.038.038 0 0 0 0 .01v.01a.017.017 0 0 1 0 .01.016.016 0 0 1 0 .01.034.034 0 0 1 0 .01v.07a.016.016 0 0 0 0 .01v.03a.042.042 0 0 1 0 .01v.03a.085.085 0 0 0 0 .02v.02a.016.016 0 0 0 0 .01.146.146 0 0 1 0 .02.036.036 0 0 0 0 .01v.02a.052.052 0 0 1 0 .02.052.052 0 0 1 0 .02.052.052 0 0 0 0 .02.052.052 0 0 0 0 .02v.01a.146.146 0 0 1 0 .02v.02a.017.017 0 0 1 0 .01s0 .01.006.01v.01a.142.142 0 0 1 0 .02.045.045 0 0 0 .006.02c.006.02.013.05.02.07l.017.05c.115.36.241.71.378 1.06a1 1 0 0 0 .93.63.943.943 0 0 0 .365-.07 1 1 0 0 0 .566-1.29 15.91 15.91 0 0 1-1.026-4.31.993.993 0 0 0-.994-.9zm3.4 8.67a1.006 1.006 0 0 0-.8 1.61c.184.24.373.47.569.71l.03.03c0 .01.009.01.013.02s.008.01.012.01a.042.042 0 0 0 0 .01l.006.01h.007c0 .01 0 .01.006.01s0 .01 0 .01h.007v.02h.007v.01c0 .01 0 .01.006.01s0 0 0 .01h.008c0 .01 0 .01.006.01a.047.047 0 0 0 0 .01v.01h.008c0 .01 0 .01.005.01a.047.047 0 0 1 0 .01.147.147 0 0 0 .013.01c0 .01.008.01.012.02a.127.127 0 0 1 .012.01c0 .01.008.01.012.02h.007a17.93 17.93 0 0 0 1.62 1.63.013.013 0 0 1 .014.01s.009.01.014.01a.013.013 0 0 0 .014.01v.01h.007a.061.061 0 0 0 .007.01h.007a.243.243 0 0 1 .014.02h.008c0 .01 0 .01.007.01s0 0 .006.01h.009c0 .01 0 .01.006.01s0 0 .007.01h.008a.061.061 0 0 1 .007.01h.008v.01l.006.01h.009c0 .01 0 .01.006.01h.006v.01h.008v.01h.007v.01h.006a.042.042 0 0 1 0 .01h.008v.01h.007v.01h.009a.036.036 0 0 1 0 .01h.01v.01h.008v.01h.006s0 .01.007.01h.11a.243.243 0 0 0 .014.02.17.17 0 0 1 .014.01s.01.01.015.01c.007.01.013.01.02.02.027.02.055.05.082.07.221.18.445.36.674.53a1.024 1.024 0 0 0 .6.2 1 1 0 0 0 .6-1.8 16.131 16.131 0 0 1-3.149-3.12 1 1 0 0 0-.8-.4zm7.468 5.59a1 1 0 0 0-.36 1.93 18.131 18.131 0 0 0 4.49 1.08h.05a.019.019 0 0 1 .02.01h.1v.01h.1a.038.038 0 0 0 0 .01h.1a.256.256 0 0 0 .086.01 1 1 0 0 0 .085-2 16.315 16.315 0 0 1-4.317-.98.9.9 0 0 0-.356-.07zm13.741-.72a.923.923 0 0 0-.452.11 15.913 15.913 0 0 1-4.187 1.43 1 1 0 0 0 .188 1.98.6.6 0 0 0 .187-.02 18.02 18.02 0 0 0 4.315-1.41.017.017 0 0 1 .018-.01c.006 0 .011-.01.018-.01h.007a.015.015 0 0 1 .016-.01v-.01h.018v-.01h.018a.042.042 0 0 0 0-.01h.018v-.01h.014v-.01h.035v-.01h.017s0-.01.006-.01h.012l.006-.01h.017v-.01h.017a.07.07 0 0 0 .008-.01H550s.006 0 .008-.01h.018l.112-.06a1 1 0 0 0-.454-1.89zm6.845-6.34a1 1 0 0 0-.855.48 15.984 15.984 0 0 1-2.806 3.43 1 1 0 0 0-.055 1.41.986.986 0 0 0 1.414.06 18.354 18.354 0 0 0 2.733-3.2c.009-.01.018-.03.027-.04a.034.034 0 0 0 .011-.02h.006v-.02a.047.047 0 0 1 0-.01v-.01h.006v-.05h.006v-.04h.006v-.05a.016.016 0 0 0 0-.01h.007v-.03a.042.042 0 0 0 0-.01v-.02a.017.017 0 0 0 0-.01v-.02l.006-.01a.016.016 0 0 0 0-.01s.007-.01.01-.01c0-.01.007-.01.011-.02l.169-.27a1.005 1.005 0 0 0-.854-1.52zm2.474-8.99H559a1.011 1.011 0 0 0-1 1.01v.15a16.131 16.131 0 0 1-.569 4.25 1 1 0 0 0 .7 1.23 1.212 1.212 0 0 0 .266.03 1 1 0 0 0 .963-.73q.106-.39.195-.78a.016.016 0 0 1 0-.01v-.03a.052.052 0 0 0 0-.02l.006-.03a.052.052 0 0 1 0-.02.016.016 0 0 1 0-.01.142.142 0 0 1 0-.02.016.016 0 0 0 0-.01v-.04a.016.016 0 0 1 0-.01.034.034 0 0 1 0-.01v-.01a.034.034 0 0 1 0-.01v-.01a.017.017 0 0 0 0-.01v-.01a.034.034 0 0 0 0-.01v-.02a.016.016 0 0 1 0-.01.016.016 0 0 1 0-.01.034.034 0 0 1 0-.01v-.01a.034.034 0 0 1 0-.01v-.05a.016.016 0 0 0 0-.01v-.1a.016.016 0 0 0 0-.01v-.03a.017.017 0 0 1 0-.01v-.01a.08.08 0 0 1 0-.02v-.03a.016.016 0 0 0 0-.01.08.08 0 0 0 0-.02v-.03a.08.08 0 0 1 0-.02.034.034 0 0 1 0-.01v-.03a.049.049 0 0 0 0-.02.016.016 0 0 0 0-.01.042.042 0 0 1 0-.01.016.016 0 0 1 0-.01.042.042 0 0 1 0-.02.016.016 0 0 1 0-.01v-.08a.08.08 0 0 1 0-.02v-.06a.016.016 0 0 0 0-.01.052.052 0 0 1 0-.02v-.01a.476.476 0 0 0 .009-.05v-.06a.476.476 0 0 0 .009-.05l.009-.06c0-.03.011-.07.016-.11a.476.476 0 0 1 .009-.05v-.06c0-.02 0-.04.008-.06 0-.02 0-.03.007-.05v-.06l.012-.09c0-.04.009-.08.014-.11v-.06c0-.02 0-.04.007-.06 0-.03.006-.05.009-.08v-.12a.08.08 0 0 0 0-.02l.009-.09v-.06a.08.08 0 0 0 0-.02v-.09a.034.034 0 0 0 0-.01.117.117 0 0 0 0-.02v-.04a.034.034 0 0 0 0-.01v-.01a.117.117 0 0 1 0-.02v-.06a.034.034 0 0 0 0-.01.134.134 0 0 0 0-.02v-.01a.117.117 0 0 0 0-.02v-.04a.034.034 0 0 1 0-.01v-.01a.077.077 0 0 1 0-.02v-.01a.134.134 0 0 1 0-.02v-.07a.077.077 0 0 0 0-.02V1803.06a.134.134 0 0 0 0-.02.034.034 0 0 0 0-.01v-.03a.134.134 0 0 1 0-.02v-.16a.034.034 0 0 0 0-.01v-.01a.034.034 0 0 0 0-.01v-.01a.034.034 0 0 1 0-.01v-.07a.016.016 0 0 0 0-.01v-.07a.016.016 0 0 1 0-.01v-.02a.016.016 0 0 1 0-.01v-.02a.034.034 0 0 1 0-.01V1802.12a.016.016 0 0 1 0-.01V1801.82a1 1 0 0 0-1-.98zm-2.642-8.94a.966.966 0 0 0-.536.16 1 1 0 0 0-.308 1.38 15.839 15.839 0 0 1 1.832 4.03 1.008 1.008 0 0 0 .958.72.937.937 0 0 0 .283-.05 1 1 0 0 0 .678-1.24c-.093-.31-.192-.62-.3-.92a.159.159 0 0 0-.007-.02c0-.01 0-.01-.006-.02a.017.017 0 0 1 0-.01v-.02s0-.01-.006-.01a.034.034 0 0 1 0-.01v-.01a.016.016 0 0 1 0-.01.017.017 0 0 0 0-.01v-.02a.034.034 0 0 1 0-.01.016.016 0 0 1 0-.01v-.08a.016.016 0 0 0 0-.01v-.05a.036.036 0 0 1 0-.01v-.01a.036.036 0 0 0 0-.01v-.02s0-.01-.006-.01v-.01s0-.01-.006-.01v-.01a.041.041 0 0 0-.007-.02c0-.01 0-.01-.007-.02 0-.01 0-.01-.007-.02a18.307 18.307 0 0 0-1.6-3.17 1 1 0 0 0-.845-.46zm-6.958-6.21a1 1 0 0 0-.437 1.9 16.193 16.193 0 0 1 3.682 2.47 1 1 0 0 0 1.333-1.49 18.639 18.639 0 0 0-1.918-1.5c-.013-.01-.025-.01-.038-.02a.059.059 0 0 0-.033-.02v-.01s-.007 0-.01-.01h-.007c-.006 0-.01-.01-.016-.01a.014.014 0 0 0-.015-.01.047.047 0 0 1 0-.01h-.012v-.01h-.035v-.01h-.007l-.008-.01h-.013c0-.01-.006-.01-.01-.01s0 0 0-.01h-.012v-.01h-.013v-.01h-.008v-.01h-.029l-.006-.01h-.011v-.01h-.012a.042.042 0 0 0 0-.01h-.012v-.01h-.012v-.01h-.01a.017.017 0 0 1 0-.01h-.007s-.01-.01-.015-.01h-.008v-.01h-.009l-.006-.01h-.011l-.006-.01h-.01l-.006-.01h-.01s0-.01-.007-.01h-.009s0-.01-.008-.01h-.009a.07.07 0 0 0-.008-.01h-.008a.016.016 0 0 0-.016-.01.015.015 0 0 0-.016-.01l-.041-.03s-.011-.01-.016-.01c-.531-.33-1.08-.63-1.647-.91a.967.967 0 0 0-.435-.1zM542 1784h-.441a.018.018 0 0 1-.019.01h-.269a.02.02 0 0 0-.02.01h-.059a17.993 17.993 0 0 0-3.546.51c-.016 0-.031.01-.046.01-.009 0-.018.01-.027.01a.031.031 0 0 0-.027.01h-.019a.017.017 0 0 0-.018.01h-.038c0 .01-.006.01-.009.01h-.03c0 .01 0 .01-.006.01h-.03s0 .01-.007.01h-.032v.01h-.037s0 .01-.007.01h-.032v.01h-.026c-.006 0-.013.01-.019.01-.018 0-.035.01-.053.01a.548.548 0 0 0-.118.04 1 1 0 0 0 .275 1.96 1.3 1.3 0 0 0 .274-.04A15.818 15.818 0 0 1 542 1786a15.822 15.822 0 0 1 2.754.24 1 1 0 0 0 .343-1.97c-.026-.01-.051-.01-.077-.02h-.036s-.008-.01-.012-.01h-.051v-.01h-.06c0-.01 0-.01-.006-.01h-.055s-.006-.01-.009-.01h-.061c0-.01-.007-.01-.01-.01h-.049a.025.025 0 0 0-.023-.01h-.048a17.035 17.035 0 0 0-1.762-.17h-.088a.026.026 0 0 0-.024-.01h-.282a.011.011 0 0 0-.012-.01H542z" transform="translate(-524.094 -1784)"/></symbol><symbol id="icon-photo-add-hover" viewBox="0 0 35.9 35.9" xmlns="http://www.w3.org/2000/svg"><style>.bmst0{fill:#212426}</style><path class="bmst0" d="M8.9 2.6c-.2 0-.4.1-.5.2h-.1c-1.3.8-2.5 1.8-3.5 3-.4.4-.4 1 .1 1.4.2.2.4.3.7.3.3 0 .6-.1.7-.3 1-1.1 2.1-2.1 3.4-2.8.2-.3.4-.9.1-1.4-.2-.3-.5-.5-.9-.4zM2.7 9.5c-.4 0-.7.2-.9.6-.6 1.1-1 2.3-1.3 3.6-.1.5.3 1.1.8 1.2h.2c.5 0 .9-.3 1-.8.3-1.5.7-2.9 1.4-4.2.2-.5 0-1.1-.5-1.3-.2.9-.3.9-.5.9h-.2zM1 18.6H.9c-.5.1-1 .5-.9 1.1 0 .5.1 1 .2 1.5v.4c.1.4.2.7.4 1.1.2.4.5.6.9.6.1 0 .2 0 .4-.1.5-.2.8-.8.6-1.3-.5-1.4-.9-2.8-1-4.3 0-.5-.5-.9-1-.9l.5 1.9zm3.4 8.7c-.6 0-1 .5-1 1 0 .2.1.4.2.6.2.2.4.5.6.7.5.6 1 1.1 1.6 1.6h.1l.1.1c.2.2.4.4.7.5.2.1.4.2.6.2.6 0 1-.4 1-1 0-.3-.1-.6-.4-.8-1.2-.9-2.2-1.9-3.1-3.1.2.3-.1.2-.4.2zm7.5 5.6c-.6 0-1 .5-1 1 0 .4.3.8.6.9 1.4.5 3 .9 4.5 1.1h.4c.6 0 1-.4 1-1s-.4-1-1-1c-1.5-.1-2.9-.5-4.3-1h-.2zm13.7-.7c-.2 0-.3 0-.5.1-1.3.7-2.7 1.2-4.2 1.4-.5.1-.9.6-.8 1.2.1.5.5.8 1 .8h.2c1.5-.3 2.9-.8 4.3-1.4l.1-.1c.5-.3.7-.9.4-1.3.2-.5-.1-.7-.5-.7zm6.8-6.4c-.3 0-.7.2-.9.5-.8 1.3-1.7 2.4-2.8 3.4-.4.4-.4 1-.1 1.4.2.2.5.3.7.3.3 0 .5-.1.7-.3 1-1 1.9-2 2.7-3.2.1-.1.1-.2.2-.3.3-.5.1-1.1-.3-1.4-.2-.1-.3-.1-.5-.1l.3-.3zm2.5-9c-.6 0-1 .5-1 1v.2c0 1.4-.2 2.9-.6 4.3-.1.5.2 1.1.7 1.2h.3c.4 0 .8-.3 1-.7.1-.3.1-.5.2-.8v-1.3c0-.5-.5-1-1-1l.4-2.9zm-2.6-8.9c-.2 0-.4.1-.5.2-.5.3-.6.9-.3 1.4.8 1.3 1.4 2.6 1.8 4 .1.4.5.7 1 .7.1 0 .2 0 .3-.1.5-.2.8-.7.7-1.2L35 12c-.4-1.1-1-2.2-1.6-3.2-.2-.3-.5-.5-.8-.5l-.3-.4zm-7-6.2c-.6 0-1 .4-1 1 0 .4.2.7.6.9 1.3.7 2.6 1.5 3.7 2.5.4.3 1 .3 1.4-.2.3-.4.3-1-.1-1.4-.6-.5-1.2-1-1.9-1.5-.5-.3-1.1-.6-1.6-.9-.8-.4-.9-.4-1.1-.4zM17.9 0h-.8c-1.2.1-2.4.2-3.5.5h-.2c-.5.2-.8.7-.7 1.2.1.4.5.7 1 .7h.3c.9-.2 2.4-.4 3.9-.4.9 0 1.8.1 2.8.2.5.1 1.1-.3 1.1-.8.1-.5-.3-1-.8-1.1h-.5c-.6-.2-1.2-.3-1.8-.3h-.8zm5 17h-4v-4c0-.6-.4-1-1-1s-1 .4-1 1v4h-4c-.6 0-1 .4-1 1s.4 1 1 1h4v4c0 .6.4 1 1 1s1-.4 1-1v-4h4c.6 0 1-.4 1-1s-.4-1-1-1z"/></symbol><symbol id="icon-plus" viewBox="0 0 12 12" xmlns="http://www.w3.org/2000/svg"><style>.bnst0{fill:#919799}</style><path class="bnst0" d="M11 5H7V1c0-.6-.4-1-1-1S5 .4 5 1v4H1c-.6 0-1 .4-1 1s.4 1 1 1h4v4c0 .6.4 1 1 1s1-.4 1-1V7h4c.6 0 1-.4 1-1s-.4-1-1-1z"/></symbol><symbol viewBox="0 0 18 18" id="icon-question" xmlns="http://www.w3.org/2000/svg"><defs><style>.bocls-1{fill:#3eb39f;fill-rule:evenodd}</style></defs><path id="boicon-question" class="bocls-1" d="M1113 1142a9 9 0 1 1-9 9 9 9 0 0 1 9-9zm-1.17 10.52h1.97a1.264 1.264 0 0 1 .22-.76 5.451 5.451 0 0 1 .7-.77q.4-.39.66-.69a2.707 2.707 0 0 0 .43-.73 2.586 2.586 0 0 0 .18-1 2.24 2.24 0 0 0-.91-1.9 3.906 3.906 0 0 0-2.4-.68 4.65 4.65 0 0 0-2.21.49 3.644 3.644 0 0 0-1.48 1.38l1.58.98a2.293 2.293 0 0 1 .8-.75 2.083 2.083 0 0 1 1.09-.28 1.627 1.627 0 0 1 1.02.3.966.966 0 0 1 .38.82 1.037 1.037 0 0 1-.2.64 4.928 4.928 0 0 1-.63.71 6.278 6.278 0 0 0-.89 1.04 2.12 2.12 0 0 0-.31 1.2zm.99 3.49a1.17 1.17 0 0 0 .89-.37 1.237 1.237 0 0 0 .36-.9 1.223 1.223 0 0 0-.35-.88 1.19 1.19 0 0 0-.9-.36 1.213 1.213 0 0 0-1.25 1.24 1.237 1.237 0 0 0 .36.9 1.17 1.17 0 0 0 .89.37z" transform="translate(-1104 -1142)"/></symbol><symbol id="icon-question-ok" viewBox="0 0 36 36" xmlns="http://www.w3.org/2000/svg"><style>.bpst0{fill:#3eb39f}</style><path class="bpst0" d="M18 0C8.1 0 0 8.1 0 18s8.1 18 18 18 18-8.1 18-18S27.9 0 18 0zm5.6 16l-6 6c-.6.6-1.5.6-2.1 0l-3-3c-.6-.6-.6-1.5 0-2.1.6-.6 1.5-.6 2.1 0l1.9 1.9 4.9-4.9c.6-.6 1.5-.6 2.1 0s.7 1.5.1 2.1z"/></symbol><symbol id="icon-question-wrong" viewBox="0 0 36 36" xmlns="http://www.w3.org/2000/svg"><style>.bqst0{fill:#f26d6d}</style><path class="bqst0" d="M18 0C8.1 0 0 8.1 0 18s8.1 18 18 18 18-8.1 18-18S27.9 0 18 0zm4.5 22.5c-.3.3-.7.5-1.2.5-.4 0-.9-.2-1.2-.5L18 20.3l-2.2 2.2c-.7.6-1.7.6-2.4 0-.6-.6-.6-1.7 0-2.3l2.2-2.2-2.2-2.2c-.7-.6-.7-1.7 0-2.4.3-.3.7-.5 1.2-.5.4 0 .9.2 1.2.5l2.2 2.2 2.2-2.2c.3-.3.7-.5 1.2-.5.9 0 1.7.7 1.7 1.7 0 .4-.2.9-.5 1.2L20.4 18l2.2 2.2c.6.6.6 1.7-.1 2.3z"/></symbol><symbol id="icon-radio" viewBox="0 0 24 24" xmlns="http://www.w3.org/2000/svg"><style>.brst0{fill:#c6cacc}</style><path class="brst0" d="M12 2c5.5 0 10 4.5 10 10s-4.5 10-10 10S2 17.5 2 12 6.5 2 12 2m0-2C5.4 0 0 5.4 0 12s5.4 12 12 12 12-5.4 12-12S18.6 0 12 0z"/></symbol><symbol id="icon-radio-nrml" viewBox="0 0 24 24" xmlns="http://www.w3.org/2000/svg"><style>.bsst0{fill:#3e95b2}</style><path class="bsst0" d="M12 2c5.5 0 10 4.5 10 10s-4.5 10-10 10S2 17.5 2 12 6.5 2 12 2m0-2C5.4 0 0 5.4 0 12s5.4 12 12 12 12-5.4 12-12S18.6 0 12 0z"/><circle class="bsst0" cx="12" cy="12" r="7"/></symbol><symbol id="icon-radio-ok" viewBox="0 0 24 24" xmlns="http://www.w3.org/2000/svg"><style>.btst0{fill:#3eb39f}</style><path class="btst0" d="M12 2c5.5 0 10 4.5 10 10s-4.5 10-10 10S2 17.5 2 12 6.5 2 12 2m0-2C5.4 0 0 5.4 0 12s5.4 12 12 12 12-5.4 12-12S18.6 0 12 0z"/><circle class="btst0" cx="12" cy="12" r="7"/></symbol><symbol id="icon-radio-wrong" viewBox="0 0 24 24" xmlns="http://www.w3.org/2000/svg"><style>.bust0{fill:#f26d6d}</style><path class="bust0" d="M12 2c5.5 0 10 4.5 10 10s-4.5 10-10 10S2 17.5 2 12 6.5 2 12 2m0-2C5.4 0 0 5.4 0 12s5.4 12 12 12 12-5.4 12-12S18.6 0 12 0z"/><circle class="bust0" cx="12" cy="12" r="7"/></symbol><symbol id="icon-zip" viewBox="0 0 37 48" xmlns="http://www.w3.org/2000/svg"><style>.bvst0{fill:#ccc}</style><path class="bvst0" d="M36.6 10.1l-.6-.6-8.3-8.4-.7-.6c-.3-.3-.7-.5-1.1-.5H2C1 0 0 .8 0 2.4v43.9c0 .7.7 1.4 1.5 1.6h34c.8-.2 1.5-.9 1.5-1.6V11.6c0-.7-.1-1.1-.4-1.5zM27.1 3l6.9 7h-6.9V3zM2 46.3h-.2c-.1-.1-.2-.2-.2-.3V34h33.7v12c0 .1-.1.3-.2.3H2zm-.4-14V2.4c0-.2 0-.8.4-.8h23.5v9.9h9.8v20.7H1.6zm0 0"/><path class="bvst0" d="M10.7 37.4h4.2l-.2.2-3.9 6v1.1h5.5v-1.1h-4.2l.2-.2 3.9-6v-1.1h-5.5v1.1zm7.5-1h1.4v8.3h-1.4zm7.8.6c-.3-.2-.6-.4-.9-.5-.3-.1-.7-.2-1-.2h-2.4v8.3H23v-3h1c.4 0 .8-.1 1.2-.2.4-.1.7-.3.9-.5.3-.2.5-.5.6-.9.1-.3.2-.7.2-1.1 0-.4-.1-.8-.3-1.1-.1-.3-.4-.5-.6-.8zm-.6 2.8c-.1.2-.2.4-.3.5-.1.1-.3.2-.4.3-.2.1-.3.1-.5.1H23v-3.3h1c.3 0 .6.1.8.2.2.1.4.2.5.4.1.2.2.3.2.5s.1.3.1.5c0 .3-.1.6-.2.8zM18.9 19h1.6v-1.7h-1.6v-1.7h1.6v-1.7h-1.6v-1.7h1.6v-1.7h-1.6V9.1h1.6V7.4h-1.6V5.8h-1.6v1.7h-1.6v1.7h1.6v1.7h-1.6v1.7h1.6v1.7h-1.6V16h1.6v1.7h-1.6V19h1.6v1.7H14v4.1c0 2.3 1.8 4.1 4.1 4.1s4.1-1.9 4.1-4.1v-4.1h-3.3V19zm1.7 5.8c0 1.4-1.1 2.5-2.5 2.5s-2.5-1.1-2.5-2.5v-2.5h4.9v2.5zm0 0"/><path class="bvst0" d="M17.3 25.7h1.6c.5 0 .8-.4.8-.8 0-.5-.4-.8-.8-.8h-1.6c-.5 0-.8.4-.8.8-.1.4.3.8.8.8zm0 0"/></symbol></svg>